<svg xmlns="http://www.w3.org/2000/svg" id="Client-Older-Male" class="avatar-user avatar-male skin-darker" viewBox="0 0 250.5 757.6">
  <style>
    <!-- avatar specific shading styles -->
    #Client-Older-Male .collar-color{fill:#FFFFFF;}
    #Client-Older-Male .random-shade{opacity:0.1;}
    #Client-Older-Male .nose-shade{fill:url(#nose-shade_3_);}
    #Client-Older-Male .eye-right-shade{fill:url(#eye-right-shade_3_);}
    #Client-Older-Male .eye-left-shade{fill:url(#eye-left-shade_3_);}
    #Client-Older-Male .neck-shade{fill:url(#neck-shade_3_);}
    #Client-Older-Male .pant-right-shade{fill:url(#pant-right-shade_3_);}
    #Client-Older-Male .pant-left-shade{fill:url(#pant-left-shade_3_);}
    #Client-Older-Male .shirt-shade{fill:url(#shirt-shade_3_);}
    #Client-Older-Male .ear-shade{fill:url(#ear-shade_3_);}
  </style>
  <path id="collar-right-white" d="M92 118.3c-1.8-.3-5.2 4.7-6.2 6.8-1 2.1-7.5 21.5-7.5 21.5l9.5-10.1 7.4-.4-3.2-17.8z" class="collar-color"/>
  <path id="collar-right-shade" d="M93 118.5s-6.2 6.4-5.6 10.7c.6 4.4 3.9 6.3 5.4 7.6s3.2.9 3.2.9l-3-19.2z" class="random-shade"/>
  <path id="face-color" d="M94.5 132.4s-3.1-18.3-4-19.8c-.9-1.6-5.4-2-6.5-3.1-1-1-5.7-5.7-8.3-10.4-2.6-4.7-7.2-11.7-8.1-16-.9-4.3-2.8-10-2.9-12.5 0-2.5-.4-4.3-1.1-6.6s-2.4-4.8-2-9.1c.3-4.3.6-11.6.9-13.7.3-2.2 6.2-15.9 10.7-19.2s16.3-8.7 30.7-9.6c23.5-.2 30.4 27 31.2 34.2s-.3 14.9-1.8 18.4c-1.4 3.5-2.8 9.6-3.6 15.6-.7 6 .4 13.3 1.6 17.3 1.2 4 2.1 10.6 2.1 10.6s-14.2 20.3-19.5 24.2c-5.3 3.9-13.2 9.2-15.8 7.4-2.7-1.7-3.6-7.7-3.6-7.7z" class="skin-color"/>
  <linearGradient id="nose-shade_3_" x1="-3806.5251" x2="-3806.5251" y1="-217.9822" y2="-208.7237" gradientUnits="userSpaceOnUse" gradientTransform="matrix(0.8198 -0.3804 0.2596 0.5593 3258.5527 -1244.5753)">
    <stop offset="0" stop-opacity="0"/>
    <stop offset="1" stop-opacity=".2"/>
  </linearGradient>
  <path id="nose-shade" d="M72.8 85.5c.7.7 3 3 7.2 2.5 4.2-.6 9.5-5.2 11-8l-18.2 5.5z" class="nose-shade"/>
  <linearGradient id="eye-right-shade_3_" x1="365.6829" x2="365.6829" y1="781.4966" y2="787.9351" gradientUnits="userSpaceOnUse" gradientTransform="matrix(-1.1308 0.6736 -0.519 -0.8918 890.8801 517.345)">
    <stop offset="0" stop-opacity="0"/>
    <stop offset="1" stop-opacity=".2"/>
  </linearGradient>
  <path id="eye-right-shade" d="M70 60.5c-2.2.5-4.4 2.1-6.3 3.9.4 1.3.6 2.4.7 3.8l13.4-5.3c-.7-.7-3.5-3.2-7.8-2.4z" class="eye-right-shade"/>
  <linearGradient id="eye-left-shade_3_" x1="378.4164" x2="378.4164" y1="1268.2296" y2="1275.073" gradientUnits="userSpaceOnUse" gradientTransform="matrix(1.2443 -4.152191e-02 -3.338818e-02 -0.9995 -336.8157 1345.0007)">
    <stop offset="0" stop-opacity="0"/>
    <stop offset="1" stop-opacity=".2"/>
  </linearGradient>
  <path id="eye-left-shade" d="M82.1 61.9c.3-1.3 1.3-4.9 5.4-6.6 4.1-1.7 10.9.5 13.7 2.6l-19.1 4z" class="eye-left-shade"/>
  <linearGradient id="neck-shade_3_" x1="115.0829" x2="115.0829" y1="648.3326" y2="676.4023" gradientUnits="userSpaceOnUse" gradientTransform="matrix(0.9563 -0.2924 -0.2924 -0.9563 188.3278 778.3317)">
    <stop offset="0" stop-opacity="0"/>
    <stop offset=".9018" stop-opacity=".4"/>
  </linearGradient>
  <path id="chin-shade" d="M89.3 111.7s13.7-.7 26.2-18.5c0 0 .2 7.6-7.5 14.1s-10.1 10-11.2 13.2c-1.2 3.1-2.9 8.7-2.9 8.7s-2-12.3-3.4-16.6c-.1-.4-1.2-.9-1.2-.9z" class="neck-shade"/>
  <path id="hair-color" d="M133.8 33.1c-5.7-12.7-17.3-23.5-31.7-24-7.4-.2-14.7 1.3-21.7 3.8-2.5.9-5 1.9-7.3 3.4-2.8 1.8-4.4 4.3-6.3 7-1.9 2.7-4.5 6-5 9.4-.3 2 .6 4.1 1.2 6 6.3-9 18.6-10.6 28.5-12.5 4.8-1 14-4.5 15.7 2.2 1.1 4.3-.5 8.5-.2 12.8.1 1.5.3 2 1.6 2.6 2 .9 3 2.2 4.5 3.8 2.6 2.9 3.1 5.9 3.6 9.7.1.7 0 1.5.4 2.1.5.7 2.1 1.1 2.9 1.6.1-3.7 1.4-6.9 4.8-8.6 4.3-2.2 7 .8 6.5 5.3-.5 4.6-2.1 9.3-2 13.9V81c1.9-5.6 3.6-11.3 5-17 2.3-9.9 3.5-21.5-.5-30.9z" class="hair-color"/>
  <path id="shoe-right-color" d="M72.5 667.8c-2.9 2-5.4 4.3-7.4 7.2-3.2 4.9-5.1 6-10.5 8.3-3.8 1.6-6.8 4.5-10.8 5.4-5.9 1.3-8.6 2.8-13 7.2-5.7 5.6-3.9 12.7 4.1 15.1 9.7 2.9 22.1 1.1 31.6-1.6 8.5-2.4 16.1-7.4 25-8 9.2-.6 20.9 0 29.1-4.9 10.7-6.5 2.4-27.2-7.5-30-12.5-3.4-28-.5-40.6 1.3z" class="shoe-color"/>
  <path id="shoe-left-color" d="M128 696.7c-1.1 5.7-2.2 10.6-5.9 15.3-1.9 2.4-4.3 4.6-5.8 7.3-1.7 3.1-2.3 6.7-4.1 9.8-3.2 5.3-9.1 13.9-4.9 20.5 3.4 5.4 13.9 7.1 19.5 7.1 9.5 0 19.3-5.6 25.7-12.5 4.1-4.4 6.3-10.3 9.7-15.3 4-5.8 5.6-9.1 6.1-16.3.5-6.3 2-15.5-4.6-18.9-5.8-3-13.6-3.2-19.9-2.8-4.4.2-13.7.8-15.8 5.8z" class="shoe-color"/>
  <path id="pant-color" d="M189.5 558.6c-.7-8.1 2.5-39.9 2.1-51.5-.4-11.6 2.7-51.9.8-61.9-1.9-9.9-3.8-25.2-3.3-31.4s7.8-25.1 6.7-33.6c-1.1-8.5-1.3-19.5-6.4-23.1-5-3.5-56.6-29.9-73.9-30.5-12.3 0-29.5 25.6-38.7 31.9-9.7.9-28 2.2-29.1 9.8 0 0 .2 22.1 2 27.9 1.8 5.8 12.5 56.6 13.9 65.9 1.4 9.3 5.5 19.9 5.1 26.1-.3 6.2-2.5 24.4-1.5 31.4 1 7.1 5.1 19 6.4 26.5 1.4 7.5 1.4 14.6 3.7 28.3 2.3 13.7 5.8 39.3 4.5 42.4-1.3 3.1-7.7 31.4-7.7 31.4l2.5 8.3s-7.8 10.4-6.9 11.7c.9 1.3 22.2 16.6 31.2 17.4 8.8.8 23-3.7 23-3.7s.8-2.8 1.5-6.2c.2 8.1.3 13.5.2 14.2-.2 3.1 1.4 10.4 1.4 10.4s19.7 3.4 22.3 5.3c2.6 2 8.9 6 15.2 4.7 6.3-1.3 6.3-6.1 6.3-6.1s1.1-2.6 1.9-7c.7-4.4 12.9-68.2 13.3-72.6.3-4.5 4.3-58 3.5-66z" class="pant-color"/>
  <linearGradient id="pant-right-shade_3_" x1="47.8311" x2="125.497" y1="522.0876" y2="522.0876" gradientUnits="userSpaceOnUse">
    <stop offset="0" stop-opacity="0"/>
    <stop offset="1" stop-opacity=".2"/>
  </linearGradient>
  <path id="pant-right-shade" d="M123.6 579.4c.8-4.3-8.4-67-9.6-74.6-1.1-7.6-1.1-23.2-3.4-27.7-2.3-4.6-5.5-20.4-6.2-23.6-.7-3.2-10.6-12.4-13.9-21.1-3.3-8.7-11.8-15.1-12.7-19.2s-4.3-12.8-5-26.6c-.7-13.8-2.1-23.6-2.1-23.6s2.4-1.9 6.3-4.5c-9.7.9-28 2.2-29.1 9.8 0 0 .2 22.1 2 27.9 1.8 5.8 12.5 56.6 13.9 65.9 1.4 9.3 5.5 19.9 5.1 26.1-.3 6.2-2.5 24.4-1.5 31.4 1 7.1 5.1 19 6.4 26.5 1.4 7.5 1.4 14.6 3.7 28.3 2.3 13.7 6.5 37.3 5.2 40.5-1.3 3.1-8 31.3-8 31.3l2.1 10.3s-7.8 10.4-6.9 11.7c.9 1.3 22.2 16.6 31.2 17.4 8.8.8 23-3.7 23-3.7s.8-2.8 1.5-6.2c-.8-29.2-2.6-92.9-2-96.3z" class="pant-right-shade"/>
  <linearGradient id="pant-left-shade_3_" x1="70.6323" x2="195.9528" y1="518.7602" y2="518.7602" gradientUnits="userSpaceOnUse">
    <stop offset="0" stop-opacity="0"/>
    <stop offset="1" stop-opacity=".2"/>
  </linearGradient>
  <path id="pant-left-shade" d="M189.5 558.6c-.7-8.1 2.5-39.9 2.1-51.5s2.7-51.9.8-61.9c-1.9-9.9-3.8-25.2-3.3-31.4.5-6.2 7.8-25.1 6.7-33.6-1.1-8.5-1.3-19.5-6.4-23.1-5-3.5-57.5-29.5-74.8-30-12.3 0-28.6 25.2-37.8 31.5-3.8 2.6-6.3 4.5-6.3 4.5s1.4 9.8 2.1 23.6c.7 13.8 4 22.5 5 26.6s9.4 10.5 12.7 19.2c3.3 8.7 13.2 17.9 13.9 21.1.7 3.2 3.8 19 6.2 23.6 2.3 4.6 2.3 20.1 3.4 27.7 1.2 7.6 10.4 70.3 9.6 74.6-.6 3.4 1.2 67.1 1.9 96.2.2 8.1.3 13.5.2 14.2-.2 3.1 1.4 10.4 1.4 10.4s19.7 3.4 22.3 5.3c2.6 2 8.9 6 15.2 4.7 6.3-1.3 6.3-6.1 6.3-6.1s1.1-2.6 1.9-7c.7-4.4 12.9-68.2 13.3-72.6.4-4.5 4.4-58 3.6-66z" class="pant-left-shade"/>
  <path id="shirt-color" d="M194.5 182.4c-3.6-23.2-15.7-44-19.1-49-8-11.8-33.6-20.1-33.6-20.1-10.2-2.8-25.7 3.3-28.3 5.4-2.6 2-14.5 12.3-18.5 13.3-4.8.1-5.8-2.9-6.8-4-.3-.3-.7-.3-.9 0-4.1 3.4-30.1 25.4-32.2 31.7-2.4 6.7-5.7 18.2-4.2 34.8.7 7.8 1.4 19.3 1.5 31.2h-.2c.1 3.1-.9 10.2-2.1 16-1.1 5.8-2.4 8.9-2.3 12.9s.4 11.5.4 11.5-4.4 15.3-5.2 17.9c-.8 2.7-6.4 19.7-6.3 22.3.1 2.6-4.6 18.3-4.7 22.3-.1 4-1.3 26.9 4.9 34.7 1.5 1.9 2.8 2.1 2.8 2.1s.4-9.5 6.4-15.9c1.5 4.6 4.1 9.4 9 12.4 11 6.7 15.8 9.8 28.3 6.5 12.4-3.4 28.8-8.1 47-5.8 18 2.4 59 5.9 64.2 4.3 12.3-18.6 9.9-92.6 12.2-106.7-7.4-20.5-8.7-54.6-12.3-77.8z" class="shirt-color"/>
  <path id="right-hand-color" d="M38.8 364.5l9.7 12.1 8-14.6-11.2-15.7-6.5 18.2z" class="skin-color"/>
  <path id="left-hand-color" d="M141 370.2l36.1 4.7.2 2.3c-1.1 13.5-33.3 18.9-37.5-3.9l1.2-3.1z" class="skin-color"/>
  <path id="shirt-back-arm-shade" d="M46.5 311.7c1-6.7.9-33.3 4-50.1 1.7-8.9 2.1-22.7 2-36.1h-.2c.1 3.1-.9 10.2-2.1 16-1.1 5.8-2.4 8.9-2.3 12.9s.4 11.5.4 11.5-4.4 15.3-5.2 17.9c-.8 2.7-6.4 19.7-6.3 22.3.1 2.6-4.6 18.3-4.7 22.3-.1 4-1.3 26.9 4.9 34.7 1.5 1.9 2.8 2.1 2.8 2.1s.4-9.5 6.4-15.9c-1.9-5.8-2.1-11.2-2.9-12.2-1.6-2 2.2-18.8 3.2-25.4z" class="random-shade"/>
  <linearGradient id="shirt-shade_3_" x1="40.2463" x2="214.4791" y1="172.5847" y2="346.8175" gradientUnits="userSpaceOnUse">
    <stop offset=".4" stop-opacity="0"/>
    <stop offset="1" stop-opacity=".3"/>
  </linearGradient>
  <path id="shirt-shade" d="M194.5 182.4c-3.6-23.2-15.7-44-19.1-49-8-11.8-33.6-20.1-33.6-20.1-10.2-2.8-25.7 3.3-28.3 5.4-2.6 2-14.5 12.3-18.5 13.3-4.8.1-5.8-2.9-6.8-4-.3-.3-.7-.3-.9 0-4.1 3.4-30.1 25.4-32.2 31.7-2.4 6.7-5.7 18.2-4.2 34.8.7 7.8 1.4 19.3 1.5 31.2.2 13.4-.3 27.1-2 36.1-3.1 16.8-3 43.4-4 50.1s-4.8 23.5-3.3 25.4c.8 1.1 1 6.5 2.9 12.2 1.5 4.6 4.1 9.4 9 12.4 11 6.7 15.8 9.8 28.3 6.5 12.4-3.4 28.8-8.1 47-5.8 18 2.4 59 5.9 64.2 4.3 12.3-18.6 9.9-92.6 12.2-106.7-7.3-20.5-8.6-54.6-12.2-77.8z" class="shirt-shade"/>
  <path id="shirt--left-arm-color" d="M152.3 122.3c20.6-6.1 31.7 28.3 32.1 31.5.5 3.2 7.9 30 10 37 2.1 7 2.7 13.9 3.3 19 .5 5.1-.4 11.5 1.1 18.3 1.5 6.6 8.4 28.5 8.2 34.2-.2 5.8-2.1 20.1-6.3 31.8-4.2 11.7-10.4 37.3-12.9 43.3s-8.9 13.6-10.9 16.1c-2.1 2.6-1 3.1-2 4.4l-1 1.3 4.8 12.9s-4.3 11.3-18 10-21.5-8.4-21.5-8.4 4.6-10.4 3.7-13.4-3.9-6.5-3.9-6.5 1.4-3.3 4.5-8.9.9-11.6 2.9-16.1c2-4.4 6.2-9.5 7-13.5s4.1-19.8 4.4-27c.2-7.2 2-15.8 3.1-24.7 1.1-8.9.8-13.1-1.5-19.6s-7.3-16.9-9-22.6c-1.7-5.7-3.5-16.6-9.5-22.4s-11.1-34.3-9.1-45.4c1.8-11-.4-25.1 20.5-31.3z" class="shirt-color"/>
  <path id="collar-left-white" d="M101.5 123.5s-.1 5.3-6.5 8.5c8.7-.3 10.3-2.9 10.3-2.9 3.5 5.2 8.3 12.2 8.8 13.2.7 1.4 1.8 3.7 2.9 2.8 1.2-.9 6.5-10.2 10.9-14.5 4.4-4.3 12.9-12.1 15.4-13.5 2.5-1.4 4.5-2.6 4.5-2.6s-3.2-2.6-3.9-6.3c-.7-3.7-1.1-8.3-6.6-7-5.6 1.4-15.9 6.7-20.8 10.4-4.9 3.8-15 11.9-15 11.9z" class="collar-color"/>
  <path id="collar-left-shade" d="M101.5 123.5s0 5-6.5 8.5c9.5-.5 10.3-2.9 10.3-2.9l-3.8-5.6z" class="random-shade"/>
  <radialGradient id="ear-shade_3_" cx="143.6847" cy="54.2774" r="12.3023" gradientTransform="matrix(-0.1736 -0.9848 0.4924 -8.682411e-02 127.4522 203.8218)" gradientUnits="userSpaceOnUse">
    <stop offset="0" stop-opacity=".2"/>
    <stop offset=".8629" stop-opacity="0"/>
  </radialGradient>
  <path id="ear-shade" d="M119.3 46.2l6.1 5.6c.3-.2 2-.5 2.5-.5 1.5.1 2.6 1.2 3.4 3.8.8 2.6.1 3.4-.2 6.9-.2 3.5-5.3 5.3-5.3 5.3l-5.9 4.5 18.6-2.6-.2-26.4-19 3.4z" class="ear-shade"/>
</svg>
