<svg xmlns="http://www.w3.org/2000/svg" id="Guide-Female-Right" class="avatar-guide skin-darker" viewBox="0 0 250.5 757.6" role="presentation">
  <style>
    <!-- avatar specific shading styles -->
    #Guide-Female-Right .hair-shade{opacity:5.000000e-02;fill:#FFFFFF;}
    #Guide-Female-Right .st3{fill:url(#afr-pant-left-shade_1_);}
    #Guide-Female-Right .st4{fill:url(#afr-pant-right-shade_1_);}
    #Guide-Female-Right .st5{opacity:0.2;}
    #Guide-Female-Right .st7{fill:url(#afr-suit-left-shade_1_);}
    #Guide-Female-Right .st8{fill:url(#afr-suit-bottom-right-shade_1_);}
    #Guide-Female-Right .st9{fill:url(#afr-suit-top-right-shade_1_);}
    #Guide-Female-Right .st10{opacity:0.1;}
    #Guide-Female-Right .neck-shade{fill:url(#afr-neck-shade_1_);}
    #Guide-Female-Right .ear-shade{fill:url(#afr-ear-shade_1_);}
    #Guide-Female-Right .eye-right-shade{fill:url(#afr-eye-right-shade_1_);}
    #Guide-Female-Right .eye-left-shade{fill:url(#afr-eye-left-shade_1_);}
    #Guide-Female-Right .nose-shade{fill:url(#afr-nose-shade_1_);}
    #Guide-Female-Right .st17{fill:url(#afr-hand-shade_1_);}
    #Guide-Female-Right .st19{opacity:0.25;}
  </style>
  <path id="afr-hair-left-color" d="M115.4 14.6s11.1 5.5 12.7 8.1c1.6 2.5 3.1 8.8 5.6 21.8s3.5 26.7 3.5 30.2.9 15.3 1.3 17.5c.3 2.2 2.1 39.4-5.9 43.8-8 4.5-10.8-9.5-17.2-9.8-6.3-.3-25.4-18.7-25.4-22.2V53.5c0-4.5 9.9-41.1 25.4-38.9z" class="hair-color"/>
  <path id="afr-foot-right-color" d="M86.3 719.3c.4.9 7.6 15.9 9.2 18.1 1.6 2.2 13.1 4.7 18.4 4.1 5.2-.6 11.5-2.2 13.1-3.7 1.6-1.6 3.9-5.9 3.3-7.5-.7-1.6-9.2-8.4-11.2-15s.3-9-4.6-10c-4.9-1-34.1-.3-28.2 14z" class="skin-color"/>
  <path id="afr-foot-left-color" d="M171 707.8s4.6 13.4 4.6 15.3c0 1.9 2.6 6.2 5.3 9 2.6 2.8 9.8 8.1 2.3 10.9-7.6 2.8-18.1 8.1-23.3.6s-12.5-13.4-16.4-19.3c-3.9-5.9-9.8-12.2-9.8-18.4s6.2-17.5 17.7-13.1c11.4 4.4 19 9.4 19.6 15z" class="skin-color"/>
  <path id="afr-shoe-right-color" d="M128.3 728.1s10.8 12.8 12.5 16.2c1.6 3.4 5.6 13.1-8.5 13.1s-25.9-1.9-32.2-4.1c-6.2-2.2-7.2-6.5-9.2-10.6s-1-8.7-2.6-10.9-2-3.7-2-3.7v6.5h-3.6s-1-13.7-1.3-15.6c-.3-1.9-.3-5.3-.3-5.3l5.3 5.6s1.6 2.5 1.6 3.4 5.3 12.8 15.4 14c10.2 1.2 18.7 0 22.3-3.1 3.6-3.1 2.6-5.5 2.6-5.5z" class="shoe-color"/>
  <path id="afr-shoe-left-color" d="M119.8 697.8s-1 4.4 2.3 10 5.6 10.6 6.2 16.2c.7 5.6 1.3 13.4 1.3 13.4l4.6 1.3s.3-11.5.3-15.3c0-3.7 1-5.6 2.3-4.7 1.3.9 6.6 6.9 8.5 11.2 2 4.4 3 3.4 6.6 11.2s1.6 11.5 11.2 14.3c9.5 2.8 20.4 2.8 29.2 1.3 8.9-1.6 9.2-1.3 10.5-2.5s1.3-4.4-.3-6.6c-1.6-2.2-14.8-10.9-18.7-13.1-3.9-2.2-5.5-5.9-5.5-5.9s6.8 6.9 1.9 8.1c-4.9 1.2-15.1 4.1-20 .3-4.9-3.7-15.4-15.6-18.7-23.1s-10.8-19.7-13.8-19.7c-3 .2-10.2-.5-7.9 3.6z" class="shoe-color"/>
  <path id="afr-pant-color" d="M184.1 453.2c-.9-18.7-4.8-59.9-7-70.7-2.2-10.8-5.3-39.1-7.4-48.2-2.2-9.1-5.3-20-8.8-24.1-3.5-4.2-23.6-7.5-30.6-5.8s-19.7 7.9-20.1 13.3c-.1 1.1-.1 6-.2 13.2-14.4-9-69-24.4-76.7 26.6 0 0-1.7 25 4.8 53.2 6.6 28.3 16.6 88.6 15.8 99.4-.9 10.8-2.8 57-.2 74.5s7.2 67.4 9.4 77.8c2.2 10.4 8.8 48.7 15.3 52.8 6.6 4.2 12.3 5.4 24.5 2.5s17.1-4.2 17.1-6.7-8.3-36.6-9.2-41.6c-.9-5-7.7-41.6-6.3-53.7 1.3-12.1 3-42.4 2.2-53.7-.7-11.1 3.2-67.8 4.6-82.4.5-5.3 1.6-18.4 2.9-33.1 2.1 8 4.2 16.4 4.5 18.2.4 3.7 9.6 41.2 13.1 52.4s3.1 15.4 3.1 17.5-5.2 44.9-6.1 56.6c-.9 11.6-3.5 37.9-3.9 44.1-.4 6.2-3.1 41.6-3.9 46.2-.9 4.6-4.4 16.2-1.8 17.5 2.6 1.2 29.3 12.5 40.7 12.1l11.4-.4s4.8-48.7 4.8-59.9 2.2-49.1 3.1-58.7c.9-9.6 4.4-51.6 5.3-64 .9-12.5.4-56.1-.4-74.9z" class="pant-color"/>
  <linearGradient id="afr-pant-left-shade_1_" x1="109.7471" x2="184.827" y1="252.4729" y2="252.4729" gradientUnits="userSpaceOnUse" gradientTransform="matrix(1 0 0 -1 0 760)">
    <stop offset="0" stop-opacity=".25"/>
    <stop offset=".7" stop-opacity="0"/>
    <stop offset="1" stop-opacity=".1"/>
  </linearGradient>
  <path id="afr-pant-left-shade" d="M184.1 453.2c-.9-18.7-4.8-59.9-7-70.7-2.2-10.8-5.3-39.1-7.4-48.2-2.2-9.1-5.3-20-8.8-24.1-3.5-4.2-23.6-7.5-30.6-5.8s-19.7 7.9-20.1 13.3c-.1 1.1-.1 6-.2 13.2 1.1.7 2 1.3 2.6 1.9 8.4 8.3 6.6 52.8 6.6 54.9 0 1.3-2.7 32.6-5 58.8 2.1 8 4.2 16.4 4.5 18.2.4 3.7 9.6 41.2 13.1 52.4s3.1 15.4 3.1 17.5-5.2 44.9-6.1 56.6c-.9 11.6-3.5 37.9-3.9 44.1-.4 6.2-3.1 41.6-3.9 46.2-.9 4.6-4.4 16.2-1.8 17.5 2.6 1.2 29.3 12.5 40.7 12.1l11.4-.4s4.8-48.7 4.8-59.9 2.2-49.1 3.1-58.7c.9-9.6 4.4-51.6 5.3-64 .9-12.5.4-56.1-.4-74.9z" class="st3"/>
  <linearGradient id="afr-pant-right-shade_1_" x1="32.639" x2="122.3425" y1="520.3833" y2="520.3833" gradientUnits="userSpaceOnUse">
    <stop offset=".3" stop-opacity="0"/>
    <stop offset="1" stop-opacity=".2"/>
  </linearGradient>
  <path id="afr-pant-right-shade" d="M110.8 669.4c-.9-5-7.7-41.6-6.3-53.7 1.3-12.1 3-42.4 2.2-53.7-.7-11.1 3.2-67.8 4.6-82.4.5-5.3 1.6-18.4 2.9-33.1 2.3-26.2 5-57.4 5-58.8 0-2.1 1.8-46.6-6.6-54.9-.6-.6-1.5-1.2-2.6-1.9-14.4-9-69-24.4-76.7 26.6 0 0-1.7 25 4.8 53.2 6.6 28.3 16.6 88.6 15.8 99.4-.9 10.8-2.8 57-.2 74.5s7.2 67.4 9.4 77.8c2.2 10.4 8.8 48.7 15.3 52.8 6.6 4.2 12.3 5.4 24.5 2.5s17.1-4.2 17.1-6.7-8.3-36.6-9.2-41.6z" class="st4"/>
  <path id="afr-collar-right-shade" d="M132.1 296.7s8.6 25.8 15.2 35.7c6.6 9.9 9.2 19.5 15.2 20.7 6 1.1 3-47.3 3-47.3L147.6 293s-17.6-10.8-15.5 3.7z" class="st5"/>
  <path id="afr-face-color" d="M150.5 182.6c-4.6-13.7-15.4-39.9-18.7-45.3-3.3-5.4-16.6-18.7-16.6-18.7l-1.8-20.5c6.8.4 11.4-.7 11.9-4.3.6-5.1.9-9.2.9-9.2s2.9-9.5 3.2-12.4 2-10.2 1.4-13.4-3.9-5.4-3.9-7.6c0-2.2.6-7.9-.3-11.1-1-3.2-4.1-14.6-9.8-19.7-5.9-5.1-16.7-14.1-26.5-14.4-9.9-.3-26.8 5.2-32.9 16.6s-4.3 33.2-3 40.2c.9 4.7 12.1 17 18.2 21.4 0 0-5.3 23.6-5.7 25.7s29.5 74.9 36.2 79.4c6.7 4.6 35.4 14.1 35.4 14.1s16.5-7.1 12-20.8z" class="skin-color"/>
  <path id="afr-shirt-color" d="M141.1 158.7s-20.3 1.8-26.2-.1c-5.8-2 18.8 51.1 24.9 53.7 6 2.6 7.1-22 7.8-28.2.6-6.1-6.5-25.4-6.5-25.4z" class="shirt-color"/>
  <path id="afr-suit-color" d="M171.8 316.6c-.9-7.9-9.3-32.4-9.7-41.2-.4-8.7 6.6-54.1 7.9-60.3.7-3.5.9-12.9.6-22.1 8.3-15.8 5-48.6 3.1-52.1-2.1-4.1-15.5-17.1-32.6-15.4l-16.1-4.6-10.8-12.2 1.8 17.6s3.1 4 6.3 8.3c2.6 3.5 5.3 7.1 6.4 8.9 2.6 4.1 10.1 19.9 12.3 34.4.3 2.1.5 4.5.6 7.3.1 5.3-.1 11.7-.6 18.1-.2-1.6-.3-3-.3-3.7 0-4.1-6.6-19.9-8.8-24-2.2-4.1-22.8-28.5-27.6-33.5-4.8-5-17.9-20.4-19.7-24-1.7-3.7-16.2-21.3-16.2-21.3-2.7.4-5.7 9.9-6.9 12.3-.4.7-.5 2.6-.3 4.7l-34.1 17.8s24.9 26.8 24.1 31.2c-5.2 27.7-1.5 113.8-3.7 126.1-2.3 12.3-7 22.8-9.7 30.8-4.8 14.6-8.1 35.6-9.2 53.1-.3 4.2 7.8 10.7 28.7 12.9 20.7 2.2 23.4 3.4 42.9 2.5 18.5-.8 37.7 4.2 38.5-41.6.2-11.8.8-25.2 1.4-38.9 2.6 12 5.4 24 6.4 26.1 2.2 4.6 13.6 39.2 16.2 41.3 2.6 2.1 15.4 2.9 16.3.4s-6.3-51-7.2-58.9z" class="suit-color"/>
  <linearGradient id="afr-suit-left-shade_1_" x1="152.0301" x2="152.0301" y1="383.0462" y2="639.8" gradientUnits="userSpaceOnUse" gradientTransform="matrix(1 0 0 -1 0 760)">
    <stop offset=".2699" stop-opacity=".05"/>
    <stop offset=".4724" stop-opacity=".1"/>
    <stop offset=".5914" stop-opacity=".15"/>
    <stop offset=".8" stop-opacity=".05"/>
  </linearGradient>
  <path id="afr-suit-left-shade" d="M171.8 316.6c-.9-7.9-9.3-32.4-9.7-41.2-.4-8.7 6.6-54.1 7.9-60.3 1.3-6.2.9-31.2-1.3-40.3-2.2-9.2-14-36.6-17.9-40.8-3.9-4.2-4.8-7.1-4.8-7.1l-21-6 11.5 13.1-.9 4.1 7.9-5.9s3.5 2.3 5.7 5.9c2.2 3.7-2.1 17.2-.8 23.1 1.4 5.9 3 31.2 2.1 38-.9 6.8-15.3 47-15.3 47s-2.1 31.8-.7 34.7c0 0 9.8 48.3 12 52.8 2.2 4.6 13.6 39.2 16.2 41.3 2.6 2.1 15.4 2.9 16.3.4s-6.3-50.9-7.2-58.8z" class="st7"/>
  <path id="afr-collar-right-02-shade" d="M62.4 123c.3 2.3.7 4.1.7 4.1l6.4 2.5 6.9-1.2-14-5.4z" class="st5"/>
  <path id="afr-collar-right-01-shade" d="M124.1 198.6c-5.3-9-18.4-24-26.7-31.7-8.3-7.7-23.6-24-25.8-26.2-1.2-1.2-3.6-4-5.6-6.3l-2.5.4s6.6 7.7 8.8 10c2.2 2.2 17.5 18.5 25.8 26.2s21.4 22.7 26.7 31.7c3.6 6.2 10 18.7 13.5 25.8l.3-2.1c-3.3-6.6-10.5-21-14.5-27.8z" class="st5"/>
  <path id="afr-suit-arm-right-color" d="M56.1 144.6C64 160.4 72.3 180 72.3 180l7 16.6 5.7 14.1 8.3 18.7s1.8 7.9 3.5 9.1c1.8 1.2 4.4 4.6 11.4 5.4 7 .8 15.3 1.7 19.7 1.7 4.4 0 22.8 2.9 22.8 2.9l22.8 11.2s2.6 11.2 1.7 13.3c-.9 2.1-7.4 10.4-12.3 9.6-4.8-.8-29.8-2.1-38.5-1.3-8.8.8-37.7 1.7-44.7 1.7s-7.9 1.2-16.2-9.6c-8.3-10.8-37.2-66.9-42.5-89.8s-11.4-47.8 8.3-52.8c11.6-2.9 18.9-2 26.8 13.8z" class="suit-color"/>
  <linearGradient id="afr-suit-bottom-right-shade_1_" x1="84.3446" x2="84.3446" y1="371.5989" y2="646.8185" gradientUnits="userSpaceOnUse" gradientTransform="matrix(1 0 0 -1 0 760)">
    <stop offset=".2461" stop-opacity="0"/>
    <stop offset=".4712" stop-opacity=".2"/>
    <stop offset=".4889" stop-opacity=".2"/>
    <stop offset=".6806" stop-opacity="0"/>
  </linearGradient>
  <path id="afr-suit-bottom-right-shade" d="M124.4 281.3c-8.8.8-37.7 1.7-44.7 1.7s-7.9 1.2-16.2-9.6c-3-4-8.8-14-15.2-26.3.1 20 .1 36.7-.8 41.7-2.3 12.3-7 22.8-9.7 30.8-4.8 14.6-8.1 35.6-9.2 53.1-.3 4.2 7.8 10.7 28.7 12.9 20.7 2.2 23.4 3.4 42.9 2.5 18.5-.8 37.7 4.2 38.5-41.6.2-11.8.8-25.2 1.4-38.9-2.7-12.5-5.2-25-5.6-26.5-4.1-.1-7.7 0-10.1.2z" class="st8"/>
  <linearGradient id="afr-suit-top-right-shade_1_" x1="84.0672" x2="84.0672" y1="371.5988" y2="646.8185" gradientUnits="userSpaceOnUse" gradientTransform="matrix(1 0 0 -1 0 760)">
    <stop offset=".2461" stop-opacity="0"/>
    <stop offset=".4712" stop-opacity=".2"/>
    <stop offset=".4889" stop-opacity=".2"/>
    <stop offset=".6806" stop-opacity="0"/>
  </linearGradient>
  <path id="afr-suit-top-right-shade" d="M138.6 226.4s2.4-19.4 2.4-23.1c-.4-21.8-22.7-46-30.6-54.4-7.9-8.3-30.4-27.7-35.6-31.9-5.3-4.2-12.7-3.7-12.7-3.7l-35 18.3c.7-.3 1.4-.5 2.2-.7 11.6-2.9 18.9-2 26.8 13.8C64 160.4 72.3 180 72.3 180l7 16.6 5.7 14.1 8.3 18.7s1.8 7.9 3.5 9.1c1.8 1.2 4.4 4.6 11.4 5.4s15.3 1.7 19.7 1.7c1.2 0 4.6.2 7.3.6.3-2.3 3.4-19.8 3.4-19.8z" class="st9"/>
  <path id="afr-suit-arm-left-color" d="M151.3 174.4c1.8-13.6 24.5-5.7 24.5-5.7s1.4 11.5 4.5 18.1c3.1 6.7 2.8 14.8 4.4 16.4 1.5 1.6 2.1 8.5 4 11.6s5.4 20.7 3.4 25.1c-2 4.4-6.4 18.6-13.2 22.8s-15.2 6.8-21.2-3.8-8-19.8-7.8-31.3-1.1-17.9.2-25.1c1.3-7.1-.6-14.5 1.2-28.1z" class="suit-color"/>
  <path id="afr-sleeve-shade" d="M153.7 169.9c-1.7 5.1 0 11.6 5.3 14.3 5.6 2.9 11.8 1.6 14.4-4 2.2-4.6 2.1-10.4-2.4-13.9-6.2-4.7-14.9-3.5-17.3 3.6z" class="st10"/>
  <path id="afr-right-hand-color" d="M154.1 166.1s1-3.3-1.7-6.5c-2.7-3.3-5-5.2-7.4-8.2-2.4-2.9-5.2-8.6-6.1-11.8-.9-3.2 0-4.5-1-8.4-1-3.8-1.8-5.8-2.2-7.1-.3-1.3-3.2-6.4-1.9-8.6s2.4-3.1 5.1-1.4c2.7 1.8 3.3 4.3 6 7.6s10 9 10 9 5.3 2 6.1 5.5 3.8 13.8 3.7 14.7c-.2.9-.1 2.1 2.4 4.4 2.6 2.3 2.3 1.6 4.2 4.4 1.9 2.8 2.4 6.5 2.4 8s-.5 8.5-2.4 10.2-6.4 7.8-11.4 4c-5-3.6-7.9-5.6-5.8-15.8z" class="skin-color"/>
  <linearGradient id="afr-neck-shade_1_" x1="92.1487" x2="92.1487" y1="623.1" y2="675.9" gradientUnits="userSpaceOnUse" gradientTransform="matrix(1 0 0 -1 0 760)">
    <stop offset=".195" stop-opacity="0"/>
    <stop offset=".5892" stop-opacity=".07"/>
    <stop offset=".9424" stop-opacity=".15"/>
  </linearGradient>
  <path id="afr-neck-shade" d="M113.4 98.2c-3.1.3-6.1.1-9.5-.5-11.8-1.9-31.3-13.6-31.3-13.6l-3.1 14s28.9 38.2 41.3 38.8c7.1 0 2.6-38.7 2.6-38.7z" class="neck-shade"/>
  <radialGradient id="afr-ear-shade_1_" cx="66.8125" cy="58.125" r="12.3023" gradientTransform="matrix(-6.123234e-17 -1 -0.5 3.061617e-17 95.875 124.9375)" gradientUnits="userSpaceOnUse">
    <stop offset="0" stop-opacity=".1"/>
    <stop offset=".8629" stop-opacity="0"/>
  </radialGradient>
  <path id="afr-ear-shade" d="M74.6 45.1l-5 6.6c-.3-.1-2.1-.2-2.6 0-1.4.4-2.4 1.6-2.7 4.3s.5 3.4 1.4 6.8c.8 3.4 6.2 4.3 6.2 4.3l6.5 3.4-18.8.6-4.4-26h19.4z" class="ear-shade"/>
  <linearGradient id="afr-eye-right-shade_1_" x1="3174.2246" x2="3174.2246" y1="2143.9346" y2="2151" gradientUnits="userSpaceOnUse" gradientTransform="matrix(-1.2115 0.2869 -0.2304 -0.9732 4443.0737 1228.1802)">
    <stop offset="0" stop-opacity="0"/>
    <stop offset="1" stop-opacity=".2"/>
  </linearGradient>
  <path id="afr-eye-right-shade_2_" d="M113.2 50.1c-.7-1.1-2.7-4.5-7.2-5s-10.8 3.5-12.9 6.3l20.1-1.3z" class="eye-right-shade"/>
  <linearGradient id="afr-eye-left-shade_1_" x1="122.8" x2="122.8" y1="708.6649" y2="713.8131" gradientUnits="userSpaceOnUse" gradientTransform="matrix(1 0 0 -1 0 760)">
    <stop offset="0" stop-opacity="0"/>
    <stop offset="1" stop-opacity=".2"/>
  </linearGradient>
  <path id="afr-eye-left-shade" d="M118.5 50.2l8.4 1.2V51c0-1 .1-2.8.2-4.6-.5-.1-.9-.1-1.4-.1-4.3 0-6.5 2.9-7.2 3.9z" class="eye-left-shade"/>
  <linearGradient id="afr-nose-shade_1_" x1="678.4459" x2="678.1675" y1="-1757.9977" y2="-1748.7186" gradientUnits="userSpaceOnUse" gradientTransform="matrix(-0.6735 -2.980000e-02 -2.020000e-02 0.4617 543.7717 901.7286)">
    <stop offset="0" stop-opacity="0"/>
    <stop offset="1" stop-opacity=".2"/>
  </linearGradient>
  <path id="afr-nose-shade_2_" d="M129.7 70c-.3.8-1.3 3.1-4.5 3.9s-8.2-1-10.2-2.4l14.7-1.5z" class="nose-shade"/>
  <path id="afr-hair-right-color" d="M116.1 10.8c-6.7-4.8-9.5-6.4-15.9-7.9C93.8 1.3 88.4.3 84 .7c-3.9.3-12.7 2.7-12.7 3.1-5 1.5-9.8 4.7-14.4 9.4-13.3 13.4-13 27.3-13.4 38.1-.4 10.8-1.5 46.1-1 54.4.5 8.8-4.7 21.9-4.7 21.9s17.6-8.7 18.8-9.7c1.2-.9 7.8-2.8 13.5-9.5 5.7-6.6 5-20.2 7.9-31.3 2.9-11.1 4.1-26 4.1-31.1 0-.7.1-1.7.3-2.8 3.3-1.9 7.1-4.1 9.5-5.9 5.4-3.8 14-14.9 15.6-16.2.8-.6 2-2.2 3.1-3.7.9.4 1.9.7 3 1 3.5 1 4.8-.3 9.9 2.2l5.1 2.5s-4.6-6.5-12.5-12.3z" class="hair-color"/>
  <path id="afr-hair-lighten" d="M116.1 10.8c-6.7-4.8-9.5-6.4-15.9-7.9C93.8 1.3 88.4.3 84 .7c-3.9.3-12.7 2.7-12.7 3.1 2.9-.9 6-1.2 9.1-.8 8.6.9 15.5 1.9 20 2.9 0 0-10.2 10.5-12.2 15.6-1.7 4.4-4.9 15.4-5.8 21.7 3.3-1.9 7.1-4.1 9.5-5.9 5.4-3.8 14-14.9 15.6-16.2.8-.6 2-2.2 3.1-3.7.9.4 1.9.7 3 1 3.5 1 4.8-.3 9.9 2.2l5.1 2.5s-4.6-6.5-12.5-12.3z" class="hair-shade"/>
  <linearGradient id="afr-hand-shade_1_" x1="-564.9092" x2="-578.8848" y1="-190.4689" y2="-121.9683" gradientUnits="userSpaceOnUse" gradientTransform="matrix(0.9798 0.1999 0.1999 -0.9798 745.1561 109.5184)">
    <stop offset=".25" stop-opacity="0"/>
    <stop offset=".5" stop-opacity=".05"/>
    <stop offset="1" stop-opacity=".1"/>
  </linearGradient>
  <path id="afr-hand-shade" d="M154.1 166.1s1-3.3-1.7-6.5c-2.7-3.3-5-5.2-7.4-8.2-2.4-2.9-5.2-8.6-6.1-11.8-.9-3.2 0-4.5-1-8.4-1-3.8-1.8-5.8-2.2-7.1-.3-1.3-3.2-6.4-1.9-8.6s2.4-3.1 5.1-1.4c2.7 1.8 3.3 4.3 6 7.6s10 9 10 9 5.3 2 6.1 5.5 3.8 13.8 3.7 14.7c-.2.9-.1 2.1 2.4 4.4 2.6 2.3 2.3 1.6 4.2 4.4 1.9 2.8 2.4 6.5 2.4 8s-.5 8.5-2.4 10.2-6.4 7.8-11.4 4c-5-3.6-7.9-5.6-5.8-15.8z" class="st17"/>
  <path id="afr-hand-left-color" d="M175.1 142.9c-1.2-2.9-3-10.2-3-10.2s-2-2.1-4-2.5c-.7-.1-1.8-.6-3.1-1.1-.7-.7-1.4-1.6-1.8-2.3-.9-1.6-2.9-5.6-4-6.9-1.2-1.2-1.9-2.6-4.4-2.1s-5.6-.1-7.4.5c-1.8.7-3.7 1.5-4.8 1.8-1.1.4-2.8 1-2.6 2.7.3 1.7 2.1 3.7 4.2 3.3 2.1-.4 9-1.8 10-.6.1.1.1.2.2.3-1.3-.2-2.3 0-3.7.9-2.4 1.5-5.8 3.8-8.1 6-2.2 2.2-5.1 3.3-5.5 5.2s-1.4 2.7.3 3 3.1 1.5 8-2.3c5-3.8 5.6-6.1 8.8-6.2 3.2 0 10.8 1.8 10.8 1.8s-13.8-3.3-21.5 6.9c-4.5 6-5.7 7.2-5.9 7.4v.2c-.2 1.1.7 3.5 1.7 3.4.9 0 3.3.8 6.2-2-.5.9-1 1.8-1.4 2.8 0 0-.5 1.7.8 1.7 1.4.1 5.4-.9 7.4-3.3 2.1-2.5 2-.9 3.5-1.7 1.6-.8 2.5-2.6 2.5-2.6s1.2 0 3 2.6c1.9 2.6 1 1.8.1 5.3-.9 3.6-3.2 4.9-1.9 8.2 1.3 3.4 4 9.4 11.6 4.6 0 0 .8-8.1 1.4-11.3.8-3.3 3.8-10.6 2.6-13.5zm-24.4.6c1.1-1.3 2.1-2.3 3.4-2.8 2.3-.9 5-1.2 7.3-.9-2.7-.2-6.7.3-10.7 3.7z" class="skin-color"/>
  <path id="afr-button4-color" d="M158.1 277.5c-1.9.2-3.5 1.3-3.8 2.4-.3 1.2.9 2.1 2.8 1.9 1.9-.2 3.6-1.2 3.8-2.4.3-1.2-1-2-2.8-1.9z" class="button-color"/>
  <path id="afr-button4-shade" d="M154.2 280.8c-.1-.2-.1-.6 0-.9.3-1.3 2.1-2.4 3.9-2.5 1.4-.1 2.5.4 2.8 1.2.1.2.1.6 0 .9-.3 1.3-2 2.4-3.9 2.5-1.3.2-2.5-.3-2.8-1.2zm6.6-2.1c-.3-.8-1.3-1.3-2.7-1.1-1.8.1-3.5 1.2-3.7 2.4-.1.3-.1.5 0 .8.3.8 1.3 1.3 2.7 1.1 1.8-.1 3.5-1.2 3.7-2.4.1-.3.1-.5 0-.8z" class="st19"/>
  <path id="afr-button3-color" d="M152 277.7c-1.8.1-3.5 1.3-3.8 2.4-.3 1.2.9 2.1 2.8 1.9 1.9-.2 3.5-1.3 3.8-2.4.3-1.2-.9-2-2.8-1.9z" class="button-color"/>
  <path id="afr-button3-shade" d="M148.2 281c-.1-.2-.1-.6 0-.9.3-1.3 2.1-2.4 3.9-2.5 1.4-.1 2.5.4 2.8 1.2.1.2.1.6 0 .9-.3 1.3-2 2.4-3.9 2.5-1.4.2-2.5-.3-2.8-1.2zm6.5-2.1c-.3-.8-1.3-1.3-2.7-1.1-1.8.1-3.5 1.3-3.7 2.4-.1.3-.1.5 0 .8.3.8 1.3 1.3 2.7 1.1 1.8-.1 3.5-1.2 3.7-2.4.1-.3.1-.5 0-.8z" class="st19"/>
  <path id="afr-button2-color" d="M145.5 278.4c-1.8.1-3.5 1.3-3.8 2.5-.3 1.2.9 2.1 2.8 1.9 1.9-.2 3.5-1.3 3.8-2.4.2-1.3-1-2.2-2.8-2z" class="button-color"/>
  <path id="afr-button2-shade" d="M141.6 281.6c-.1-.2-.1-.6 0-.9.3-1.3 2-2.4 3.9-2.5 1.4-.1 2.5.4 2.8 1.2.1.2.1.6 0 .9-.3 1.3-2.1 2.4-3.9 2.5-1.4.2-2.5-.3-2.8-1.2zm6.5-2c-.3-.8-1.3-1.3-2.7-1.1-1.8.1-3.5 1.3-3.7 2.4-.1.3-.1.5 0 .8.3.8 1.3 1.3 2.7 1.1 1.8-.1 3.5-1.2 3.7-2.4.1-.3.1-.6 0-.8z" class="st19"/>
  <path id="afr-button1-color" d="M139.3 277.5c-1.9.2-3.5 1.3-3.8 2.4-.3 1.2.9 2.1 2.8 1.9 1.8-.1 3.5-1.3 3.8-2.4.3-1.2-.9-2.1-2.8-1.9z" class="button-color"/>
  <path id="afr-button1-shade" d="M135.5 280.8c-.1-.2-.1-.6 0-.9.3-1.3 2-2.4 3.9-2.5 1.4-.1 2.5.4 2.8 1.2.1.2.1.6 0 .9-.3 1.3-2.1 2.4-3.9 2.5-1.4.1-2.5-.4-2.8-1.2zm6.5-2.1c-.3-.8-1.3-1.3-2.7-1.1-1.8.1-3.5 1.3-3.7 2.4-.1.3-.1.5 0 .8.3.8 1.3 1.3 2.7 1.1 1.8-.1 3.5-1.2 3.7-2.4.1-.3.1-.6 0-.8z" class="st19"/>
</svg>
