<svg xmlns="http://www.w3.org/2000/svg" id="logo-circle" data-name="logo-circle" viewBox="0 0 67 75">
  <defs>
    <style>
      .logo-gray-color{fill:#6d6d6d;}
      .logo-brand-color{fill:#da5043;}
      .logo-white-color{fill:#fff;}
    </style>
  </defs>
  <circle id="gray-circle" cx="33.59" cy="33.24" r="32.09" class="logo-gray-color"/>
  <circle id="color-circle" cx="33.59" cy="33.24" r="29" class="logo-brand-color"/>
  <path d="M28.4 39.7l-.15-1.34h-.07a4 4 0 0 1-3.26 1.58 3 3 0 0 1-3.26-3.06c0-2.57 2.29-4 6.4-4v-.18a2.19 2.19 0 0 0-2.42-2.46 5.3 5.3 0 0 0-2.77.79l-.44-1.28a6.61 6.61 0 0 1 3.5-.95c3.26 0 4 2.22 4 4.36v4a15 15 0 0 0 .18 2.55zm-.29-5.43c-2.11 0-4.51.33-4.51 2.4a1.71 1.71 0 0 0 1.83 1.85A2.65 2.65 0 0 0 28 36.73a2 2 0 0 0 .11-.62z" class="logo-white-color"/>
  <path d="M31.39 39.7v-1.19L32.91 37c3.65-3.48 5.3-5.33 5.32-7.48a2.55 2.55 0 0 0-2.84-2.79 4.87 4.87 0 0 0-3 1.21l-.62-1.36a6.28 6.28 0 0 1 4-1.45 4 4 0 0 1 4.38 4.16c0 2.64-1.91 4.78-4.93 7.68L34.1 38h6.43v1.7z" class="logo-white-color"/>
  <path d="M40 42.78a3.14 3.14 0 0 0 2.07-.78c.53-.62.73-1.45.73-4v-8.95h1.94v9.66c0 2.07-.33 3.41-1.28 4.38a4.91 4.91 0 0 1-3.3 1.21zm5-16.72a1.14 1.14 0 0 1-1.21 1.19 1.16 1.16 0 0 1-1.19-1.19 1.18 1.18 0 0 1 1.23-1.21 1.14 1.14 0 0 1 1.12 1.21z" class="logo-white-color"/>
  <path id="hand" d="M52.17 52.72a2.12 2.12 0 0 0-2.22.92s-.5-.32-.82-.56v-1.41a2.21 2.21 0 0 0-2-2.39c-2.24 0-2.17 2.43-2.17 2.43s-.66-.11-1-.15V49.5a2.17 2.17 0 1 0-4.33 0v2.15c-.34.1-1 .33-1 .33V43.5a2.14 2.14 0 0 0-2.12-2.17 2.1 2.1 0 0 0-2.08 2.17s.07 10.78-.08 11.95c-.29 2.22-1.48 1.11-3 .68-2-.56-3.5-.33-4 .63-.69 1.44 1.5 3.28 3.17 4.92a20.06 20.06 0 0 1 2 2.24 37.87 37.87 0 0 0 4 4.43c3.21 3.21 11.67 3.68 14.75-3s2.44-10.15 2.44-10.15a2.48 2.48 0 0 0-1.54-2.48z" class="logo-white-color"/>
</svg>
