<svg xmlns="http://www.w3.org/2000/svg" id="logo-circle-author-reg" data-name="logo-circle-author-reg" viewBox="0 0 180 75">
  <defs>
    <style>
      .logo-gray-color{fill:#6d6d6d;}
      .logo-brand-color{fill:#da5043;}
      .logo-white-color{fill:#fff;}
    </style>
  </defs>
  <circle id="gray-circle" cx="33.59" cy="33.24" r="32.09" class="logo-gray-color"/>
  <circle id="color-circle" cx="33.59" cy="33.24" r="29" class="logo-brand-color"/>
  <path d="M28.4 39.7l-.15-1.34h-.07a4 4 0 0 1-3.26 1.58 3 3 0 0 1-3.26-3.06c0-2.57 2.29-4 6.4-4v-.18a2.19 2.19 0 0 0-2.42-2.46 5.3 5.3 0 0 0-2.77.79l-.44-1.28a6.61 6.61 0 0 1 3.5-.95c3.26 0 4 2.22 4 4.36v4a15 15 0 0 0 .18 2.55zm-.29-5.43c-2.11 0-4.51.33-4.51 2.4a1.71 1.71 0 0 0 1.83 1.85A2.65 2.65 0 0 0 28 36.73a2 2 0 0 0 .11-.62z" class="logo-white-color"/>
  <path d="M31.39 39.7v-1.19L32.91 37c3.65-3.48 5.3-5.33 5.32-7.48a2.55 2.55 0 0 0-2.84-2.79 4.87 4.87 0 0 0-3 1.21l-.62-1.36a6.28 6.28 0 0 1 4-1.45 4 4 0 0 1 4.38 4.16c0 2.64-1.91 4.78-4.93 7.68L34.1 38h6.43v1.7z" class="logo-white-color"/>
  <path d="M40 42.78a3.14 3.14 0 0 0 2.07-.78c.53-.62.73-1.45.73-4v-8.95h1.94v9.66c0 2.07-.33 3.41-1.28 4.38a4.91 4.91 0 0 1-3.3 1.21zm5-16.72a1.14 1.14 0 0 1-1.21 1.19 1.16 1.16 0 0 1-1.19-1.19 1.18 1.18 0 0 1 1.23-1.21 1.14 1.14 0 0 1 1.12 1.21z" class="logo-white-color"/>
  <path id="hand" d="M52.17 52.72a2.12 2.12 0 0 0-2.22.92s-.5-.32-.82-.56v-1.41a2.21 2.21 0 0 0-2-2.39c-2.24 0-2.17 2.43-2.17 2.43s-.66-.11-1-.15V49.5a2.17 2.17 0 1 0-4.33 0v2.15c-.34.1-1 .33-1 .33V43.5a2.14 2.14 0 0 0-2.12-2.17 2.1 2.1 0 0 0-2.08 2.17s.07 10.78-.08 11.95c-.29 2.22-1.48 1.11-3 .68-2-.56-3.5-.33-4 .63-.69 1.44 1.5 3.28 3.17 4.92a20.06 20.06 0 0 1 2 2.24 37.87 37.87 0 0 0 4 4.43c3.21 3.21 11.67 3.68 14.75-3s2.44-10.15 2.44-10.15a2.48 2.48 0 0 0-1.54-2.48z" class="logo-white-color"/>
  <path d="M76 37.64l-2.7 8.06h-3.42l8.7-25.61h4l8.73 25.61h-3.53L85 37.64zm8.4-2.58l-2.51-7.37C81.28 26 80.9 24.5 80.52 23h-.08c-.38 1.52-.8 3.08-1.29 4.64l-2.51 7.41z" class="logo-gray-color"/>
  <path d="M108 40.68c0 1.9 0 3.57.15 5h-3l-.19-3h.04a6.92 6.92 0 0 1-6.08 3.42c-2.89 0-6.35-1.6-6.35-8.05V27.31h3.34v10.18c0 3.5 1.06 5.85 4.1 5.85a4.83 4.83 0 0 0 4.41-3 4.88 4.88 0 0 0 .3-1.71V27.31H108z" class="logo-gray-color"/>
  <path d="M115.9 22v5.28h4.79v2.54h-4.79v9.92c0 2.28.65 3.57 2.51 3.57a7.47 7.47 0 0 0 1.94-.23l.15 2.51a8.17 8.17 0 0 1-3 .46 4.63 4.63 0 0 1-3.61-1.41c-1-1-1.29-2.62-1.29-4.79v-10h-2.85v-2.54h2.85V22.9z" class="logo-gray-color"/>
  <path d="M122.55 18.72h3.34V30.2h.11a6.2 6.2 0 0 1 2.39-2.36 6.88 6.88 0 0 1 3.42-.95c2.47 0 6.42 1.52 6.42 7.86V45.7h-3.34V35.14c0-3-1.1-5.47-4.26-5.47a4.8 4.8 0 0 0-4.51 3.33 4.05 4.05 0 0 0-.23 1.6v11.1h-3.34z" class="logo-gray-color"/>
  <path d="M157.85 36.35c0 6.8-4.71 9.76-9.16 9.76-5 0-8.82-3.65-8.82-9.46 0-6.16 4-9.76 9.12-9.76 5.29 0 8.86 3.84 8.86 9.46zm-14.59.19c0 4 2.32 7.07 5.58 7.07s5.59-3 5.59-7.14c0-3.12-1.56-7.07-5.51-7.07s-5.66 3.6-5.66 7.14z" class="logo-gray-color"/>
  <path d="M159.64 33c0-2.17 0-4-.15-5.74h2.92l.11 3.61h.15a5.52 5.52 0 0 1 5.09-4 3.65 3.65 0 0 1 1 .11v3.15a5 5 0 0 0-1.14-.11c-2.36 0-4 1.79-4.48 4.29a9.39 9.39 0 0 0-.15 1.56v9.8h-3.31z" class="logo-gray-color"/>
  <path d="M178.86 20.76a3.54 3.54 0 1 1-3.53-3.44 3.46 3.46 0 0 1 3.53 3.44zm-6.19 0a2.67 2.67 0 0 0 2.69 2.75 2.64 2.64 0 0 0 2.64-2.73 2.66 2.66 0 1 0-5.31 0zm2.12 1.81H174v-3.45a6.93 6.93 0 0 1 1.32-.11 2.15 2.15 0 0 1 1.2.25 1 1 0 0 1 .34.76.88.88 0 0 1-.71.8 1 1 0 0 1 .63.84 2.64 2.64 0 0 0 .25.86h-.86a3 3 0 0 1-.27-.84c-.06-.38-.27-.55-.71-.55h-.38zm0-2h.38c.44 0 .8-.15.8-.5s-.23-.52-.74-.52a1.88 1.88 0 0 0-.44 0z" class="logo-gray-color"/>
</svg>
