<svg id="a2j-logo" data-name="a2j-logo" xmlns="http://www.w3.org/2000/svg" viewBox="0 0 180 75"><defs><style>.gray-circle,.a2j-logo-name,.a2j-logo-reg{fill:#6d6d6d;}.color-circle{fill:#da5043;}.a2j-logo-text,.a2j-logo-name,.a2j-logo-reg{font-family:MyriadPro-Regular, Myriad Pro;}.a2j-logo-text{font-size:22px;letter-spacing:-0.05em;fill:#fff;}.hand{fill:#fff;}.a2j-logo-name{font-size:38px;letter-spacing:-0.06em;}.a2j-logo-reg{font-size:21px;}</style></defs><title>a2j-circle-author-registered</title><circle id="gray-circle" class="gray-circle" cx="33.59" cy="33.24" r="32.09"/><circle id="color-circle" class="color-circle" cx="33.59" cy="33.24" r="29"/><text class="a2j-logo-text" transform="translate(20.89 39.7)">a<tspan x="9.5" y="0">2</tspan><tspan x="20.05" y="0">j</tspan></text><path id="hand" class="hand" d="M52.17,52.72a2.12,2.12,0,0,0-2.22.92s-.5-.32-.82-.56V51.67a2.21,2.21,0,0,0-2-2.39c-2.24,0-2.17,2.43-2.17,2.43s-.66-.11-1-.15V49.5a2.17,2.17,0,1,0-4.33,0v2.15c-.34.1-1,.33-1,.33l0-8.48a2.14,2.14,0,0,0-2.12-2.17,2.1,2.1,0,0,0-2.08,2.17s.07,10.78-.08,11.95c-.29,2.22-1.48,1.11-3,.68-2-.56-3.5-.33-4,.63-.69,1.44,1.5,3.28,3.17,4.92a20.06,20.06,0,0,1,2,2.24,37.87,37.87,0,0,0,4,4.43c3.21,3.21,11.67,3.68,14.75-3s2.44-10.15,2.44-10.15A2.48,2.48,0,0,0,52.17,52.72Z"/><text class="a2j-logo-name" transform="translate(68.94 45.7)">A<tspan x="20.94" y="0">u</tspan><tspan x="40.17" y="0">t</tspan><tspan x="50.84" y="0">ho</tspan><tspan x="87.93" y="0">r</tspan></text><text class="a2j-logo-reg" transform="translate(170.93 31.7)">®</text></svg>