<?xml version="1.0" encoding="utf-8"?>
<!-- Generator: Adobe Illustrator 18.1.0, SVG Export Plug-In . SVG Version: 6.00 Build 0)  -->
<svg version="1.1" xmlns="http://www.w3.org/2000/svg" xmlns:xlink="http://www.w3.org/1999/xlink" x="0px" y="0px"
	 viewBox="0 0 300 300" style="enable-background:new 0 0 300 300;" xml:space="preserve">
<g id="Layer_1" style="display:none;">
	<g id="Shape_76" style="display:inline;">
		<g>
			<path style="fill:#3E3E3E;" d="M138.1,197.7c32.9,0,59.6-32.6,59.6-72.6c0-40-26.8-72.6-59.6-72.6c-16.3,0-31.5,7.8-42.8,21.9
				c-10.9,13.6-16.9,31.6-16.9,50.7C78.4,165.2,105.2,197.7,138.1,197.7z M138.1,68.5c24.1,0,43.7,25.4,43.7,56.7
				c0,31.2-19.6,56.7-43.7,56.7c-24.1,0-43.7-25.4-43.8-56.7C94.3,93.9,113.9,68.5,138.1,68.5z M188.2,189.8c-4.4,0-8,3.6-8,8
				c0,4.4,3.6,8,8,8c27.2,0,49.3,22.1,49.3,49.3c0,3.5-2.9,6.4-6.4,6.4H45c-3.5,0-6.4-2.9-6.4-6.4c0-27.2,22.1-49.3,49.3-49.3
				c4.4,0,8-3.6,8-8c0-4.4-3.6-8-8-8c-36,0-65.2,29.2-65.2,65.2c0,12.3,10,22.3,22.3,22.3h186.1c12.3,0,22.3-10,22.3-22.3
				C253.4,219,224.1,189.8,188.2,189.8z M143.9,43.7c5.7-3.4,11.8-5.1,18-5.1c24.1,0,43.7,25.4,43.7,56.7c0,5.6-0.6,11.1-1.9,16.4
				c-1,4.3,1.7,8.6,5.9,9.6c0.6,0.1,1.2,0.2,1.8,0.2c3.6,0,6.9-2.5,7.7-6.1c1.5-6.4,2.3-13.2,2.3-20c0-40-26.8-72.6-59.6-72.6
				c-9,0-18.1,2.5-26.1,7.3c-3.8,2.2-5,7.1-2.8,10.9C135.2,44.7,140.1,46,143.9,43.7z M213.6,157.9c-4.4,0-8,3.6-8,8
				c0,4.4,3.6,7.9,8,7.9c27.2,0,47.7,22.7,47.7,49.8c0,0.9-0.2,1.8-0.5,2.6c-1.8,4,0,8.7,4,10.5c1,0.5,2.1,0.7,3.2,0.7
				c3.1,0,6-1.8,7.3-4.7c1.3-2.9,1.9-5.9,1.9-9.1C277.3,187.7,249.6,157.9,213.6,157.9z"/>
		</g>
	</g>
</g>
<g id="Layer_3" style="display:none;">
	<g id="Paper" style="display:inline;">
		<g>
			<path style="fill:#3E3E3E;" d="M223.6,70.5h-19.9c-3.3,0-6-3.1-6-7V45.6c0-12.6-9.8-22.9-21.9-22.9H76.4
				c-12.1,0-21.9,10.3-21.9,22.9v208.8c0,12.6,9.8,22.9,21.9,22.9h147.1c12.1,0,21.9-10.3,21.9-22.9V93.3
				C245.4,80.7,235.6,70.5,223.6,70.5z M229.5,254.4c0,3.8-2.7,7-6,7H76.4c-3.3,0-6-3.1-6-7V45.6c0-3.8,2.7-7,6-7h99.4
				c3.3,0,6,3.1,6,7v17.9c0,12.6,9.8,22.9,21.9,22.9h19.9c3.3,0,6,3.1,6,7V254.4z M94.3,102.3H158c4.4,0,8-3.6,8-8c0-4.4-3.6-8-8-8
				H94.3c-4.4,0-8,3.6-8,8C86.4,98.7,89.9,102.3,94.3,102.3z M205.7,118.2H94.3c-4.4,0-8,3.6-8,8c0,4.4,3.6,8,8,8h111.3
				c4.4,0,8-3.6,8-8C213.6,121.7,210.1,118.2,205.7,118.2z M205.7,150H94.3c-4.4,0-8,3.6-8,8c0,4.4,3.6,8,8,8h111.3c4.4,0,8-3.6,8-8
				C213.6,153.6,210.1,150,205.7,150z M205.7,181.8H94.3c-4.4,0-8,3.6-8,8c0,4.4,3.6,8,8,8h111.3c4.4,0,8-3.6,8-8
				C213.6,185.4,210.1,181.8,205.7,181.8z M205.7,213.6H94.3c-4.4,0-8,3.6-8,8c0,4.4,3.6,8,8,8h111.3c4.4,0,8-3.6,8-8
				C213.6,217.2,210.1,213.6,205.7,213.6z"/>
		</g>
	</g>
</g>
<g id="Layer_2">
	<g id="Web">
		<g>
			<path style="fill:#3E3E3E;" d="M253.4,22.8H46.6c-13.2,0-23.9,10.7-23.9,23.9v206.8c0,13.2,10.7,23.9,23.9,23.9h206.8
				c13.2,0,23.9-10.7,23.9-23.9V46.6C277.3,33.5,266.5,22.8,253.4,22.8z M261.3,253.4c0,4.4-3.6,8-8,8H46.6c-4.4,0-8-3.6-8-8V46.6
				c0-4.4,3.6-8,8-8h206.8c4.4,0,8,3.6,8,8V253.4z M229.5,54.6H70.5c-8.8,0-15.9,7.1-15.9,15.9v31.8c0,8.8,7.1,15.9,15.9,15.9h159.1
				c8.8,0,15.9-7.1,15.9-15.9V70.5C245.4,61.7,238.3,54.6,229.5,54.6z M70.5,102.3V70.5h159.1l0,31.8H70.5z M102.3,134.1H70.5
				c-8.8,0-15.9,7.1-15.9,15.9v79.5c0,8.8,7.1,15.9,15.9,15.9h31.8c8.8,0,15.9-7.1,15.9-15.9V150C118.2,141.2,111,134.1,102.3,134.1
				z M70.5,229.5V150h31.8l0,79.5H70.5z M229.5,134.1H150c-8.8,0-15.9,7.1-15.9,15.9v79.5c0,8.8,7.1,15.9,15.9,15.9h79.5
				c8.8,0,15.9-7.1,15.9-15.9V150C245.4,141.2,238.3,134.1,229.5,134.1z M150,229.5V150h79.5l0,79.5H150z"/>
		</g>
	</g>
</g>
</svg>
