<?xml version="1.0" encoding="utf-8"?>
<!-- Generator: Adobe Illustrator 18.1.0, SVG Export Plug-In . SVG Version: 6.00 Build 0)  -->
<svg version="1.1" xmlns="http://www.w3.org/2000/svg" xmlns:xlink="http://www.w3.org/1999/xlink" x="0px" y="0px"
	 viewBox="0 0 992.1 612" style="enable-background:new 0 0 992.1 612;" xml:space="preserve">
<g id="Courthouse_-_Small">
	<rect x="496" y="198.8" style="fill:#C7C6C6;" width="481.4" height="340.4"/>
	<rect x="13.8" y="192.9" style="fill:#E4E5E4;" width="481.4" height="345.7"/>
	<g id="shadow">
		<polygon style="fill:#B6B8B7;" points="470.6,532.9 213.4,200.1 813.7,200.2 977.5,414.8 977.5,532.8 		"/>
	</g>
	<rect x="7.4" y="141.5" style="fill:#CECDCD;" width="977.3" height="58.7"/>
	<polygon style="fill:#939695;" points="992.1,136.2 659.4,85.4 659.4,159.1 926.6,148.1 	"/>
	<polygon style="fill:#939695;" points="0,136.2 332.7,85.4 332.7,159.1 65.6,148.1 	"/>
	<path style="fill:#E4E6E4;" d="M14.6,145.7v397.1V145.7z"/>
	<polyline style="fill:#DFE1DF;" points="496,534.3 466,534.3 466,542.7 496,542.7 496,534.3 	"/>
	<polyline style="fill:#DEE0DE;" points="526.2,534.3 496,534.3 496,542.7 526.2,542.7 526.2,534.3 	"/>
	<rect x="14.6" y="534" style="fill:#C7C6C6;" width="962.9" height="53.5"/>
	<polygon style="fill:#CDCCCC;" points="151.8,257.2 75.1,257.2 73.3,238 153.5,238 	"/>
	<polygon style="fill:#CDCCCC;" points="151.8,402.3 75.1,402.3 73.3,383.1 153.5,383.1 	"/>
	<polyline style="fill:#FFFFFF;" points="452,508.8 452,532.6 463.7,532.6 463.7,524 452,508.8 	"/>
	<polyline style="fill:#E4E6E4;" points="464.3,524.8 464.3,533.1 496.2,533.1 496.2,532.9 470.6,532.9 464.3,524.8 	"/>
	<polyline style="fill:#E4E6E4;" points="528.7,532.9 496.8,532.9 496.8,533.1 528.7,533.1 528.7,532.9 	"/>
	<polyline style="fill:#9AB0BD;" points="294.7,305.2 294.7,343.4 324.2,343.4 294.7,305.2 	"/>
	<polyline style="fill:#D1D3D4;" points="292.6,302.5 292.6,345.5 315.5,345.5 325.8,345.5 324.2,343.4 294.7,343.4 294.7,305.2 
		292.6,302.5 	"/>
	<polyline style="fill:#CDCCCC;" points="354.8,383.1 345.6,383.1 315.5,383.1 285.4,383.1 279.1,383.1 280.8,402.3 285.4,402.3 
		315.5,402.3 345.6,402.3 357.5,402.3 358.8,388.2 354.8,383.1 	"/>
	<polyline style="fill:#9AB0BD;" points="903.9,258.3 858.1,258.3 903.9,318.4 903.9,258.3 	"/>
	<polyline style="fill:#D1D3D4;" points="906.1,257.2 857.3,257.2 858.1,258.3 903.9,258.3 903.9,318.4 906.1,321.2 906.1,257.2 	
		"/>
	<polyline style="fill:#A7A7A6;" points="919.6,238 917.3,238 887.2,238 857.2,238 842.6,238 857.3,257.2 906.1,257.2 917.3,257.2 
		917.9,257.2 919.6,238 	"/>
	<polyline style="fill:#B0B2B1;" points="207.8,192.9 192.6,192.9 193.1,200.1 213.4,200.1 207.8,192.9 	"/>
	<rect x="0" y="136.4" style="fill:#DBDAD9;" width="992.1" height="18.4"/>
	<polygon style="fill:#C7C6C6;" points="496,136.8 208.6,136.8 352.4,82.5 496,28.2 639.8,82.5 783.5,136.8 	"/>
	<polygon style="fill:#5D5F5E;" points="496,127.8 189.5,127.8 342.8,69.9 496,11.9 649.3,69.9 802.7,127.8 	"/>
	<polygon style="fill:#C7C6C6;" points="496,135.9 189.5,135.9 342.8,78 496,20 649.3,78 802.7,135.9 	"/>
	<polyline style="fill:#E4E6E4;" points="802.9,144.9 189.2,144.9 189.2,152.2 189.2,192.9 192.6,192.9 207.8,192.9 206.8,191.5 
		802.9,191 802.9,152.2 802.9,145.7 802.9,144.9 	"/>
	<rect x="184.6" y="129.2" style="fill:#DBDAD9;" width="622.9" height="18.4"/>
	<polyline style="fill:#A7A7A6;" points="536.6,238 526.2,238 496,238 466,238 456.4,238 458.1,257.2 466,257.2 469.9,257.2 
		469.9,256.2 523,256.2 523,257.2 526.2,257.2 534.8,257.2 536.6,238 	"/>
	<rect x="469.9" y="256.2" style="fill:#A7A7A6;" width="53.1" height="89.1"/>
	<polyline style="fill:#82949D;" points="520.9,258.3 472,258.3 472,343.4 520.9,343.4 520.9,258.3 	"/>
	<polyline style="fill:#C7C6C6;" points="540.1,383.7 451.9,383.7 451.9,508.6 463.6,523.7 463.6,453.7 496.1,453.7 529.3,453.7 
		529.3,532.3 540,532.3 540,383.7 	"/>
	<polyline style="fill:#A5A6A6;" points="541.9,383.1 450.2,383.1 450.2,506.5 452,508.8 452,384 540.1,384 540.1,532.6 
		529.3,532.6 529.3,532.9 541.9,532.9 541.9,383.1 	"/>
	<polyline style="fill:#B6B8B7;" points="496.2,454.6 464.3,454.6 464.3,524.8 470.6,532.9 496.2,532.9 496.2,454.6 	"/>
	<polyline style="fill:#A5A6A6;" points="496.2,454 463.7,454 463.7,524 464.3,524.8 464.3,454.6 496.2,454.6 496.2,532.9 
		496.2,454 	"/>
	<polyline style="fill:#B6B8B7;" points="528.7,454.6 496.8,454.6 496.8,532.9 528.7,532.9 528.7,454.6 	"/>
	<polyline style="fill:#A5A6A6;" points="529.3,454 496.2,454 496.2,532.9 496.8,532.9 496.8,454.6 528.7,454.6 528.7,532.9 
		529.3,532.9 529.3,532.6 529.3,454 	"/>
	<polyline style="fill:#82949D;" points="343.6,258.3 294.7,258.3 294.7,305.2 324.2,343.4 343.6,343.4 343.6,258.3 	"/>
	<polyline style="fill:#A5A6A6;" points="345.7,257.2 292.6,257.2 292.6,302.5 294.7,305.2 294.7,258.3 343.6,258.3 343.6,343.4 
		324.2,343.4 325.8,345.5 345.6,345.5 345.7,345.5 345.7,257.2 	"/>
	<polyline style="fill:#A7A7A6;" points="359.2,238 345.6,238 315.5,238 285.4,238 279.1,238 280.8,257.2 285.4,257.2 292.6,257.2 
		345.7,257.2 357.5,257.2 359.2,238 	"/>
	<rect x="647.2" y="257.2" style="fill:#A7A7A6;" width="53.1" height="88.3"/>
	<polyline style="fill:#82949D;" points="698.2,258.3 649.3,258.3 649.3,343.4 698.2,343.4 698.2,258.3 	"/>
	<rect x="647.1" y="402.4" style="fill:#A7A7A6;" width="53.1" height="88.3"/>
	<polyline style="fill:#A7A7A6;" points="713.9,238 706.7,238 676.6,238 646.5,238 633.7,238 635.4,257.2 646.5,257.2 647.1,257.2 
		700.4,257.2 706.7,257.2 712.1,257.2 713.9,238 	"/>
	<polyline style="fill:#82949D;" points="698.2,403.4 649.3,403.4 649.3,488.5 698.2,488.5 698.2,403.4 	"/>
	<polyline style="fill:#A7A7A6;" points="713.9,383.1 706.7,383.1 676.6,383.1 646.5,383.1 633.7,383.1 635.4,402.3 646.5,402.3 
		647.1,402.3 700.4,402.3 706.7,402.3 712.1,402.3 713.9,383.1 	"/>
	<polyline style="fill:#A7A7A6;" points="549.6,369 526.2,369 496,369 466,369 443.3,369 445.1,383.1 450.2,383.1 541.9,383.1 
		547.9,383.1 549.6,369 	"/>
	<polyline style="fill:#A7A7A6;" points="359.2,383.1 354.8,383.1 358.8,388.2 359.2,383.1 	"/>
	<polyline style="fill:#82949D;" points="858.1,258.3 855.1,258.3 855.1,343.4 903.9,343.4 903.9,318.4 858.1,258.3 	"/>
	<polyline style="fill:#A5A6A6;" points="857.3,257.2 852.9,257.2 852.9,345.5 857.2,345.5 887.2,345.5 906.1,345.5 906.1,321.2 
		903.9,318.4 903.9,343.4 855.1,343.4 855.1,258.3 858.1,258.3 857.3,257.2 	"/>
	<polyline style="fill:#A2A2A2;" points="842.6,238 839.4,238 841.1,257.2 852.9,257.2 857.3,257.2 842.6,238 	"/>
	<rect x="852.9" y="401.8" style="fill:#A5A6A6;" width="53.1" height="88.3"/>
	<polyline style="fill:#82949D;" points="903.9,403.4 855.1,403.4 855.1,488.5 903.9,488.5 903.9,403.4 	"/>
	<polyline style="fill:#A2A2A2;" points="919.6,383.1 917.3,383.1 887.2,383.1 857.2,383.1 839.4,383.1 841.1,402.3 852.9,402.3 
		906.1,402.3 917.3,402.3 917.9,402.3 919.6,383.1 	"/>
	<polyline style="fill:#A7A7A7;" points="806.6,191 802.9,191 802.9,192.9 799.5,192.9 799,200.1 213.4,200.1 213.5,200.2 
		225.2,200.2 255.4,200.2 285.4,200.2 315.5,200.2 345.6,200.2 375.7,200.2 405.8,200.2 435.9,200.2 466,200.2 496,200.2 
		526.2,200.2 556.2,200.2 586.3,200.2 616.4,200.2 646.5,200.2 676.6,200.2 706.7,200.2 736.8,200.2 766.9,200.2 797,200.2 
		813.7,200.2 806.6,191 	"/>
	<polyline style="fill:#929493;" points="799.5,192.9 207.8,192.9 213.4,200.1 799,200.1 799.5,192.9 	"/>
	<polyline style="fill:#B6B8B7;" points="802.9,191 206.8,191.5 207.8,192.9 799.5,192.9 802.9,192.9 802.9,191 	"/>
	<rect x="468.5" y="460.1" style="fill:#9AB0BD;" width="23.6" height="36.2"/>
	<rect x="501" y="460.1" style="fill:#9AB0BD;" width="23.6" height="36.2"/>
	<g id="steps">
		<linearGradient id="SVGID_1_" gradientUnits="userSpaceOnUse" x1="506.5882" y1="546.9886" x2="506.5882" y2="562.4485">
			<stop  offset="0" style="stop-color:#E4E5E4"/>
			<stop  offset="1" style="stop-color:#A8A8A8"/>
		</linearGradient>
		<rect x="191.5" y="547" style="fill:url(#SVGID_1_);" width="630.2" height="15.5"/>
		<linearGradient id="SVGID_2_" gradientUnits="userSpaceOnUse" x1="506.5882" y1="562.1152" x2="506.5882" y2="577.575">
			<stop  offset="0" style="stop-color:#E4E5E4"/>
			<stop  offset="1" style="stop-color:#A8A8A8"/>
		</linearGradient>
		<rect x="172.1" y="562.1" style="fill:url(#SVGID_2_);" width="669" height="15.5"/>
		<linearGradient id="SVGID_3_" gradientUnits="userSpaceOnUse" x1="506.5882" y1="577.2417" x2="506.5882" y2="592.7015">
			<stop  offset="0" style="stop-color:#E4E5E4"/>
			<stop  offset="1" style="stop-color:#A8A8A8"/>
		</linearGradient>
		<rect x="160" y="577.2" style="fill:url(#SVGID_3_);" width="693.1" height="15.5"/>
		<linearGradient id="SVGID_4_" gradientUnits="userSpaceOnUse" x1="506.5882" y1="592.3682" x2="506.5882" y2="607.8281">
			<stop  offset="0" style="stop-color:#E4E5E4"/>
			<stop  offset="1" style="stop-color:#A8A8A8"/>
		</linearGradient>
		<rect x="145.9" y="592.4" style="fill:url(#SVGID_4_);" width="721.4" height="15.5"/>
	</g>
	<g>
		<rect x="292.6" y="402.3" style="fill:#D1D3D4;" width="53.1" height="89.1"/>
		<rect x="294.7" y="404.3" style="fill:#9AB0BD;" width="48.9" height="85.1"/>
	</g>
	<g>
		<rect x="86.8" y="402.3" style="fill:#D1D3D4;" width="53.1" height="89.1"/>
		<rect x="89" y="404.3" style="fill:#9AB0BD;" width="48.9" height="85.1"/>
	</g>
	<g>
		<rect x="86.8" y="256.8" style="fill:#D1D3D4;" width="53.1" height="89.1"/>
		<rect x="89" y="258.8" style="fill:#9AB0BD;" width="48.9" height="85.1"/>
	</g>
	<rect x="463.4" y="392" style="fill:#A5A6A6;" width="66.4" height="54.6"/>
	<rect x="464.7" y="393.4" style="fill:#82949D;" width="63.7" height="51.9"/>
</g>
<g id="roof-gable">
	<linearGradient id="SVGID_5_" gradientUnits="userSpaceOnUse" x1="496.065" y1="129.1618" x2="496.065" y2="43.8505">
		<stop  offset="0" style="stop-color:#EBEBEB"/>
		<stop  offset="0.8927" style="stop-color:#CBCACA"/>
		<stop  offset="1" style="stop-color:#C7C6C6"/>
	</linearGradient>
	<polygon style="fill:url(#SVGID_5_);" points="270.4,129.2 496.1,43.9 721.7,129.2 	"/>
</g>
<g id="clock">
	<g>
		<linearGradient id="SVGID_6_" gradientUnits="userSpaceOnUse" x1="496.0244" y1="117.8682" x2="496.0244" y2="64.0815">
			<stop  offset="0" style="stop-color:#FFFFFF"/>
			<stop  offset="0.2863" style="stop-color:#FCFCFC"/>
			<stop  offset="0.5368" style="stop-color:#F1F1F1"/>
			<stop  offset="0.773" style="stop-color:#E0DFDF"/>
			<stop  offset="1" style="stop-color:#C7C6C6"/>
		</linearGradient>
		<circle style="fill:url(#SVGID_6_);" cx="496" cy="91" r="26.9"/>
		<path style="fill:#B0B2B1;" d="M496,117.9c-14.9,0-26.9-12.1-26.9-26.9s12.1-26.9,26.9-26.9s26.9,12.1,26.9,26.9
			S510.9,117.9,496,117.9z M496,64.7c-14.5,0-26.2,11.8-26.2,26.2s11.8,26.2,26.2,26.2s26.2-11.8,26.2-26.2S510.5,64.7,496,64.7z"/>
		<path style="fill:#5D5F5E;" d="M496,91.6h-0.2c-0.4-0.1-0.6-0.4-0.6-0.8l3-17c0.1-0.4,0.4-0.6,0.8-0.6c0.4,0.1,0.6,0.4,0.6,0.8
			l-3,17C496.7,91.4,496.4,91.6,496,91.6z"/>
		<path style="fill:#5D5F5E;" d="M510.1,106.8c-0.2,0-0.4-0.1-0.5-0.2l-14-15.2c-0.2-0.3-0.2-0.7,0-1c0.2-0.2,0.7-0.2,1,0l14,15.2
			c0.2,0.3,0.2,0.7,0,1C510.4,106.7,510.2,106.8,510.1,106.8z"/>
	</g>
</g>
<g id="columns">
	<g>
		<linearGradient id="SVGID_7_" gradientUnits="userSpaceOnUse" x1="206.7784" y1="361.6961" x2="261.4589" y2="361.6961">
			<stop  offset="0" style="stop-color:#E4E6E4"/>
			<stop  offset="1" style="stop-color:#C7C6C6"/>
		</linearGradient>
		<rect x="206.8" y="201.8" style="fill:url(#SVGID_7_);" width="54.7" height="319.8"/>
		
			<linearGradient id="SVGID_8_" gradientUnits="userSpaceOnUse" x1="236.689" y1="568.5757" x2="173.7211" y2="568.5757" gradientTransform="matrix(-1 0 0 -1 439.3237 1096.507)">
			<stop  offset="0" style="stop-color:#E4E6E4"/>
			<stop  offset="1" style="stop-color:#C7C6C6"/>
		</linearGradient>
		<polyline style="fill:url(#SVGID_8_);" points="203.4,521.6 264.9,521.6 265.6,534.3 202.6,534.3 203.4,521.6 		"/>
		<linearGradient id="SVGID_9_" gradientUnits="userSpaceOnUse" x1="202.6347" y1="200.4609" x2="265.6026" y2="200.4609">
			<stop  offset="0" style="stop-color:#E4E6E4"/>
			<stop  offset="1" style="stop-color:#C7C6C6"/>
		</linearGradient>
		<polyline style="fill:url(#SVGID_9_);" points="264.9,206.8 203.4,206.8 202.6,194.1 265.6,194.1 264.9,206.8 		"/>
	</g>
	<g>
		<linearGradient id="SVGID_10_" gradientUnits="userSpaceOnUse" x1="367.6512" y1="361.6961" x2="422.3317" y2="361.6961">
			<stop  offset="0" style="stop-color:#E4E6E4"/>
			<stop  offset="1" style="stop-color:#C7C6C6"/>
		</linearGradient>
		<rect x="367.7" y="201.8" style="fill:url(#SVGID_10_);" width="54.7" height="319.8"/>
		
			<linearGradient id="SVGID_11_" gradientUnits="userSpaceOnUse" x1="75.8162" y1="568.5757" x2="12.8483" y2="568.5757" gradientTransform="matrix(-1 0 0 -1 439.3237 1096.507)">
			<stop  offset="0" style="stop-color:#E4E6E4"/>
			<stop  offset="1" style="stop-color:#C7C6C6"/>
		</linearGradient>
		<polyline style="fill:url(#SVGID_11_);" points="364.2,521.6 425.7,521.6 426.5,534.3 363.5,534.3 364.2,521.6 		"/>
		<linearGradient id="SVGID_12_" gradientUnits="userSpaceOnUse" x1="363.5075" y1="200.4609" x2="426.4754" y2="200.4609">
			<stop  offset="0" style="stop-color:#E4E6E4"/>
			<stop  offset="1" style="stop-color:#C7C6C6"/>
		</linearGradient>
		<polyline style="fill:url(#SVGID_12_);" points="425.7,206.8 364.2,206.8 363.5,194.1 426.5,194.1 425.7,206.8 		"/>
	</g>
	<g>
		<linearGradient id="SVGID_13_" gradientUnits="userSpaceOnUse" x1="567.6047" y1="361.6961" x2="622.2852" y2="361.6961">
			<stop  offset="0" style="stop-color:#E4E6E4"/>
			<stop  offset="1" style="stop-color:#C7C6C6"/>
		</linearGradient>
		<rect x="567.6" y="201.8" style="fill:url(#SVGID_13_);" width="54.7" height="319.8"/>
		
			<linearGradient id="SVGID_14_" gradientUnits="userSpaceOnUse" x1="-124.1372" y1="568.5757" x2="-187.1051" y2="568.5757" gradientTransform="matrix(-1 0 0 -1 439.3237 1096.507)">
			<stop  offset="0" style="stop-color:#E4E6E4"/>
			<stop  offset="1" style="stop-color:#C7C6C6"/>
		</linearGradient>
		<polyline style="fill:url(#SVGID_14_);" points="564.2,521.6 625.7,521.6 626.4,534.3 563.5,534.3 564.2,521.6 		"/>
		<linearGradient id="SVGID_15_" gradientUnits="userSpaceOnUse" x1="563.4609" y1="200.4609" x2="626.4288" y2="200.4609">
			<stop  offset="0" style="stop-color:#E4E6E4"/>
			<stop  offset="1" style="stop-color:#C7C6C6"/>
		</linearGradient>
		<polyline style="fill:url(#SVGID_15_);" points="625.7,206.8 564.2,206.8 563.5,194.1 626.4,194.1 625.7,206.8 		"/>
	</g>
	<g>
		<linearGradient id="SVGID_16_" gradientUnits="userSpaceOnUse" x1="728.4774" y1="361.6961" x2="783.1579" y2="361.6961">
			<stop  offset="0" style="stop-color:#E4E6E4"/>
			<stop  offset="1" style="stop-color:#C7C6C6"/>
		</linearGradient>
		<rect x="728.5" y="201.8" style="fill:url(#SVGID_16_);" width="54.7" height="319.8"/>
		
			<linearGradient id="SVGID_17_" gradientUnits="userSpaceOnUse" x1="-285.01" y1="568.5757" x2="-347.9779" y2="568.5757" gradientTransform="matrix(-1 0 0 -1 439.3237 1096.507)">
			<stop  offset="0" style="stop-color:#E4E6E4"/>
			<stop  offset="1" style="stop-color:#C7C6C6"/>
		</linearGradient>
		<polyline style="fill:url(#SVGID_17_);" points="725.1,521.6 786.6,521.6 787.3,534.3 724.3,534.3 725.1,521.6 		"/>
		<linearGradient id="SVGID_18_" gradientUnits="userSpaceOnUse" x1="724.3337" y1="200.4609" x2="787.3016" y2="200.4609">
			<stop  offset="0" style="stop-color:#E4E6E4"/>
			<stop  offset="1" style="stop-color:#C7C6C6"/>
		</linearGradient>
		<polyline style="fill:url(#SVGID_18_);" points="786.6,206.8 725.1,206.8 724.3,194.1 787.3,194.1 786.6,206.8 		"/>
	</g>
</g>
</svg>
