<?xml version="1.0" encoding="utf-8"?>
<?xml-stylesheet href="../../styles/viewer-avatars.css" type="text/css"?>
<!-- Generator: Adobe Illustrator 18.1.0, SVG Export Plug-In . SVG Version: 6.00 Build 0)  -->
<svg version="1.1" id="Male-Front" class="avatar-guide skin-darker" xmlns="http://www.w3.org/2000/svg" xmlns:xlink="http://www.w3.org/1999/xlink" x="0px" y="0px"
	 viewBox="0 0 214.4 757.4" style="enable-background:new 0 0 214.4 757.4;" xml:space="preserve">
<path id="face" style="fill:#F5CAB3;" d="M129.5,82.9c-0.6,1.9,0.3,4,0.3,6.2c0,2.2,1.6,5.2-1.7,7.4c-1.8,1.2-5.2,3.8-12,4.2
	c0.4,4.5,1.4,10.1,4.1,15c5.8,10.7-9.7,12.8-25.4,12.8c-15.7,0-18.5-17-18.5-17s-3.1-9.3-4.9-25c-1.3-4.5-2.7-9.3-3.3-12.1
	c0-0.1,0-0.2-0.1-0.3c-3.6-2-10.1-8.4-10.7-14.3c-0.4-4.4,1.2-7.4,2.8-9.1c-1.6-5.2-2.9-10.2-3.1-14C56.6,26.1,61.7,2.5,88.6,2.5
	c27,0,40.1,18.8,41.7,27c1.7,8.6,1.6,10.8,0.6,13.5c-0.9,2.2-0.8,3.3-0.3,4.4c0.6,1.1,2.2,10.5,2.2,11.8c0,1.4-2.5,9.4-2.5,12.1
	C130.4,74,130.2,80.9,129.5,82.9z"/>
<linearGradient id="SVGID_1_" gradientUnits="userSpaceOnUse" x1="-298.4476" y1="-136.5219" x2="-298.4476" y2="-143.4957" gradientTransform="matrix(-1.213 0.2804 0.2252 0.9744 -226.4793 269.5746)">
	<stop  offset="0" style="stop-color:#000000;stop-opacity:0"/>
	<stop  offset="1" style="stop-color:#000000;stop-opacity:0.4"/>
</linearGradient>
<path style="fill:url(#SVGID_1_);" d="M114.4,50.7c-0.7-1.1-2.6-4.5-7.1-5c-4.5-0.5-10.7,3.4-12.8,6.1"/>
<linearGradient id="SVGID_2_" gradientUnits="userSpaceOnUse" x1="-5056.9683" y1="1238.0511" x2="-5056.9683" y2="1229.9706" gradientTransform="matrix(-0.9016 -6.180000e-02 4.230000e-02 -0.6152 -4489.3701 518.3658)">
	<stop  offset="0" style="stop-color:#000000;stop-opacity:0"/>
	<stop  offset="1" style="stop-color:#000000;stop-opacity:0.4"/>
</linearGradient>
<path style="fill:url(#SVGID_2_);" d="M130.6,69.8c-0.4,0.9-1.5,3.4-5.2,4.3c-3.6,0.9-9.3-1.3-11.5-3"/>
<linearGradient id="SVGID_3_" gradientUnits="userSpaceOnUse" x1="-943.6933" y1="117.8672" x2="-943.6933" y2="89.4564" gradientTransform="matrix(-1 0 0 1 -844.2629 0)">
	<stop  offset="0" style="stop-color:#000000;stop-opacity:0"/>
	<stop  offset="0.9018" style="stop-color:#000000;stop-opacity:0.4"/>
</linearGradient>
<path style="fill:url(#SVGID_3_);" d="M116.1,100.8c0,0-15.5,2.2-33.4-11.3c0,0,2.1,7.4,11.7,11.5c9.6,4.1,13,6.8,15.1,9.5
	c2.1,2.7,5.5,7.4,5.5,7.4L116.1,100.8z"/>
<linearGradient id="SVGID_4_" gradientUnits="userSpaceOnUse" x1="82.682" y1="173.3003" x2="127.3085" y2="128.6739">
	<stop  offset="0.4724" style="stop-color:#F6FBFD"/>
	<stop  offset="0.7029" style="stop-color:#F4F8F9"/>
	<stop  offset="0.7859" style="stop-color:#ECEFEF"/>
	<stop  offset="0.8451" style="stop-color:#E0E1E2"/>
	<stop  offset="0.893" style="stop-color:#CFD0D1"/>
	<stop  offset="0.9339" style="stop-color:#BBBBBD"/>
	<stop  offset="0.9696" style="stop-color:#A4A5A7"/>
	<stop  offset="1" style="stop-color:#8C8E90"/>
</linearGradient>
<path style="fill:url(#SVGID_4_);" d="M88.4,124.6c0,0,0-6.1,10.5-2c10.5,4.1,24.3,2.4,24.3,2.4s5.4,2,4.4,16.9
	c-1,14.9-8.5,39.6-9.1,41.9c-0.7,2.4-2,16.9-14.9,5.8c-12.8-11.2-22.3-12.2-22-22.7c0.3-10.5,7.1-51.1,7.1-51.1L88.4,124.6z"/>
<path id="shirt" style="fill:#77A7B6;" d="M120.9,187.8c-0.7,1-12.5-5.8-14.5-8.8c-2-3-1-15.2-0.7-18.9c0.3-2.8,2.3-12.5,3.2-17
	c-0.8-0.5-0.5-1.2-0.5-1.2s-1.7-3.4-3.4-5.1c-0.8-0.8-1.8-2.5-2.8-4.2c-0.4-0.3-0.6-0.6-0.6-0.6s-4.7-0.3-6.8-3.4
	c-2-3.1,2-5.8,2-5.8l2.4,2c0,0,1.5,0.9,4,1.7c1.5-0.4,3.1-0.6,3.1-0.6s4.1,0,6.1,0l2.7-2.1c0,0,4.1,2.7,3.7,5.1
	c-0.3,2.4-2,3.7-2,3.7s0,0.2-0.3,0.4c0,0,0,0,0,0l0.7,7.9c0.4,1.5,0.7,3,0.7,3.5c0,1,2.7,12.5,2.7,14.2c0,1.7,1.4,6.1,3,9.1
	C125.3,170.9,121.6,186.8,120.9,187.8z"/>
<path style="fill:#FFFFFF;stroke:#656869;stroke-width:5.704700e-02;stroke-miterlimit:10;" d="M72.2,93.1c0,0-0.3,1.9,3.4,7.1
	c4.9,6.9,12.8,13.2,17.9,16.6c5.1,3.4,10.1,7.4,10.1,7.4s-1.4-0.7-6.8,3c-5.4,3.7-11.2,7.1-11.2,7.1s-6.4,1-7.1-0.7
	c-0.7-1.7-6.1-14.9-8.5-18.3c-2.4-3.4-5.7-11.8-6.1-12.9c-0.3-1-0.3-2.4-0.3-2.4s4.1-4.1,6.8-7.4C73.3,89.4,72.2,93.1,72.2,93.1z"/>
<path style="fill:#FFFFFF;stroke:#656869;stroke-width:5.704700e-02;stroke-miterlimit:10;" d="M110.7,127.6
	c2.2,0.5,4.1-2.4,5.1-0.7c1,1.7,5.1,6.1,5.1,6.1s-1-5.4-1-7.1c0-1.7-0.3-5.4-0.7-8.5c-0.3-3.1-1.7-6.4-1.7-6.4s-1.7,4.7-2,5.8
	c-0.3,1-1.4,5.7-3.4,7.1c-2,1.4-5.1,1-5.1,1S107.7,127,110.7,127.6z"/>
<path style="fill:#221F1F;stroke:#221F1F;stroke-width:0.5234;stroke-miterlimit:10;" d="M39.6,709c0,0,1.4,6.8,1.4,9.9
	c0,3.2-0.4,18-1.4,20.7c-0.9,2.7,0,11.3,6.8,13.1c6.8,1.8,11.3,4.1,19.8,3.6c8.6-0.4,14.4-1.8,17.1-5.4c2.7-3.6,1.8-8.1,1.8-8.1
	l-1.8-3.6c0,0,2.3-5.4,0.9-8.6c-1.3-3.2-4.5-10.4-5-13.1c-0.5-2.7,0.5-5.9,0.9-11.7c0.5-5.9-25.2-11.3-31.6-6.8
	C42.3,703.6,39.6,709,39.6,709z"/>
<path style="fill:#221F1F;stroke:#221F1F;stroke-width:0.5234;stroke-miterlimit:10;" d="M78.8,709.5l16.2,1.4l8.6-1.8l0.5-5.4
	c0,0,8.6-0.5,14,3.6c5.4,4.1,12.2,5.9,12.2,5.9s11.7,1.8,20.7,1.8c9,0,14.4,0.9,21.6-0.4c7.2-1.4,13.1-2.7,14.4-4.1
	c1.4-1.3,0-4.5,0-4.5s4.1-7.2-7.7-8.1c-11.7-0.9-21.2-1.8-28-5c-6.8-3.2-16.7-12.2-18-19.8c-1.3-7.7-45.5-4.5-45.5-4.5
	s-17.1,9.9-18,11.3C68.9,681.1,70.7,709,78.8,709.5z"/>
<linearGradient id="SVGID_5_" gradientUnits="userSpaceOnUse" x1="65.7251" y1="486.0187" x2="164.0277" y2="486.0187">
	<stop  offset="0.184" style="stop-color:#6A6C6E"/>
	<stop  offset="0.2911" style="stop-color:#767779"/>
	<stop  offset="0.5104" style="stop-color:#898A8C"/>
	<stop  offset="0.6626" style="stop-color:#909194"/>
	<stop  offset="0.9264" style="stop-color:#808184"/>
</linearGradient>
<path style="fill:url(#SVGID_5_);" d="M82.7,702.2c0,0,28.4-10.1,37.2-15.6c8.8-5.4,14.9-10.1,14.9-10.1s-0.7-3.4-0.7-6.8
	c0-3.4,3.4-18.9,9.5-44.6c6.1-25.7,8.1-34.5,11.5-60.9c3.4-26.4,6.8-78.5,7.4-110.9c0.7-32.5,2-64.3,1.4-79.1
	c-0.7-14.9-8.1-45.3-8.1-45.3L142,269.8l-20.7,36.1c0,0-35.8,60.9-36.5,64.3c-0.7,3.4-10.8,120.4-10.8,129.2
	c0,8.8-8.8,128.5-8.1,131.9C66.4,634.6,82.7,702.2,82.7,702.2z"/>
<linearGradient id="SVGID_6_" gradientUnits="userSpaceOnUse" x1="29.1251" y1="510.8126" x2="128.6684" y2="510.8126">
	<stop  offset="1.840490e-02" style="stop-color:#7B7D7E"/>
	<stop  offset="0.5276" style="stop-color:#909194"/>
	<stop  offset="0.7809" style="stop-color:#8D8E91"/>
	<stop  offset="0.9667" style="stop-color:#838486"/>
	<stop  offset="1" style="stop-color:#808184"/>
</linearGradient>
<path style="fill:url(#SVGID_6_);" d="M31.3,412.1c0,0-0.7,36.5,0,44c0.7,7.4,1.4,36.5,1.4,44.6c0,8.1,0.7,55.5,0,64.9
	c-0.7,9.5-2.7,52.1-3.4,62.2c-0.7,10.2,2,25,2.7,32.5c0.7,7.4,8.1,14.2,7.4,18.3c-0.7,4-2,6.8-3.4,11.5c-1.4,4.7,4.7,14.2,4.7,16.2
	c0,2-0.7,5.4-0.7,5.4s8.8-7.4,16.2-7.4c7.4,0,20.3,4.7,21.6,6.8c1.4,2,3.4-7.4,3.4-7.4l6.1-8.8c0,0-4.1-23-4.7-33.1
	c-0.7-10.2,2.7-47.4,2.7-47.4s5.4-98.7,14.2-130.5c8.8-31.8,21-63.6,23-69.7c2-6.1,6.1-46,6.1-59.5c0-13.5-8.1-44.6-8.1-44.6
	s-50.7,2.7-57.5,6.8C56.3,320.7,26.5,399.2,31.3,412.1z"/>
<path style="fill:#707173;" d="M146.6,367c0.8,2.7,13.1-78.4,7.8-79.4c-5.2-1-24.2-24.5-30.1-24.5c-5.9,0-26.8-10.8-33.3,22.6
	c-6.5,33.3-19.6,26.5-4.6,63.7c15,37.3-4.6,13.7,15,37.3C121.1,410.2,119.1,272.9,146.6,367z"/>
<path style="fill:#909194;stroke:#808184;stroke-width:5.704700e-02;stroke-miterlimit:10;" d="M164.5,139.5c0,0,6.8,11.5,7.4,14.9
	c0.7,3.4,6.8,16.2,7.4,18.9c0.7,2.7,3.4,8.8,3.4,8.8s0,5.4-1.4,14.9c-1.4,9.5,2,23.7-14.2,24.4c-16.2,0.7-25-20.3-25.7-25.7
	C140.8,190.2,149,136.1,164.5,139.5z"/>
<linearGradient id="SVGID_7_" gradientUnits="userSpaceOnUse" x1="147.9877" y1="407.9998" x2="147.9877" y2="120.5275">
	<stop  offset="0.319" style="stop-color:#909194"/>
	<stop  offset="0.5276" style="stop-color:#696C6F"/>
	<stop  offset="0.6204" style="stop-color:#7F8183"/>
	<stop  offset="0.7055" style="stop-color:#909194"/>
</linearGradient>
<path style="fill:url(#SVGID_7_);stroke:#656869;stroke-width:5.704700e-02;stroke-miterlimit:10;" d="M120.6,120.5l44,18.9
	l4.1,49.4c0,0-6.8,54.8-8.1,62.2c-1.4,7.4-4.7,25-3.4,28.4c1.4,3.4,2,14.9,3.4,16.9c1.3,2,9.5,23.7,10.1,27
	c0.7,3.4,8.1,41.3,8.1,46.7c0,5.4,2.7,20.3,0.7,23.7c-2,3.4-12.8,14.2-21,14.2c-8.1,0-8.8-7.4-11.5-8.8c-2.7-1.3-8.8-12.2-8.8-17.6
	c0-5.4,4.1-21.6,3.4-33.8c-0.7-12.2-2-31.1-3.4-40.6c-1.4-9.5-11.5-42.6-12.2-44.6c-0.7-2-10.1-52.1-10.1-54.1
	c0-2,3.4-18.9,7.4-32.5c4.1-13.5,1.4-43.3,1.4-43.3L120.6,120.5z"/>
<linearGradient id="SVGID_8_" gradientUnits="userSpaceOnUse" x1="43.7921" y1="418.4025" x2="92.0597" y2="113.6532">
	<stop  offset="0.3742" style="stop-color:#909194"/>
	<stop  offset="0.5276" style="stop-color:#696C6F"/>
	<stop  offset="0.6204" style="stop-color:#7F8183"/>
	<stop  offset="0.7055" style="stop-color:#909194"/>
</linearGradient>
<path style="fill:url(#SVGID_8_);stroke:#656869;stroke-width:5.704700e-02;stroke-miterlimit:10;" d="M18.4,413.4
	c0,0,8.1-69.7,8.1-82.5c0-12.8,2.7-30.4,0.7-52.8c-2-22.3-5.4-37.9-8.1-52.8c-2.7-14.9-10.8-39.2-9.5-54.1
	c1.3-14.9-1.4-29.6,2.7-33.6c4.1-4.1,8.8-10.3,21-15.7c12.2-5.4,18.9-16.9,27.1-12.9c8.1,4.1,39.9,44.6,47.3,62.2
	c7.4,17.6,16.2,38.6,18.9,41.9c2.7,3.4,4.7,8.1,4.7,8.1s2,41.9,2.7,51.4c0.7,9.5,0,24.4,0.7,29.1c0.7,4.7,4.1,8.8,1.4,19.6
	c-2.7,10.8-10.8,75.1-15.6,84.6c-4.7,9.5-10.8,15.6-23.7,15.6C84,421.5,19.8,416.8,18.4,413.4z"/>
<path style="fill:#909194;stroke:#808184;stroke-width:5.704700e-02;stroke-miterlimit:10;" d="M12.3,137.6c0,0-8.8,15.6-8.1,21.7
	c0.7,6.1,4.7,25.7,4.7,25.7s1.4,18.3,2,20.3c0.7,2,7.4,11.5,8.1,13.5c0.7,2,12.2,21.6,19.6,29.1c7.4,7.4,22.3,23.7,23.7,25.7
	c1.4,2,4.7,5.4,7.4,5.4c2.7,0,8.8,0,23,2.7c14.2,2.7,38.6,6.1,46.7,6.8c8.1,0.7,14.9,6.1,18.9,0c4.1-6.1,7.4-22.3,5.4-30.4
	c-2-8.1-9.5-21-15.6-21.6c-6.1-0.7-16.2-2.7-21.6-2.7c-5.4,0-12.2-0.7-24.3-2c-12.2-1.4-9.5-2-9.5-2s1.4-3.4-0.7-8.1
	c-2-4.7-7.4-18.3-12.9-22.3c-5.4-4.1,0,0-8.4-13.5c-5.4-8.6-8.5-21.6-11.2-24.3C57,158.6,35.3,127.5,12.3,137.6z"/>
<path style="fill:#909194;stroke:#808184;stroke-width:5.877600e-02;stroke-miterlimit:10;" d="M151.2,191.8
	c0-14.3,29.5-3.4,29.5-3.4s-0.9,4.1,3.7,10.6c4.6,6.5,5.6,14.9,7.6,16.4c2,1.5,3.8,8.6,6.4,11.5c2.7,2.9,9.5,20.7,7.9,25.5
	c-1.6,4.8-4.5,20-11.7,25.2c-7.2,5.2-16.5,9-25.1-1.2c-8.6-10.2-12.3-19.4-13.9-31.3c-1.5-11.9-4-18.3-3.6-26
	C152.3,211.3,151.2,206,151.2,191.8z"/>
<path style="fill:#909194;stroke:#656869;stroke-width:5.704700e-02;stroke-miterlimit:10;" d="M122.2,200.7c0,0,7.4-10.1,12.5-21
	c5.1-10.8,9.5-21.6,9.5-21.6s1.7-9.1,1.7-10.5c0-1.4,13.5,0.3-4.1-12.5c-17.6-12.8-19.3-12.8-20.3-16.6c-1-3.7-3.4-6.8-3.4-6.8
	l2,17.2c0,0,2,13.2,1.4,17.2c-0.7,4.1-1,22.3-2.4,26.4c-1.4,4.1-7.4,20.3-7.4,20.3L122.2,200.7z"/>
<path id="left-hand" style="fill:#F5CAB3;" d="M153.7,191.2c0,0,1.4-4.1-2.4-7.1c-3.7-3-6.8-4.7-10.1-7.4c-3.4-2.7-7.8-8.5-9.5-11.8
	c-1.7-3.4-1-5.1-3-9.1c-2-4.1-3.4-6.1-4.1-7.4c-0.7-1.4-5.1-6.4-4.1-9.1c1-2.7,2-4.1,5.4-2.7c3.4,1.4,4.7,4.1,8.5,7.1
	c3.7,3,13.2,7.8,13.2,7.8s6.4,1,8.1,4.7c1.7,3.7,7.4,14.5,7.4,15.6c0,1,0.3,2.4,3.7,4.4c3.4,2,4.4,1.4,7.1,4.1
	c2.7,2.7,3.7,6.4,4.1,8.1c0.3,1.7,0.3,9.8-1.4,12.2c-1.7,2.4-5.8,8.5-12.2,5.4C158.1,202.7,153.7,203,153.7,191.2z"/>
<linearGradient id="left-hand-gradient_1_" gradientUnits="userSpaceOnUse" x1="136.0704" y1="183.8561" x2="158.612" y2="157.925">
	<stop  offset="0.4294" style="stop-color:#000000;stop-opacity:0"/>
	<stop  offset="0.9018" style="stop-color:#000000;stop-opacity:0.4"/>
</linearGradient>
<path id="left-hand-gradient" style="fill:url(#left-hand-gradient_1_);" d="M153.7,191.2c0,0,1.4-4.1-2.4-7.1
	c-3.7-3-6.8-4.7-10.1-7.4c-3.4-2.7-7.8-8.5-9.5-11.8c-1.7-3.4-1-5.1-3-9.1c-2-4.1-3.4-6.1-4.1-7.4c-0.7-1.4-5.1-6.4-4.1-9.1
	c1-2.7,2-4.1,5.4-2.7c3.4,1.4,4.7,4.1,8.5,7.1c3.7,3,13.2,7.8,13.2,7.8s6.4,1,8.1,4.7c1.7,3.7,7.4,14.5,7.4,15.6
	c0,1,0.3,2.4,3.7,4.4c3.4,2,4.4,1.4,7.1,4.1c2.7,2.7,3.7,6.4,4.1,8.1c0.3,1.7,0.3,9.8-1.4,12.2c-1.7,2.4-5.8,8.5-12.2,5.4
	C158.1,202.7,153.7,203,153.7,191.2z"/>
<path style="fill:#909194;stroke:#656869;stroke-width:5.704700e-02;stroke-miterlimit:10;" d="M69.8,94.8c0,0-2.7,0.9-6.1,3.1
	c-3.3,2.1-4.4,4.1-6.4,7.1c-2,3-8.1,6.8-8.1,6.8s4.4,16.6,4.7,18.9c0.3,2.4,13.9,1,13.9,3c0,2-2,2.7-2,2.7l-4.4,6.8
	c0,0,37.9,34.5,47.7,46.3c9.8,11.8,17.9,21,19.6,24.7c1.7,3.7,2.4,13.2,2.4,13.2s1.4-11.8-4.1-25.4c-5.4-13.5-10.5-28.7-15.9-37.2
	c-5.4-8.5-21.6-37.9-26-42.3c-4.4-4.4-15.6-15.1-16.3-17.1c-0.7-2.1-1.1-5.9-1.1-5.9S67.2,97.4,69.8,94.8z"/>
<linearGradient id="SVGID_9_" gradientUnits="userSpaceOnUse" x1="152.3428" y1="198.2029" x2="179.6365" y2="198.2029">
	<stop  offset="0.4724" style="stop-color:#F6FBFD"/>
	<stop  offset="0.8776" style="stop-color:#F5F8F9"/>
	<stop  offset="1" style="stop-color:#F2F2F2"/>
</linearGradient>
<path style="fill:url(#SVGID_9_);" d="M152.3,189.2c0,0,1.4,11.2,4.4,14.5c3,3.4,0.7,5.4,7.8,6.8c7.1,1.4,11.2,1.7,12.9,1.4
	c1.7-0.3,2.4-1.4,2-7.1c-0.3-5.7,0.7-10.1,0-14.5c-0.7-4.4-1.3-5.8-1.3-5.8s-0.3,8.5-3.1,11.5c-2.7,3-3.7,3-7.4,3.7
	c-3.7,0.7-3.4,0-7.8-3C155.4,193.6,152.3,189.2,152.3,189.2z"/>
<path id="right-hand" style="fill:#F5CAB3;" d="M129.2,166.6C129.1,166.7,129.2,166.6,129.2,166.6L129.2,166.6z M171.3,180.4
	c-7.3,7.2-11.8,1-14-2.5c-2.2-3.5,0-5.4,0.2-9.6c0.2-4.2,1.3-3.5-1.3-5.9c-2.7-2.5-4-2.2-4-2.2s-0.7,2.2-2.2,3.5
	c-1.5,1.2-1.8-0.5-3.5,2.7c-1.8,3.2-6,5.2-7.6,5.4c-1.6,0.2-1.3-1.7-1.3-1.7c0.3-1.2,0.6-2.3,0.9-3.4c-2.6,3.8-5.5,3.4-6.5,3.7
	c-1.1,0.2-2.7-2.2-2.7-3.5c0-0.2,0-0.2-0.1-0.3c0.2-0.3,1.3-1.9,5-9.6c6.2-13.1,22.4-12.6,22.4-12.6s-8.9-0.2-12.4,0.5
	c-3.6,0.7-3.8,3.5-8.4,8.9c-4.7,5.4-6.4,4.4-8.4,4.4c-2,0-1-1.1-1-3.3c0-2.2,3-4.1,5-7c2-3,5.3-6.3,7.7-8.5c1.4-1.3,2.4-1.7,3.9-1.8
	c-0.1-0.1-0.2-0.2-0.2-0.2c-1.4-1.1-8.8,2-11.1,2.9c-2.3,0.9-4.7-0.9-5.4-2.7c-0.7-1.8,1.1-2.9,2.3-3.6c1.1-0.7,3.2-2,5-3.2
	c1.8-1.1,5.4-1.1,8.1-2.3c2.7-1.1,3.8,0.2,5.4,1.4c1.6,1.1,4.7,5.2,6.1,6.8c0.6,0.7,1.6,1.5,2.6,2.2c1.5,0.3,2.8,0.6,3.7,0.6
	c2.3,0,5,1.9,5,1.9s3.7,7.8,5.7,10.7c2,3,0.3,11.9,0.3,15.6C170.3,171.2,171.3,180.4,171.3,180.4z M153.9,151.6
	c-2.7,0.2-5.6,1.1-7.9,2.7c-1.4,0.9-2.2,2.1-3.2,3.9C146.4,153.5,150.8,152,153.9,151.6z"/>
<path id="hair" style="fill:#211F1F;" d="M124.4,18.2l0,0.5l-0.4-0.3c0,0-4.5-3-8.6-3.7c-4.2-0.7-10-1.2-10.1-1.2
	c-0.1,0-15.1,1.4-19.3,1.9c-0.6,0.1-1.1,0.1-1.6,0.2c-3,0.3-4.3,0.5-6.1,1.4c-2,1.1-2.2,2.2-2.2,4.5c0,2.4,1.3,6.3,2.6,9.1
	c1.8,3.9,2.3,6.2,1.6,6.9c-0.2,0.2-0.5,0.4-0.8,0.5c-0.7,0.4-1.6,0.9-2.2,2.7c-0.3,1-0.8,1.8-1.2,2.6c-0.7,1.4-1.3,2.7-1.4,4.1
	c-0.2,2.3,1.2,8.8,1.2,8.9l0,0.1l-2.7,2.7l-2.7-6.8c-1.1-2-5.2-3-7.5-2.4c-1.7,0.4-3.5,6.5-3.2,10.5c0.6,7.8,3.4,9.6,8.5,14l1.8,7.2
	l-1.2-0.8c-0.5-0.5-12.2-12.7-15-20.2c-3-8-4.4-18.1-3.5-25.7c0.9-7.7,4.4-16.9,8.1-21.3c3.6-4.3,7-7.4,12.8-9.8
	c3.9-1.6,11.2-4.5,23-4.5c2.7,0,5.5,0.1,8.5,0.4c0.2,0,6.2,0.2,8.9,2.4c1.1,0.9,2.4,1.6,3.7,2.5c1.8,1.1,3.7,2.3,5.3,3.8
	c2.3,2.4,2.8,3.3,3.2,4.2l0.1,0.3C124.4,13.9,124.4,17.8,124.4,18.2z"/>
<g id="hand-shadow">
	<path style="fill:#E6AB86;" d="M71.3,58.7c0,0,0.4,0.3,0,2.1c-0.4,1.8-0.2,3.3,0.2,3.9c0.4,0.6,0.9,0.8,1,1.6
		c0.1,0.8,1.7,1.5-0.4,1.4c-2.1-0.1-3.3,0-3.8-0.6c-0.5-0.6-2-1.7-1.2-3.7C67.9,61.4,70.9,57,71.3,58.7z"/>
	<path style="fill:#E6AB86;" d="M69.6,55c0,0-0.6-0.9-2.5-1.2c-1.9-0.3-4.3,0.7-4.8,2.6c-0.5,1.9-0.6,5.9,0.3,7.2
		c0.9,1.3,2.2,4.8,3.1,5.4c0.9,0.6,1.4,1.2,1.1,0.2c-0.3-1-0.8-1.4-1.7-2.8c-0.9-1.4-1.4-2-1.4-4.5c0-2.5-0.3-3.5,0.6-4
		c0.9-0.5,1.9-1.1,2.9-0.2c1,0.9,1.7,0.7,2.3,0.1C70.1,57.2,71.3,55.4,69.6,55z"/>
</g>
<linearGradient id="SVGID_10_" gradientUnits="userSpaceOnUse" x1="121.2436" y1="47.1882" x2="131.3453" y2="47.1882">
	<stop  offset="0" style="stop-color:#000000;stop-opacity:0"/>
	<stop  offset="1" style="stop-color:#000000;stop-opacity:0.4"/>
</linearGradient>
<path style="fill:url(#SVGID_10_);" d="M128.3,44.4c-4.5,0.6-6.4,3.9-7.1,5l10.1,0.6c-0.3-1.3-0.5-2.4-0.7-2.7
	c-0.4-0.8-0.5-1.6-0.2-2.8C129.7,44.4,129,44.3,128.3,44.4z"/>
</svg>
