<svg xmlns="http://www.w3.org/2000/svg" id="Client-Older-Female" class="avatar-user avatar-female skin-darker" viewBox="0 0 250.5 757.6">
  <style>
    <!-- avatar specific shading styles -->
    #Client-Older-Female .leg-right-shade{fill:url(#leg-right-shade_3_);}
    #Client-Older-Female .pant-shade{fill:url(#pant-shade_3_);}
    #Client-Older-Female .neck-shade{fill:url(#neck-shade_3_);}
    #Client-Older-Female .nose-shade{fill:url(#nose-shade_3_);}
    #Client-Older-Female .eye-left-shade{fill:url(#eye-left-shade_3_);}
    #Client-Older-Female .eye-right-shade{fill:url(#eye-right-shade_3_);}
  </style>
  <path id="left-hand_10_" d="M62.2 161.5s-13.8 2.4-20.3 6.5c-6.5 4-10.1 9.1-12.3 19.6-2.2 10.5-1.5 27.3-1.1 35.4.4 8.1-1.3 44.6-.9 47.7s.3 13.7.3 13.7-4.1 22.8-2.6 33.9c1.4 11.1 5.7 38.8 6.1 41.9.4 3.1 3.6 23.1 10.6 30.3 7 7.2 29 21.9 29 21.9s2.4-3.4 3.3-7c.6-2.4-1.6-9.3-1.6-9.3s7 2.3 8.9 3.8c1.9 1.5 5.3 2.5 6.5.9 1.2-1.6 1.6-6.9-2.3-9.2-3.8-2.4-10-6.5-14.1-8.4-4.1-2-7.6-4.3-11.7-5.8-4-1.6-7.6-2.2-7.6-2.2s-.4-36.2.9-44.5c1.3-8.3 3.3-18.1 3.4-22.7.1-4.6-1.8-19.2-1-23.9.8-4.7 2.8-13.7 2.8-30.3-.1-16.6.7-68.8.7-68.8l3-23.5z" class="skin-color"/>
  <path id="leg-right-color" d="M85.9 620l6.9 54.7c.3 2.6-1.1 5.1-3.4 6.3l-39.6 18.6s-19 9.5-2 9.4c10.3-.1 66.6-2.8 70-2.8 9 0 12.5-19.5 12.5-19.5l-8.9-64.2-35.5-2.5z" class="skin-color"/>
  <linearGradient id="leg-right-shade_3_" x1="58.6306" x2="131.945" y1="657" y2="683.6843" gradientUnits="userSpaceOnUse">
    <stop offset="0" stop-opacity="0"/>
    <stop offset="1" stop-opacity=".1"/>
  </linearGradient>
  <path id="leg-right-color_1_" d="M85.9 620l6.9 54.7c.3 2.6-1.1 5.1-3.4 6.3l-39.6 18.6s-19 9.5-2 9.4c10.3-.1 66.6-2.8 70-2.8 9 0 12.5-19.5 12.5-19.5l-8.9-64.2-35.5-2.5z" class="leg-right-shade"/>
  <path id="leg-left-color" d="M133.8 626.4l-.7 54.3-.2 25.2s-.7 11.2-24.6 23.9c0 0 17.3 14 21.9 17.6 4.8 3.7 32.5-15.7 35.2-16.1 8.1-1.4 6.8-22.4 6.8-22.4l-4.9-20.8 5-68.1-38.5 6.4z" class="skin-color"/>
  <path id="shoe-right-color_1_" d="M49.7 699.6s-10.2 2.6-15.3 4.8c-5.1 2.1-9.7 4.9-10.8 7.1-1.2 2.1.8 5.3 4.6 6.4 3.8 1.2 15 1.7 24.3 1.3 9.4-.4 18.3-3.8 28.1-5.3 9.9-1.5 16.1-2.6 20.1-1.8s4.8 1 10.2 1.2c5.5.2 13.8-.2 15-1.3 1.1-1.1 4-5.5 4.1-8.7.2-3.3.2-16.5.2-16.5s-9.7 7.8-19.1 11.5c-9.5 3.8-26 8.4-42.3 7.8-16.4-.9-24.5-3.7-19.1-6.5z" class="shoe-color"/>
  <path id="shoe-left-color_1_" d="M108.2 729.8s-7.5 8-8.9 10.2c-1.3 2.2-5.1 10.6 2.2 12.6 7.3 2.2 22.1 3.8 30.1 2.4 8-1.3 18.1-6.2 22.4-10.6s6.2-4.6 11.6-7.3c5.4-2.7 11.3-4.9 11.1-11.3-.2-6.4-4.6-17-4.6-17s0 6.7-1.6 9.7c-1.6 2.9-6.4 14-13.7 17.3-7.3 3.3-17.5 6.4-31 2.4-13.6-3.8-17.6-8.4-17.6-8.4z" class="shoe-color"/>
  <path id="shirt-right-arm-color" d="M61.6 152.4s-17.3 3.5-23.6 9.5-11.2 18.3-11.2 37.2c.1 18.7-.1 38.1-.1 38.1s23.1.3 25.7-1.4c2.6-1.8 6.1-68 6.1-68l3.1-15.4z" class="shirt-color"/>
  <path id="pant-color" d="M104.6 138.6s-39.2 2.3-50.2 12.2c-6.6 6-15.1 18.9-15.1 18.9l-7.9 62.1 14.9 144.4-5.7 223.1S19.1 668 188.4 615.1l-4.4-333s6.6-111.5-22.8-134.6-57.5-23.2-57.5-23.2l.9 14.3z" class="pant-color"/>
  <linearGradient id="pant-shade_3_" x1="-9.5995" x2="240.8422" y1="352.4595" y2="419.5652" gradientUnits="userSpaceOnUse">
    <stop offset=".3" stop-opacity="0"/>
    <stop offset=".9" stop-opacity=".4"/>
  </linearGradient>
  <path id="pant-shade" d="M104.6 138.6s-39.2 2.3-50.2 12.2c-6.6 6-15.1 18.9-15.1 18.9l-7.9 62.1 14.9 144.4-5.7 223.1S19.1 668 188.4 615.1l-4.4-333s6.6-111.5-22.8-134.6-57.5-23.2-57.5-23.2l.9 14.3z" class="pant-shade"/>
  <path id="shirt-color_1_" d="M131.8 124.3s-49.7 1-53.6 6.1c-3.9 5.1-33 43-33 43s13.1 9.8 22.5 19L65 244.1s37-50.8 34-56.6l26 1.1s10.8-35.8 13.9-42.1c3-6.3-7.1-22.2-7.1-22.2zM83.6 187l-5.5 1.8v-2.2l7.8.3h-2.3z" class="shirt-color"/>
  <path id="right-hand-color" d="M146.9 146.8s16.8 4.6 21.3 8c4.6 3.5 8.4 10.4 12.3 18.9 3.8 8.4 10.1 28 13.6 43s8 36.3 10.1 43.7c2.1 7.3 6.6 29.4 6.6 32.8 0 3.5 1.4 13.6-1.7 19.9-3.2 6.3-18.2 29.7-25.1 38.1-7 8.4-23.4 30.5-24.1 31.9-.7 1.4-3.2 6-3.2 6s-3.2 11.9-5.2 13.3-9.8 5.5-18.2 4.2c-8.4-1.4-20.3-9.1-20.3-9.1v-6.6h-3.8c-2.8 0-3.2 1.1-6 2.1-2.8 1.1-4.6 2.5-8.4 2.1-3.8-.3-5.5-1.7-6.3-3.2-.7-1.4 1.1-3.2 2.8-3.8 1.7-.7 9.5-2.8 11.9-4.2 2.5-1.4 6.3-1.4 11.2-4.9 4.9-3.5 12.6-5.5 16.4-6.3 3.8-.7 5.5-1.1 5.5-1.1s10.9-10.1 21-25.9 12.9-23.4 15.3-28.3c2.5-4.9 7.4-13.3 7-16.8-.3-3.5-10.1-36.2-13.6-45.8-7-19-5.4-25.8-7.9-32.1s.2-8.7-1.8-11.2c-2.1-2.5-16.4-13.1-16.8-16.5-.3-3.4-9.4-26.4 7.4-48.2z" class="skin-color"/>
  <path id="shirt-left-arm-color" d="M146.2 146.2s22.7 4.9 27 11.2 12.9 24.5 15 29.7c2.1 5.2 6.3 24.1 7 29.4.7 5.2 2.7 14.4 2.7 14.4s-17.5-.8-22.2.4c-4.7 1.3-15 7.4-15 7.4s-4.2-15.2-9.8-21.5c-5.7-6.3-12.6-10.9-15-18.9-2.7-8.1-10.4-27.7 10.3-52.1z" class="shirt-color"/>
  <path id="face-color" d="M106.4 36.5C81.5 34.1 62.8 56.3 60 86c-2.3 24.2 2.8 46.4 18.2 54.7 3.6 15.6-1.1 50.7-1.1 50.7l50-34.2V128c8.8-8.6 15.6-20.2 17.4-33.5 4.7-33.4-13.1-55.7-38.1-58z" class="skin-color"/>
  <linearGradient id="neck-shade_3_" x1="141.4305" x2="176.9221" y1="677.7842" y2="676.6905" gradientUnits="userSpaceOnUse" gradientTransform="matrix(0.9995 -3.080000e-02 -3.080000e-02 -0.9995 -42.3821 825.9052)">
    <stop offset="0" stop-opacity="0"/>
    <stop offset="1" stop-opacity=".4"/>
  </linearGradient>
  <path id="neck-shade_1_" d="M78.2 140.6s17.2 3.6 35.5-16.3c0 0-1.8 13.9-11.5 18.5-9.7 4.5-13.1 7.4-15.1 10.2-2 2.8-7.6 10.9-7.6 10.9.5-9.5.1-17.9-1.3-23.3z" class="neck-shade"/>
  <linearGradient id="nose-shade_3_" x1="-3768.4595" x2="-3769.4529" y1="-503.7036" y2="-495.1523" gradientUnits="userSpaceOnUse" gradientTransform="matrix(0.8909 -0.1516 0.1035 0.6079 3493.3218 -157.3204)">
    <stop offset="0" stop-opacity="0"/>
    <stop offset="1" stop-opacity=".4"/>
  </linearGradient>
  <path id="nose-shade_1_" d="M73.8 108.7c.5 1 2.3 3.9 6.7 4.6 4.5.5 11-2.7 13.4-5l-20.1.4z" class="nose-shade"/>
  <linearGradient id="eye-left-shade_3_" x1="962.5488" x2="962.5488" y1="2467.8076" y2="2475.0142" gradientUnits="userSpaceOnUse" gradientTransform="matrix(1.1579 0.4575 0.3674 -0.9302 -1920.3607 1950.3571)">
    <stop offset="0" stop-opacity="0"/>
    <stop offset="1" stop-opacity=".4"/>
  </linearGradient>
  <path id="eye-left-shade_1_" d="M91.5 91.6c.8-1.1 3.3-4.1 8.1-4 4.6.1 10.4 5.1 12.1 8.2l-20.2-4.2z" class="eye-left-shade"/>
  <linearGradient id="eye-right-shade_3_" x1="72.4006" x2="72.4006" y1="667.3677" y2="674.1664" gradientUnits="userSpaceOnUse" gradientTransform="matrix(1 0 0 -1 0 758)">
    <stop offset="0" stop-opacity="0"/>
    <stop offset="1" stop-opacity=".4"/>
  </linearGradient>
  <path id="eye-right-shade_1_" d="M72.6 83.8c-6.1 0-7.6 5-7.7 6.3L80 88.6c-.8-1.2-2.9-4.4-7.4-4.8z" class="eye-right-shade"/>
  <path id="hair-color" d="M129.3 117.9l-2.8 9.5s22.3 2.8 25.6-9.5 2.4-55.1-8.5-68.8-35.1-26.6-50.3-22.8-28 10.4-29.9 18.5c-1.9 8.1-2.4 22.8-3.8 25.6-1.4 2.8-11.9 19.5-10.4 24.2 1.4 4.7 9.5 16.6 11.4 17.6 1.9.9 0-16.6 0-16.6S60 58.3 76.1 51.1c8.5-2.8 12.3-3.8 18.1-.1 5.1 4.2 15.4 12.2 27.3 19 1.4 2.5-.7 7.2.2 9.8 2.8 1.8 5.9 14.3 9 11.5 8.8-7.7 17.5-6.7 9.3 13.3-1.7 4.4-10.7 13.3-10.7 13.3z" class="hair-color"/>
</svg>
