<svg xmlns="http://www.w3.org/2000/svg" id="Client-Male-Chair" class="avatar-user avatar-male in-wheelchair skin-darker" viewBox="0 0 500 757.6">
  <style>
    <!-- avatar specific shading styles -->
    #Client-Male-Chair .collar-color{fill:#FFFFFF;}
    #Client-Male-Chair .pant-right-shade{fill:url(#pant-right-shade_2_);}
    #Client-Male-Chair .random-shade{opacity:0.1;}
    #Client-Male-Chair .pant-left-shade{fill:url(#pant-left-shade_2_);}
    #Client-Male-Chair .shirt-shade{fill:url(#shirt-shade_2_);}
    #Client-Male-Chair .nose-shade{fill:url(#nose-shade_2_);}
    #Client-Male-Chair .eye-right-shade{fill:url(#eye-right-shade_2_);}
    #Client-Male-Chair .eye-left-shade{fill:url(#eye-left-shade_2_);}
    #Client-Male-Chair .neck-shade{fill:url(#neck-shade_2_);}
    #Client-Male-Chair .ear-shade{fill:url(#ear-shade_2_);}
    #Client-Male-Chair .blanket-shade{fill:url(#blanket-shade_2_);}
  </style>
  <g id="wheelchair-back_1_">
    <path d="M301.1 276.6c-.1 0-26.5-10.2-29.8-11.4l-.3-.1c-2.8-.8-6 1.4-7.3 5-1.4 3.8-.2 7.6 2.6 8.7 0 0 30.6 9.4 30.7 9.4 1.9.7 4.3-1.4 5.5-4.5 1-3.3.4-6.4-1.4-7.1z" class="wheelchair-dary-gray"/>
    <path d="M254.5 297.3c-1.9-.2-3.3-1.8-3.3-3.8.1-2.4 1.3-23.6 13.8-25.4 2-.3 3.8 1.1 4.1 3.1.3 2-1.1 3.8-3.1 4.1-5.1.8-7.4 13.1-7.6 18.5-.1 2-1.8 3.6-3.8 3.5h-.1z" class="wheelchair-light-gray"/>
    <path d="M111.8 592.5l-15.9-4.3c-.5-.1-1-.1-1.5 0l-3.2.7s-2.1.9-2.1 2.1l.4 26c0 .4-14.5 16.2-17.5 20-.8 1.1-.6 2.7.4 3.5l6.2 4.5c1.3 0 2.5-.6 3.3-1.6l17.6-20.3c.3-.4.4-.8.4-1.3v-26.4l13.6 3.5v-4.1c0-1.1-.7-2-1.7-2.3z" class="wheelchair-light-gray"/>
    <path d="M97.2 602.1c-1.5-.3-3.1-.4-4.6-.4-7.6 0-15.3 3.5-21.9 9.4l-1.1.5.2.4c-6.2 5.9-11.3 14.1-14.1 23.5-6.4 21.6 1.9 41.8 18.4 45 1.5.3 3.1.4 4.6.4 15.3 0 31.1-14.1 36.9-33.8 6.4-21.6-1.8-41.7-18.4-45zm-4 38c-.2-1.2-.7-2.2-1.5-2.8l18.3-17.5c0 .1 0 .1.1.2 2.5 6.2 3 13.7 1.5 21.4l-18.4-1.3zM64 660.5c-1.8-5.8-2-12.4-.7-19.2l13.6.9c.1 1.5.6 2.8 1.6 3.4L64 660.5zm44.7-43.6L88 636.3l7.4-28.9c.6.1 1.1.1 1.7.2 4.8 1 8.8 4.3 11.6 9.3zm-14.8-13.6v-.1.1zm-1.9 4.2l-7.4 26.9-9.3-17.5c.6-.6 1.1-1.2 1.7-1.7 4.8-4.5 10-7.2 15-7.7zm-18.7 11.7l7.6 15.7c-1.5.7-2.9 2.3-3.6 4.4l-13.5-.5c.2-.7.3-1.4.5-2.1 1.8-6.5 5-12.5 9-17.5zm-8.4 43.9l16.4-15.7-6 26.9c-4.5-1.8-8.1-5.6-10.4-11.2zm13.1 12l7.2-28.1c.5.7 1.1 1.1 1.9 1.3h.4l10.2 19.3c-5.3 5-11.3 7.7-16.8 7.7-1 .1-2 0-2.9-.2zm21.7-9.5l-9-18.6c1-.9 1.8-2.2 2.2-3.7 0-.1 0-.2.1-.3l18.1.6-.6 2.4c-2.1 7.5-5.9 14.4-10.8 19.6z" class="wheelchair-med-gray"/>
    <path d="M93.8 602.6v4.3c1.1 0 2.3.1 3.4.3 6.2 1.2 11.2 5.7 14.1 12.7 3.2 7.7 3.4 17.2.5 26.8-2.6 8.7-7.5 16.5-13.8 22.2-5.8 5.2-12.3 8-18.2 8-1.1 0-2.3-.1-3.4-.3-6.2-1.2-11.2-5.7-14.1-12.7-3.2-7.7-3.4-17.2-.5-26.8 2.6-8.7 7.5-16.5 13.8-22.2 5.8-5.2 12.3-8 18.2-8v-4.3m-2.1-1.7c-15.9 0-32.4 14.6-38.5 34.8-6.6 22.3 1.9 43.1 19.2 46.5 1.6.3 3.2.5 4.8.5 15.9 0 32.4-14.6 38.5-34.8 6.6-22.3-1.9-43.1-19.2-46.5-1.6-.4-3.2-.5-4.8-.5z" class="wheelchair-wheels"/>
    <path d="M257.4 651.1l-19.2-5.4c-.6-.2-1.2-.2-1.8 0l-3.9.9s-2.6 1.2-2.6 2.6l.5 32.6c0 .4-17.5 20.3-21.1 25.1-1 1.3-.8 3.4.5 4.3l7.5 5.6c1.5 0 3-.7 3.9-2l21.2-25.5c.3-.5.5-1 .5-1.6v-29.1l16.4 4.4v-9.2c.1-1.2-.7-2.4-1.9-2.7z" class="wheelchair-light-gray"/>
    <path d="M242.4 662.1c-1.6-.3-3.1-.5-4.7-.5-7.8 0-15.7 4.1-22.4 10.9l-1.1.6.2.4c-6.4 6.9-11.6 16.4-14.4 27.3-6.5 25.1 1.9 48.6 18.8 52.3 1.6.3 3.1.5 4.7.5 15.6 0 31.8-16.4 37.7-39.2 6.5-25.1-1.9-48.6-18.8-52.3zm-4.1 44.1c-.2-1.4-.7-2.5-1.5-3.2l17.8-19.4c.1.3.3.7.4 1 2.3 6.7 2.9 14.7 1.6 23.1l-18.3-1.5zm-29 1.4l12.3 1c.1 1.7.7 3.2 1.6 4l-13.6 15.8c-1.5-6.3-1.6-13.4-.3-20.8zm43.8-27.3l-20.2 21.5 7-31.1c.8 0 1.5.1 2.3.3 4.5 1 8.2 4.2 10.9 9.3zm-16.7-9.4l-6.9 28.6-8.5-18.4c.6-.7 1.1-1.3 1.7-2 4.4-4.5 9.1-7.3 13.7-8.2zM218.8 684l6.9 16.1c-1.6.8-3 2.7-3.7 5.1l-12.2-.5c.1-.6.2-1.1.4-1.7 1.8-7 4.8-13.6 8.6-19zm-8.1 47.9c0-.1-.1-.2-.1-.3l15.5-16.9-5.9 29.7c-4.1-2.2-7.4-6.5-9.5-12.5zm12.7 13.6c-.1 0-.3-.1-.4-.1l7-31.2c.5.8 1.1 1.3 1.9 1.5h.5l10.1 21.8c-5.2 5.3-10.9 8.3-16.1 8.3-.9 0-2-.1-3-.3zm21.3-10.3l-9-21c1-1 1.8-2.5 2.3-4.2 0-.1 0-.3.1-.4l18 .7c-.2 1-.4 2.1-.7 3.1-2.1 8.3-5.8 16-10.7 21.8z" class="wheelchair-med-gray"/>
    <path d="M239.1 665.4v4.7c1.1 0 2.2.1 3.3.4 6.1 1.3 11 6.3 13.8 14 3.1 8.5 3.3 19 .5 29.6-2.5 9.6-7.3 18.3-13.5 24.5-5.7 5.7-12 8.8-17.8 8.8-1.1 0-2.2-.1-3.3-.4-6.1-1.3-11-6.3-13.8-14-3.1-8.5-3.3-19-.5-29.6 2.5-9.6 7.3-18.3 13.5-24.5 5.7-5.7 12-8.8 17.8-8.8v-4.7m-2.4-4.8c-16.3 0-33.1 16.9-39.3 40.5-6.8 25.9 2 50.1 19.6 54 1.6.4 3.3.5 4.9.5 16.3 0 33.1-16.9 39.3-40.5 6.8-25.9-2-50.1-19.6-54-1.6-.3-3.2-.5-4.9-.5z" class="wheelchair-wheels"/>
    <path d="M257.7 404.3c-3.7-.8-7.5-1.2-11.3-1.2v9.5-9.5c-18.6 0-37.6 9.2-53.7 24.7l-2.7 1.3.4.9c-15.3 15.6-27.8 37-34.6 61.8-15.6 56.9 4.6 110 45.2 118.5 3.7.8 7.5 1.2 11.3 1.2 37.4 0 76.3-37.1 90.5-88.8 15.7-56.8-4.5-109.9-45.1-118.4zm31.8 46.2c6 16.7 7.2 36.6 3.5 57.1l-55-4.1 51.5-53zm-3.2-7.8l-51.2 51.5 18.9-79c.2 0 .5.1.7.1 13.3 2.9 24.3 12.5 31.6 27.4zM246 414.6l-19 74.6-25.8-52.3 1-1c13.9-13.6 29.4-21.2 43.8-21.3zm-50 27.8l21.7 48.1c-3.7 1.8-7.2 6.2-8.8 11.6l-41.8-1.6c.5-2 .9-3.9 1.5-5.9 5.5-19.8 15.1-38 27.4-52.2zm-26.4 122.7c-6.4-17.1-7.6-37.5-3.7-58.6l42 3.1c.2 4 1.6 7.3 3.9 9.1l-42.2 46.4zm2.6 6.2l46.6-48-15.8 75.8c-13-3.2-23.8-12.9-30.8-27.8zm40.1 28.9c-.9 0-1.8 0-2.6-.1l19.9-83.2 29.4 59.6-2.4 2.4c-14.1 13.8-29.8 21.3-44.3 21.3zm51.6-29.1L237 511.4l54.9 2.1c-.5 2.2-1 4.4-1.6 6.7-5.4 19.2-14.6 36.9-26.4 50.9z" class="wheelchair-dary-gray"/>
    <path d="M248.7 398.7v12.1c3.1 0 6.1.3 9 .9 16.5 3.3 29.9 16 37.6 35.5 8.5 21.6 9 48.3 1.3 75.2-6.9 24.4-20 46.5-36.8 62.2-15.4 14.5-32.7 22.5-48.5 22.5-3.1 0-6.1-.3-9-.9-16.5-3.3-29.9-16-37.6-35.5-8.5-21.6-9-48.3-1.3-75.2 6.9-24.4 20-46.5 36.8-62.2 15.4-14.5 32.7-22.5 48.5-22.5v-12.1m-4.5 2.3c-39 0-79.5 38.3-94.3 91.6-16.3 58.7 4.8 113.4 47 122.2 3.9.8 7.8 1.2 11.7 1.2 39 0 79.5-38.3 94.3-91.6 16.3-58.7-4.8-113.4-47-122.2-3.9-.8-7.8-1.2-11.7-1.2z" class="wheelchair-wheels"/>
    <path d="M414.8 576.6c-.6-2.1-2.8-3.4-4.9-2.8l-43.1 11.9.9-26.3 18.4 6.6c.4.1.8.2 1.1.2 1.4 0 2.7-.8 3.1-2.2.6-1.7-.3-3.6-2-4.3l-20.4-7.3 1.7-51.1c4.1-1 7.1-4.8 7.1-9.1v-17l-150.3 29.4c-2.1.4-3.7 2.4-3.4 4.5.3 2.3 2.5 3.8 4.7 3.4L368.6 485v1.8c-.7-.6-1.6-1.1-2.6-1.1-2.2-.1-4.1 1.7-4.1 3.9l-.2 5.1-35.8 6.4c-.8-.3-1.8-.3-2.7 0l-2.4.9-62.9 11-9.5-3.4c-1.7-.6-3.6.3-4.3 2-.5 1.3-.1 2.8 1 3.6l-9.3 1.7-.6 16.4-69.6 25.6-44.3-41.5c42.8-5.7 105.2-14 109.1-14.5 2.2-.3 3.7-2.3 3.4-4.5-.3-2.2-2.3-3.7-4.5-3.4-1 .1-69.4 9.3-113.2 15.1l.5-25.7 100.7-15v-20.1l-111 15.3c-2.2.3-3.7 2.3-3.4 4.5.3 2.2 2.3 3.7 4.5 3.4l1.4-.2-.1 5.1-11.2 1.7v33.4c-8.9 1.2-15 2-16.6 2.1-11.1 1.3-16 16.1-16.5 17.8l-.1.3-15.8 96.8H15.7c-4.4 0-8 3.6-8 8v13.3l35.7 10-2.2 13.3c-.4 2.2 1.1 4.2 3.3 4.6.2 0 .4.1.6.1 1.9 0 3.6-1.4 3.9-3.4l2-12.4 16 4.5 43.6-6.5v-1.4l-53.2-14.2h-.2v-15.9h-.7L72 534.6c1.1-3.2 4.8-11.4 9.7-12 1.6-.2 7.4-.9 15.7-2V596c0 2.1 1.6 3.7 3.6 4l.4 22.1c0 .4-16.4 16.4-19.9 20.2-1 1.1-.7 2.7.5 3.5l7 4.6c1.4 0 2.8-.6 3.7-1.6l20-20.6c.3-.4.5-.8.5-1.3V599c.7-.6 1.1-1.4 1.3-2.3l60.1-18.4 17.1 16-18.2 94.3c-.9-.4-1.9-.6-2.9-.6l-8.8 2.5-6.2.4-36.3-16.2-51.3 3v1.4l44.6 25.8 7.2-1.3 20.9 11.3 27.9-1-4.1 21.1c-.4 2.2 1 4.3 3.2 4.7.3 0 .5.1.8.1 1.9 0 3.6-1.3 3.9-3.2l4.4-22.9h.4l.3-3.8 21-109 27 25.3c-.3.8-.4 1.7-.2 2.6.5 1.8 2.1 2.9 3.9 2.9.4 0 .7 0 1.1-.1l.8-.2c.1.1.3.2.5.3l-.7 20.6c-.1 2.2 1.6 4.1 3.8 4.2h.2c2.1 0 3.9-1.7 4-3.9l.8-23.6 3.8-1.1v26.9c0 .8.2 1.6.7 2.2l.5 31.1c0 .4-19.8 20.5-23.9 25.4-1.1 1.3-.9 3.4.6 4.4l8.5 5.7c1.7 0 3.4-.7 4.5-2l24.1-25.8c.4-.5.6-1 .6-1.6v-39c0-1.5-1.3-2.7-2.9-2.7h-4.5v-26.8l108.1-29.8c.7.6 1.6 1.1 2.6 1.1h.1c1.8 0 3.4-1.2 3.8-2.9l45.6-12.6c2.2-.6 3.4-2.8 2.9-4.9zM116.9 471.2l92.5-12.8v4l-92.5 13.8v-5zm-10.2 122.4h-1.2v-74.2c.8-.1 1.6-.2 2.5-.3l-1.3 74.5zm1.5-82.9c-.1.1-.2.2-.3.4-.8.1-1.6.2-2.3.3V486l3.1-.5-.5 25.2zm6.6 77.5l1.1-64.9 41.3 38.7-1.2.4c-2.1.8-3.1 3.1-2.4 5.1.6 1.6 2.1 2.6 3.8 2.6.5 0 .9-.1 1.4-.2l5-1.8 4.2 3.9-53.2 16.2zm79.1-4.6v.2l-.3 1.3-10.1-9.4 16.2-5c-3.9 6.4-5.7 12.4-5.8 12.9zm38.2 37.6l-31.6-29.6 1.1-6c.4-1.4 4.2-13.3 12.8-19.4l19.8-6-2.1 61zm2.5-69.4c-8.1 1.7-14.2 3.1-16.9 3.9-2.4.7-4.6 1.8-6.7 3.1l-34.3 10.5-4.6-4.3 62.7-23.1-.2 9.9zm125.4-2.3l-25.7-9.2c11.5-2.2 20.9-4 26.1-5l-.4 14.2zm-37.1-40l38.6-6.9-.8 24.5c-6.3 1.2-22.2 4.2-41.3 7.8L286.1 523l36.8-13.5zm-44.8 8l-3.7 1.3-1.3-.5 5-.8zm-34.5 6.1l16.3-2.9 4.8 1.7-21.3 7.8.2-6.6zm-.5 15.3l33.3-12.3 30.2 10.8c-22 4.2-46.1 9-63.9 12.7l.4-11.2zm4.6 71c-2.2 0-4 1.8-4 4v5.7l-3.5 1 2.2-62.2c21.3-4.4 53.1-10.6 79-15.6l38.3 13.7-1 31.4-107 29.5v-3.5c0-2.2-1.8-4-4-4z" class="wheelchair-light-gray"/>
    <path d="M436.9 291.2c-.1 0-29.3-11.2-33-12.6l-.4-.1c-3.1-.9-6.6 1.5-8.1 5.6-1.5 4.2-.2 8.4 2.9 9.6l33.9 10.4c2.1.8 4.8-1.5 6.1-5 1.3-3.7.6-7.1-1.4-7.9z" class="wheelchair-dary-gray"/>
    <path d="M386.3 313.9c-2.1-.3-3.6-2.1-3.5-4.3.2-2.7 2.4-26 16.2-27.6 2.2-.2 4.2 1.3 4.4 3.5.2 2.2-1.3 4.2-3.5 4.4-5.7.6-8.7 14.1-9.1 20.2-.2 2.2-2.1 3.9-4.3 3.7 0 .1-.1.1-.2.1z" class="wheelchair-light-gray"/>
    <path d="M238.4 400c.3-8.8-3.1-14.3-6.1-17.3-3.5-3.6-8.2-5.7-12.6-5.7-5.8 0-79.1 4.2-89.9 7-10.9 2.9-21.8 14.5-20 33.1.6 6.2 3 11.1 7.2 14.4 7 5.6 16.3 4.6 18.1 4.4 3.2-.4 19.4-2.6 30.5-3.3 6.8-.4 10.3 10.1 10.9 12.1l.4 14.7c.1 1.8 1.5 3.2 3.3 3.2h.1c1.8-.1 3.3-1.6 3.2-3.4l-.5-15.5-.1-.4c-.2-.7-4.8-18.2-17.9-17.4-11.3.7-27.7 2.9-30.9 3.4-.8.1-8.1 1-13.1-3-.6-.4-1-.9-1.5-1.5l111.9-11.3c-.1 16.1.2 37.1.2 38.3 0 1.8 1.6 3.3 3.4 3.3 1.8 0 3.3-1.5 3.3-3.4.1-.4-.4-38.6.1-51.7zm-106.9-9.6c9.4-2.5 81.9-6.8 88.1-6.8 2 0 5.2 1 7.8 3.7.9.9 1.8 2.1 2.5 3.6l-111.6 11.3c2.9-6.4 8.1-10.4 13.2-11.8z" class="wheelchair-light-gray"/>
    <path d="M220 378.4l-91.8 7.9c-3 .3-5.5-2.3-5.5-5.6v-8.2c0-3 2.1-5.4 4.8-5.6l91.8-6.6c2.9-.2 5.4 2.4 5.4 5.6v6.9c0 2.9-2.1 5.3-4.7 5.6z" class="wheelchair-blue"/>
    <path d="M200.3 605.6s-54.3-14.6-79.1-21-62.4-28.4-62.4-28.4l5.3-32s37.2 20.3 68.7 28.4c31.5 8.1 74.1 18.4 74.1 18.4l-6.6 34.6z" class="wheelchair-blue"/>
    <path d="M399.2 301.3l-146.8-18.7c-12.2 33-15.5 143.1-16 161.5h-.1l-128.1 18.7s25.4 17.4 42.7 24 85.4 22.7 85.4 22.7l149.5-29.4c.1.1-6.6-120.1 13.4-178.8z" class="wheelchair-blue"/>
  </g>
  <path id="left-hand-color_1_" d="M149.3 360.1c5 .2 20.9-2 23.1 3.3 1.1 2.5 1.2 9.9.4 12.4-.9 3.1-3.9 3.4-7.2 4.9-6.4 2.9-12.2 6.8-19.1 8.5-6 1.6-12.2 2.6-17.6-1.1-5.1-3.5-7.5-7.5-5.2-13.7 2.1-5.6 9.7-6.8 14.4-9.8 2.7-1.5 7.9-6 11.2-4.5z" class="skin-color"/>
  <path id="shoe-right-color" d="M67.9 619.2s-5 2.3-7.5 5.3-3.7 5.8-8.9 6.5c-5.1.6-8.9 3.5-11.5 4-2.6.5-7-1.3-12.2 3.1-5.2 4.4-6.3 3.4-7 7.9-.6 4.6 2.7 8.4 10.5 10.2 7.8 1.9 20.3 3 32.9-.3s12.2-3.1 21-2.3c8.8.8 20.9 1 25.6-2.1 4.6-3.2 4-8.3 4-8.3s.7-12.1-6.1-18.1c-6.6-6.1-40.8-5.9-40.8-5.9z" class="shoe-color"/>
  <path id="shoe-left-color" d="M118 660.8s-2.8 7.5-4.3 9.7c-1.4 2.2-9.5 8.4-10.3 9.8-.8 1.6-3.4 6.4-5.1 8.1-1.7 1.7-5.9 6.3-6.4 8.3s-2.6 6.6-1.3 10c1.3 3.4 14.5 12.8 27.5 9.2 13-3.6 18.8-9.4 21-13.1 2.2-3.7 10.8-11.5 11.6-13 .8-1.6 4.5-12.7 4.4-21.8-.5-9-32.8-14.3-37.1-7.2z" class="shoe-color"/>
  <path id="pant-color" d="M357.1 413.4c-2.3-13.7-19.8-31.6-25.3-36.9-4.3 5.3-30.4 19-53.5 25-2.7-6.7-6.2-12.7-10.6-12.4 0 0-20.4 4.6-25.3 7.5-5 2.9-130.6 40.4-140.4 43.9-9.8 3.5-18.3 27.3-18.3 27.3-.5 2.7-.7 5.1-.8 6.8 0 6.8 2.3 18.4 2.5 25.7.3 7.2-.6 13.8-.2 26.9.4 13.1 1.9 30.2.3 32.9-1.6 2.7-11.1 23.9-10.8 27.6.4 3.9 5.1 12.9 5.1 12.9l-4.7.6s-10 11.4-9.3 12.7c.7 1.3 18.6 18.5 26.9 20.4 8.1 1.9 22-.4 22-.4s3.7-8.8 4.3-13.3c.6-4.6 2.3-14.8 3.6-20.6.9-4.5 6.8-25.5 9.7-39.7.3-3.6.9-7.3 1.5-10.5.6-11.1 1.8-33 2.2-38.7.2-3.3 0-10.4 0-17.2 3.7-1.7 7.6-3.5 8.9-3.8-1.9 4.7-2.7 7.1-2.7 7.1.4 11.2.9 23.2 1.3 24.8.6 2.8-6 14.9-7.5 18.8-.6 1.7-1.5 5-2.3 9.1v.6c-.1 2.4-.7 5.9-1.5 9.9-.2 2.2-.3 4.5-.3 6.6 0 9.9 3.3 37.5 3.6 42.8.4 5.3-3.5 10.3-5 12.6-1.5 2.3-12.2 8.6-12.8 13.1-.8 4.6.7 7.5 2.2 10 1.5 2.5 2.4 4 1.6 6.9-.7 2.8-4.1 9.3-4.1 9.3s17.8 6.3 19.8 8.5c2 2.3 7.3 7 13.4 6.9 6.1-.2 6.9-4.7 6.9-4.7s1.5-2.3 2.9-6.2c1.4-3.9-.9-8.1 2.3-10.6 3.3-2.6 8.7-3.4 10.1-9.1 1.5-5.7 6.8-49.7 7.8-53.7s10.6-43.8 11.2-51.3c.5-5 3.1-32.2 4.4-39.9 10.7-2.2 66.9-12.9 75.9-16.3 8.9-3.3 21.5-9 27.3-9.5 5.8-.5 23.6 1.3 31.4-1 7.8-2.4 16.7-5.2 19.3-10.5 2.5-5.5 9.2-34.6 7-50.9z" class="pant-color"/>
  <path id="collar-right-white_1_" d="M287.6 199.8c-1.7-.6-5.9 3.7-7.3 5.6s-11.2 19.9-11.2 19.9l11.1-8.3 7.4.9v-18.1z" class="collar-color"/>
  <linearGradient id="pant-right-shade_2_" x1="65.8497" x2="297.7804" y1="512.094" y2="512.094" gradientUnits="userSpaceOnUse">
    <stop offset="0" stop-opacity="0"/>
    <stop offset="1" stop-opacity=".2"/>
  </linearGradient>
  <path id="pant-right-shade" d="M136 511c.2-3.3 0-10.4 0-17.2 3.7-1.7 7.6-3.5 8.9-3.8 1.8-4.4 4.6-10.9 8.7-19.6 8.7-18 34.4-21.7 34.4-21.7 7.5-3 14.7-5.7 17.6-6.6 6.9-2.2 20.6-9.3 24.5-12.2 3.9-2.9 18.1-8.3 21-9.4 2.8-1.1 9.9-11.8 17.5-16.2.5-.3 1-.6 1.5-1 .1 0 .2 0 .3-.1 2.6-.5 5.3-1.1 8-1.8-2.7-6.7-6.2-12.7-10.6-12.4 0 0-20.4 4.6-25.3 7.5-5 2.9-130.6 40.4-140.4 43.9-9.8 3.5-18.3 27.3-18.3 27.3-.5 2.7-.7 5.1-.8 6.8 0 6.8 2.3 18.4 2.5 25.7.3 7.2-.6 13.8-.2 26.9.4 13.1 1.9 30.2.3 32.9-1.6 2.7-11.1 23.9-10.8 27.6.4 3.9 5.1 12.9 5.1 12.9l-4.7.6s-10 11.4-9.3 12.7c.7 1.3 18.6 18.5 26.9 20.4 8.1 1.9 22-.4 22-.4s3.7-8.8 4.3-13.3c.6-4.6 2.3-14.8 3.6-20.6.9-4.5 6.8-25.5 9.7-39.7.3-3.6.9-7.3 1.5-10.5.5-11 1.7-32.9 2.1-38.7z" class="pant-right-shade"/>
  <path id="collar-right-shade_1_" d="M286.6 199.8s-7.2 5.2-7.4 9.6c-.2 4.4 2.7 6.9 4 8.4 1.3 1.5 3 1.4 3 1.4l.4-19.4z" class="random-shade"/>
  <path id="face-color_1_" d="M285.6 213.8s.1-18.6-.5-20.2c-.6-1.7-5-2.9-5.9-4.2-.9-1.2-4.6-6.6-6.4-11.7s-5.1-12.8-5.2-17.2c-.1-4.4-1.1-10.3-.7-12.8.4-2.5.4-4.3.1-6.7-.3-2.4-1.5-5.2-.4-9.3 1-4.2 2.6-11.3 3.3-13.3.6-2.1 8.8-14.6 13.9-17s17.6-5.7 31.9-4.1c23.2 3.9 25.3 31.8 24.8 39.1-.5 7.2-2.9 14.6-5 17.8-2 3.2-4.4 9-6.2 14.8-1.7 5.8-1.9 13.1-1.4 17.3.5 4.2.2 10.9.2 10.9s-17.5 17.6-23.4 20.5c-5.9 2.9-14.6 6.7-16.9 4.5-2.4-2.4-2.2-8.4-2.2-8.4z" class="skin-color"/>
  <linearGradient id="pant-left-shade_2_" x1="63.8582" x2="529.4271" y1="526.6788" y2="526.6788" gradientUnits="userSpaceOnUse">
    <stop offset="0" stop-opacity="0"/>
    <stop offset="1" stop-opacity=".2"/>
  </linearGradient>
  <path id="pant-left-shade" d="M357.1 413.4c-2.3-13.7-19.8-31.6-25.3-36.9-4.3 5.3-30.4 19-53.5 25-2.7.7-5.4 1.3-8 1.8-.1 0-.2 0-.3.1-.5.3-1 .7-1.5 1-7.6 4.5-14.6 15.1-17.5 16.2-2.8 1.1-17.1 6.5-21 9.4-3.9 2.9-17.6 10-24.5 12.2-2.9 1-10.1 3.7-17.6 6.6 0 0-25.7 3.7-34.4 21.7-4.2 8.7-7 15.2-8.7 19.6-1.9 4.7-2.7 7.1-2.7 7.1.4 11.2.9 23.2 1.3 24.8.6 2.8-6 14.9-7.5 18.8-.6 1.7-1.5 5-2.3 9.1v.6c-.1 2.4-.7 5.9-1.5 9.9-.2 2.2-.3 4.5-.3 6.6 0 9.9 3.3 37.5 3.6 42.8.4 5.3-3.5 10.3-5 12.6-1.5 2.3-12.2 8.6-12.8 13.1-.8 4.6.7 7.5 2.2 10 1.5 2.5 2.4 4 1.6 6.9-.7 2.8-4.1 9.3-4.1 9.3s17.8 6.3 19.8 8.5c2 2.3 7.3 7 13.4 6.9 6.1-.2 6.9-4.7 6.9-4.7s1.5-2.3 2.9-6.2c1.4-3.9-.9-8.1 2.3-10.6 3.3-2.6 8.7-3.4 10.1-9.1 1.5-5.7 6.8-49.7 7.8-53.7s10.6-43.8 11.2-51.3c.5-5 3.1-32.2 4.4-39.9 10.7-2.2 66.9-12.9 75.9-16.3 8.9-3.3 21.5-9 27.3-9.5 5.8-.5 23.6 1.3 31.4-1 7.8-2.4 16.7-5.2 19.3-10.5 2.6-5.5 9.3-34.6 7.1-50.9z" class="pant-left-shade"/>
  <path id="shirt-color" d="M377.6 269.7c-3.4-22.4-8.1-43.4-11.4-48.2-7.7-11.3-32.4-19.4-32.4-19.4-9.8-2.7-24.8 3.2-27.3 5.2-2.5 2.1-13.9 9-17.7 9.9-4.6.1-5.5.2-6.5-.8-.2-.3-.6-.3-.9 0-3.2 2.7-24.3 18.1-31.7 26.7-.4.4-.7.7-1 1.1-6.2 7.8-15 32.4-13.3 39.6 1.7 7.2-1.8 16.6-3.1 21.8s-2.3 15.7-3.5 21.7c-1.2 6.1-2.8 9.5-7.4 16-1.2 1.6-2.4 3.3-3.6 4.9-1.7.2-3.4.4-4.9.7-5.9 1.1-16.2 7.2-19.6 7.3-3.3.1-19.2 6-23.1 5-3.9-.9-1.6 16.6 3.7 17.7 1.7.4 11 2.1 15.4 2.4 3.9.5 26.1 5 38 2.6 1-.1 1.9-.3 2.7-.7-.8 2.7-1.3 4.9-1.3 5.7.1 2.5-4.4 17.6-4.5 21.5-.1 3.9-1.3 25.9 4.7 33.4 1.4 1.8 2.7 2 2.7 2s.4-9.2 6.1-15.4c1.5 4.4 4 9 8.7 11.9 10.6 6.5 15.3 9.4 27.2 6.3 12-3.2 27.8-7.8 45.2-5.6 17.4 2.3 31.8 5.7 36.9 4.1 11.9-17.9 10.5-89.2 12.7-102.8-7.1-19.4 12.6-52.2 9.2-74.6z" class="shirt-color"/>
  <path id="shirt-arm-right-shade" d="M239.7 350.2s-.3-7.2-.4-11.1c-.1-3.9 1.1-6.8 2.2-12.4 1.2-5.5 2.2-12.4 2.1-15.4h.2c-.1-11.4-.7-22.5-1.4-30-1.4-15.9 1.8-27 4-33.5.4-1.1 1.6-2.8 3.3-4.8-.4.4-.7.7-1 1.1-6.2 7.8-15 32.4-13.3 39.6 1.7 7.2-1.8 16.6-3.1 21.8s-2.3 15.7-3.5 21.7c-1.2 6.1-2.8 9.5-7.4 16-1.2 1.6-2.4 3.3-3.6 4.9-1.7.2-3.4.4-4.9.7-5.9 1.1-16.2 7.2-19.6 7.3-3.3.1-19.2 6-23.1 5-3.9-.9-1.6 16.6 3.7 17.7 1.7.4 11 2.1 15.4 2.4 3.9.5 26.1 5 38 2.6 1-.1 1.9-.3 2.7-.7 1.6-5.8 4.3-14 4.8-15.8.7-2.4 4.9-17.1 4.9-17.1z" class="random-shade"/>
  <linearGradient id="shirt-shade_2_" x1="233.5048" x2="388.5507" y1="259.3475" y2="414.3934" gradientUnits="userSpaceOnUse">
    <stop offset=".4" stop-opacity="0"/>
    <stop offset="1" stop-opacity=".3"/>
  </linearGradient>
  <path id="shirt-shade" d="M377.6 269.7c-3.4-22.4-8.1-43.4-11.4-48.2-7.7-11.3-32.4-19.4-32.4-19.4-9.8-2.7-24.8 3.2-27.3 5.2-2.5 2.1-13.9 9-17.7 9.9-4.6.1-5.5.2-6.5-.8-.2-.3-.6-.3-.9 0-4 3.3-33 25.4-35 31.5-2.3 6.5-5.4 17.6-4 33.5.7 7.5 1.3 18.6 1.4 30 .1 12.9-.3 26.1-1.9 34.7-3 16.2-2.9 41.8-3.8 48.2-.9 6.4-4.6 22.6-3.2 24.5.8 1 .9 6.3 2.8 11.8 1.5 4.4 4 9 8.7 11.9 10.6 6.5 15.3 9.4 27.2 6.3 12-3.2 27.8-7.8 45.2-5.6 17.4 2.3 31.8 5.7 36.9 4.1 11.9-17.9 10.5-89.2 12.7-102.8-7.1-19.6 12.6-52.4 9.2-74.8z" class="shirt-shade"/>
  <path id="collar-left-white_1_" d="M292.8 209.4s-.4 5.3-6.9 8.1c8.7.1 10.4-2.4 10.4-2.4 3.2 5.4 7.6 12.7 8.1 13.6.6 1.4 1.6 3.8 2.8 3 1.2-.9 7.1-9.8 11.7-13.9s13.5-11.4 16.1-12.7c2.6-1.2 4.6-2.4 4.6-2.4s-3.1-2.7-3.5-6.5c-.5-3.8-.6-8.4-6.2-7.3-5.7 1.1-16.2 5.8-21.3 9.3-5.3 3.6-15.8 11.2-15.8 11.2z" class="collar-color"/>
  <path id="collar-left-shade_1_" d="M292.8 209.4s-.4 5.3-6.9 8.1c8.7.1 10.4-2.4 10.4-2.4 3.2 5.3-3.5-5.7-3.5-5.7z" class="random-shade"/>
  <linearGradient id="nose-shade_2_" x1="-3650.2068" x2="-3650.2068" y1="-114.246" y2="-104.9875" gradientUnits="userSpaceOnUse" gradientTransform="matrix(0.8734 -0.2323 0.1585 0.5959 3487.7456 -618.3835)">
    <stop offset="0" stop-opacity="0"/>
    <stop offset="1" stop-opacity=".2"/>
  </linearGradient>
  <path id="nose-shade_1_" d="M272.4 163.8c.6.8 2.4 3.5 6.7 3.7s10.3-3.5 12.3-5.9l-19 2.2z" class="nose-shade"/>
  <linearGradient id="eye-right-shade_2_" x1="744.1699" x2="744.1699" y1="731.4503" y2="737.8887" gradientUnits="userSpaceOnUse" gradientTransform="matrix(-1.2306 0.467 -0.3563 -0.9684 1450.9791 505.9011)">
    <stop offset="0" stop-opacity="0"/>
    <stop offset="1" stop-opacity=".2"/>
  </linearGradient>
  <path id="eye-right-shade_1_" d="M274 138.7c-2.2.1-4.7 1.3-6.9 2.8.2 1.4.2 2.5.1 3.8l14.2-2.8c-.7-.9-3-3.8-7.4-3.8z" class="eye-right-shade"/>
  <linearGradient id="eye-left-shade_2_" x1="597.6783" x2="597.6783" y1="1163.7286" y2="1170.5721" gradientUnits="userSpaceOnUse" gradientTransform="matrix(1.2326 0.1752 0.1407 -0.9901 -605.2736 1191.1519)">
    <stop offset="0" stop-opacity="0"/>
    <stop offset="1" stop-opacity=".2"/>
  </linearGradient>
  <path id="eye-left-shade_1_" d="M285.7 142.2c.6-1.2 2.2-4.6 6.5-5.5 4.3-.9 10.7 2.4 13 5l-19.5.5z" class="eye-left-shade"/>
  <linearGradient id="neck-shade_2_" x1="293.7364" x2="293.7364" y1="568.9266" y2="596.9963" gradientUnits="userSpaceOnUse" gradientTransform="matrix(0.9925 -0.1219 -0.1219 -0.9925 78.863 809.1208)">
    <stop offset="0" stop-opacity="0"/>
    <stop offset=".9018" stop-opacity=".4"/>
  </linearGradient>
  <path id="chin-shade_1_" d="M284.1 192.5s13.6 1.7 29.1-13.6c0 0-1.1 7.5-9.8 12.6-8.7 5.1-11.7 8.1-13.4 11-1.7 2.8-4.3 8.1-4.3 8.1s.2-12.4-.5-17c-.1-.4-1.1-1.1-1.1-1.1z" class="neck-shade"/>
  <radialGradient id="ear-shade_2_" cx="332.8125" cy="146.125" r="12.3023" gradientTransform="matrix(6.123234e-17 -1 0.5 3.061617e-17 259.75 478.9375)" gradientUnits="userSpaceOnUse">
    <stop offset="0" stop-opacity=".2"/>
    <stop offset=".8629" stop-opacity="0"/>
  </radialGradient>
  <path id="ear-shade_1_" d="M325 133.1l5 6.6c.3-.1 2.1-.2 2.6 0 1.4.4 2.4 1.6 2.7 4.3s-.5 3.4-1.4 6.8c-.8 3.4-6.2 4.3-6.2 4.3l-6.5 3.4 18.8.6 4.4-26H325z" class="ear-shade"/>
  <path id="hair-color_1_" d="M341.6 122.8c-3.4-13.5-13-26.1-27.1-29.1-7.3-1.5-14.7-1.3-22 0-2.7.5-5.3 1-7.8 2-3.1 1.3-5.1 3.4-7.4 5.8-2.4 2.3-5.5 5.1-6.5 8.4-.6 2-.1 4.1.1 6.1 7.8-7.8 20.2-7.2 30.3-7.4 4.9-.1 14.6-2 15.1 4.9.3 4.4-2 8.3-2.4 12.6-.2 1.5-.1 2 1.1 2.9 1.8 1.2 2.6 2.7 3.8 4.6 2.1 3.4 2.1 6.4 1.8 10.2 0 .7-.3 1.5.1 2.1.4.8 1.9 1.5 2.6 2 .7-3.6 2.6-6.5 6.3-7.7 4.6-1.4 6.8 2 5.5 6.4-1.3 4.5-3.6 8.8-4.4 13.3-.5 3.1-1.1 6.1-1.6 9.2 2.8-5.2 5.5-10.5 7.9-15.9 3.7-9.2 6.9-20.5 4.6-30.4z" class="hair-color"/>
  <path id="blanket-white" d="M79.6 433.5c16.1-20.7 127.9-39.9 140.6-32.8 12.7 7.1 104.1 33.7 104.1 33.7l2.3 38c.4 5.7-3.3 10.9-8.8 12.7l-100.7 22.4L184 675.8c-1.4 6.5-3.5 19.5-9.5 20.9-3.7.9-10.6-7.9-14.3-9.7 0 0-46.9-16.9-46.7-28.6C100 660.1 59 614 59 614s-8.1-143.5 20.6-180.5z" class="blanket-color"/>
  <g id="blanket-shade">
    <linearGradient id="blanket-shade_2_" x1="78.2148" x2="265.1664" y1="435.2268" y2="586.6172" gradientUnits="userSpaceOnUse">
      <stop offset="0" stop-opacity=".1"/>
      <stop offset=".4" stop-opacity=".2"/>
      <stop offset=".6" stop-color="#231F20" stop-opacity=".2"/>
      <stop offset="1" stop-opacity=".5"/>
    </linearGradient>
    <path d="M79.6 433.5c16.1-20.7 127.9-39.9 140.6-32.8 12.7 7.1 104.1 33.7 104.1 33.7l2.3 38c.4 5.7-3.3 10.9-8.8 12.7l-100.7 22.4L184 675.8c-1.4 6.5-3.5 19.5-9.5 20.9-3.7.9-10.6-7.9-14.3-9.7 0 0-46.9-16.9-46.7-28.6C100 660.1 59 614 59 614s-8.1-143.5 20.6-180.5z" class="blanket-shade"/>
  </g>
  <g id="front-rest">
    <path d="M374.1 429c.3-9.9-3.5-16-6.8-19.4-3.9-4-9.1-6.4-14-6.4-6.6 0-90.2 4.7-102.4 8-12.3 3.3-24.5 16.3-22.5 37.3.7 7 3.4 12.4 8.1 16.1 7.9 6.2 18.3 5.2 20.3 4.9 3.6-.5 22.2-3 34.8-3.8 3.2-.2 5.9.6 8 2.5 3.4 3 4.8 8 4.9 11.3.3 6.4.5 47.4.5 47.8 0 1.8 1.5 3.3 3.3 3.3 1.8 0 3.3-1.5 3.3-3.4 0-1.7-.2-41.6-.5-48.1-.2-4.8-2.3-11.6-7.2-15.9-3.5-3.1-7.9-4.5-12.9-4.2-12.8.8-31.6 3.3-35.3 3.8-.9.1-9.4 1.1-15.3-3.5-.7-.6-1.4-1.3-2-2l128.7-13.1c-.2 35.6.2 114.5.2 118.5 0 1.8 1.5 3.3 3.3 3.3 1.8 0 3.3-1.5 3.3-3.4.2-1-.3-118.6.2-133.6zm-121.5-11.4c10.8-2.9 93.6-7.8 100.7-7.8 2.4 0 6.1 1.1 9.2 4.4 1 1.1 2.1 2.5 3 4.4l-128.4 13c3.3-7.6 9.4-12.4 15.5-14zM235 447.8c-.1-1.3-.2-2.5-.2-3.7l.3 4.3c-.1-.2-.1-.4-.1-.6z" class="wheelchair-light-gray"/>
    <path d="M353.6 404.3l-104.8 9c-3.4.3-6.3-2.7-6.3-6.4v-9.4c0-3.4 2.4-6.2 5.5-6.4l104.8-7.5c3.4-.2 6.2 2.7 6.2 6.4v7.9c0 3.4-2.3 6.2-5.4 6.4z" class="wheelchair-blue"/>
  </g>
  <g id="front-wheel">
    <path d="M446.1 444c-3.8-.9-7.7-1.4-11.5-1.4v11.2-11.2c-19 0-38.4 10.8-54.9 29l-2.8 1.6.4 1.1c-15.6 18.3-28.4 43.4-35.4 72.4-16 66.7 4.7 128.9 46.2 138.8 3.8.9 7.7 1.4 11.5 1.4 38.3 0 78.1-43.5 92.7-104.1 16-66.7-4.7-128.8-46.2-138.8zm32.5 54.1c6.2 19.6 7.4 42.8 3.6 66.9l-56.3-4.8 52.7-62.1zm-3.3-9.1l-52.4 60.4 19.3-92.6c.2.1.5.1.7.2 13.7 3.3 25 14.5 32.4 32zm-41.2-33l-19.5 87.4-26.4-61.3c.4-.4.7-.8 1.1-1.2 14.2-15.9 30.1-24.7 44.8-24.9zm-51.2 32.6l22.2 56.4c-3.8 2.2-7.3 7.2-9 13.6l-42.7-1.9 1.5-6.9c5.5-23.2 15.4-44.6 28-61.2zm-27.1 143.9c-6.5-20-7.8-44-3.8-68.7l43 3.6c.2 4.6 1.6 8.5 4 10.7l-43.2 54.4zm2.7 7.2l47.7-56.2-16.2 88.7c-13.3-3.6-24.3-15.1-31.5-32.5zm41.1 33.9c-.9 0-1.8 0-2.7-.1l20.4-97.5 30.1 69.9c-.8 1-1.6 1.9-2.5 2.8-14.4 16-30.5 24.9-45.3 24.9zm52.8-34.1l-27.6-69.9L481 572c-.5 2.6-1.1 5.2-1.7 7.8-5.4 22.5-14.8 43.2-26.9 59.7z" class="wheelchair-dary-gray"/>
    <path d="M436.9 437.5v14.1c3.1 0 6.2.4 9.2 1 16.9 3.9 30.6 18.7 38.5 41.7 8.7 25.3 9.2 56.6 1.3 88.2-7.1 28.6-20.5 54.5-37.7 72.9-15.8 17-33.5 26.3-49.7 26.3-3.1 0-6.2-.4-9.2-1-16.9-3.9-30.6-18.7-38.5-41.7-8.7-25.3-9.2-56.6-1.3-88.2 7.1-28.6 20.5-54.5 37.7-72.9 15.8-17 33.5-26.3 49.7-26.3v-14.1m-4.7 2.6c-39.9 0-81.4 44.9-96.5 107.4-16.7 68.8 4.9 132.9 48.1 143.2 4 .9 8 1.4 12 1.4 39.9 0 81.4-44.9 96.5-107.4 16.7-68.8-4.9-132.9-48.1-143.2-4-.9-8-1.4-12-1.4z" class="wheelchair-wheels"/>
    <path d="M442.1 457.7v6.8c2.6 0 5.2.3 7.6.9 14.7 3.5 26.3 17.1 32.7 38.3 6.8 22.5 6.8 50.4.1 78.5-6.1 25.6-17.4 48.9-31.8 65.6-13.6 15.8-28.8 24.6-42.8 24.6-2.6 0-5.2-.3-7.6-.9-14.7-3.5-26.3-17.1-32.7-38.3-6.8-22.5-6.8-50.4-.1-78.5 6.1-25.6 17.4-48.9 31.8-65.6 13.6-15.8 28.8-24.6 42.8-24.6v-6.8m0 0c-32.9 0-67.9 40-81.2 95.4-14.5 60.6 2.4 116.6 37.8 125.1 3.1.7 6.1 1.1 9.2 1.1 32.9 0 67.9-40 81.2-95.4 14.5-60.6-2.4-116.6-37.8-125.1-3-.7-6.1-1.1-9.2-1.1z" class="wheelchair-light-gray"/>
    <ellipse cx="425" cy="568.5" transform="matrix(0.2334 -0.9724 0.9724 0.2334 -227.0195 849.1159)" class="wheelchair-med-gray" rx="18.4" ry="10.7"/>
  </g>
  <path id="shirt-left-arm-color" d="M363.1 325.3c.6-6 2.9-11.2 3.7-15.6.8-4.6 2.1-10.9 2.1-17.6 0-6.7.5-32.2.9-35.1.5-2.9-.4-36-20-36-20 0-21.7 12.9-26.5 22.2-4.6 9.2-7.6 35.5-3.8 42.2 3.8 6.7 2.6 16.7 2.6 22.2s1.7 16 2.1 22.2c.4 6.2-.5 10-3.8 17.6-.8 1.9-1.7 3.8-2.6 5.7-1.8.6-3.5 1.2-5.1 1.9-6.1 2.5-15.7 11-19.3 11.9-3.6.9-19.3 10.6-23.7 10.6-4.5 0 2.8 16.7 8.7 16.5 2 0 12.5-.6 17.4-1.4 4.3-.4 29.6-1.4 41.9-6.7 3.7-1.1 5.4-4.1 7.3-4.8 4.8-2 18.9-56.6 18.1-55.8z" class="shirt-color"/>
  <path id="left-hand-color" d="M249.1 383.6c5-1.5 20.3-9.1 24.3-4.5 1.9 2.2 4.5 9.5 4.6 12.3.2 3.4-2.7 4.7-5.5 7.3-5.5 5.1-10 10.9-16.2 15-5.5 3.6-11.4 6.7-18 4.8-6.3-1.8-10.1-4.9-9.9-11.9.2-6.4 7.4-10.1 11.1-14.7 2-2.5 5.8-8.8 9.6-8.3z" class="skin-color"/>
</svg>
