<?xml version="1.0" encoding="utf-8"?>
<?xml-stylesheet href="../styles/viewer-avatars.css" type="text/css"?>
<!-- Generator: Adobe Illustrator 18.1.0, SVG Export Plug-In . SVG Version: 6.00 Build 0)  -->
<svg version="1.1" id="hair" class="avatar-client skin-darker" xmlns="http://www.w3.org/2000/svg" xmlns:xlink="http://www.w3.org/1999/xlink" x="0px" y="0px"
	 viewBox="0 0 214.4 757.6" style="enable-background:new 0 0 214.4 757.6;" xml:space="preserve">
<path id="right-hand" style="fill:#C48E62;" d="M25.6,360.7l9.3,12.4c0,0,4.3-7.2,6-9.4c1.7-2.3,4.6-6.8,4.6-6.8s-2.3-2.3-5-7.9
	c-2.7-5.7-3.3-7.2-3.3-7.2l-1.3-1.9C35.9,339.9,26.6,355.4,25.6,360.7z"/>
<path style="fill:#D1D1D2;" d="M104.6,107.5c0,0-7.6-2.3-10-0.7c-2.3,1.7-10,11-10,11s-3,2.7-3.7,4.3c-0.7,1.7-7.6,11.3-7.6,11.3
	l-2.7,4.3c0,0,7.6-6.6,12.6-9.6c5-3,2.7-5,7-5c4.3,0,9,0,10.3-2.3C102,118.4,104.6,107.5,104.6,107.5z"/>
<path style="fill:#BABCBE;" d="M94.6,105.8c0,0-8.2,6.2-8.4,10.6c-0.2,4.4,2.7,6.9,4,8.4c1.3,1.5,8,4.4,8,4.4s2.9-17,2-18.1
	C99.2,110,94.6,105.8,94.6,105.8z"/>
<path id="face" style="fill:#C48E62;" d="M93.9,117.1c0,0,2.4-18.4,2-20.1c-0.4-1.8-4.6-3.5-5.3-4.9c-0.7-1.3-3.8-7.1-4.9-12.4
	c-1.1-5.3-3.5-13.3-3.1-17.7c0.4-4.4,0.2-10.4,0.9-12.8c0.7-2.4,0.9-4.2,0.9-6.6c0-2.4-0.9-5.3,0.7-9.3c1.5-4,4-10.9,4.9-12.8
	c0.9-2,5.5-10.2,15.5-12.2c10-2,24.1-2,31.9,1.8c7.7,3.8,13.3,3.5,16.6,10.9c3.3,7.3,2.7,24.1,2.7,26.8c0,2.7-3.5,13.3-6,16.2
	c-2.4,2.9-5.5,8.4-8,13.9c-2.4,5.5-3.5,12.8-3.5,17c0,4.2-1.1,10.8-1.1,10.8s-19.5,15.3-25.7,17.5c-6.2,2.2-15.3,4.9-17.3,2.4
	C93,123.1,93.9,117.1,93.9,117.1z"/>
<path style="fill:#E6E6E5;" d="M89.3,135c0,0,2-3.5,2.7-8.4c0.7-4.9,0.7-8.9,4.9-10.8c4.2-2,9.7-4.7,16.4-5.3
	c6.6-0.7,11.7,22.6,8.4,28.1C118.3,144.1,86.4,139.9,89.3,135z"/>
<path style="fill:#603913;" d="M57.6,663.2c0,0-4.9,3.1-7.1,6.6c-2.2,3.5-3.1,6.6-8.4,8c-5.3,1.3-8.9,4.9-11.5,5.8
	c-2.7,0.9-7.5-0.4-12.4,4.9c-4.9,5.3-6.2,4.4-6.2,9.3c0,4.9,4,8.4,12.4,9.3c8.4,0.9,21.7,0.4,34.5-4.9c12.8-5.3,12.4-4.9,21.7-5.3
	c9.3-0.4,22.1-1.8,26.6-5.7c4.4-4,3.1-9.3,3.1-9.3s-0.9-12.8-8.9-18.2C93.5,658.3,57.6,663.2,57.6,663.2z"/>
<path style="fill:#754C29;" d="M148.4,697.7c0,0-0.9,8.4-1.8,11.1c-0.9,2.6-7.5,11.1-8,12.8c-0.4,1.8-1.8,7.5-3.1,9.7
	c-1.3,2.2-4.4,8-4.4,10.2c0,2.2-0.9,7.5,1.3,10.6c2.2,3.1,18.2,9.3,30.6,2.2c12.4-7.1,16.8-14.6,18.1-19c1.3-4.4,8-14.6,8.4-16.4
	c0.4-1.8,1.3-14.2-1.3-23.5C185.5,686.2,151,689.3,148.4,697.7z"/>
<linearGradient id="SVGID_1_" gradientUnits="userSpaceOnUse" x1="35.4624" y1="517.5582" x2="117.4633" y2="517.5582">
	<stop  offset="0" style="stop-color:#6A787F"/>
	<stop  offset="0.4831" style="stop-color:#627279"/>
	<stop  offset="0.681" style="stop-color:#5D6F76"/>
</linearGradient>
<path style="fill:url(#SVGID_1_);stroke:#646767;stroke-width:5.725200e-02;stroke-miterlimit:10;" d="M35.5,363.5
	c0,0,0,22.1,1.8,27.9c1.8,5.8,12,56.7,13.3,66c1.3,9.3,5.3,19.9,4.9,26.1c-0.4,6.2-2.7,24.4-1.8,31.4c0.9,7.1,4.9,19,6.2,26.6
	c1.3,7.5,1.3,14.6,3.5,28.3c2.2,13.7,6.2,31.4,4.9,34.5c-1.3,3.1-8.4,26.6-7.5,30.5c0.9,4,7.1,12.8,7.1,12.8l-4.9,1.3
	c0,0-8.9,13.3-8,14.6c0.9,1.3,22.1,16.8,31,17.7c8.8,0.9,23-3.5,23-3.5s2.7-9.7,2.7-14.6c0-4.9,0.4-15.9,0.9-22.1
	c0.4-6.2,5.8-42.1,4.9-53.6c-0.9-11.5-2.7-35.4-3.1-41.6c-0.4-6.2-4-24.8-3.5-31.9c0.4-7.1-0.9-28.8,1.3-36.3
	c2.2-7.5-3.5-14.6-2.6-41.6c0.9-27-9.7-65.1-14.6-69.9c-4.9-4.9-19.5-13.3-27.4-12.4C59.4,354.6,36.8,355.1,35.5,363.5z"/>
<linearGradient id="SVGID_2_" gradientUnits="userSpaceOnUse" x1="35.4624" y1="517.5582" x2="117.4633" y2="517.5582">
	<stop  offset="0" style="stop-color:#C2B59B"/>
	<stop  offset="1" style="stop-color:#9A857A"/>
</linearGradient>
<path style="fill:url(#SVGID_2_);" d="M35.5,363.5c0,0,0,22.1,1.8,27.9c1.8,5.8,12,56.7,13.3,66c1.3,9.3,5.3,19.9,4.9,26.1
	c-0.4,6.2-2.7,24.4-1.8,31.4c0.9,7.1,4.9,19,6.2,26.6c1.3,7.5,1.3,14.6,3.5,28.3c2.2,13.7,6.2,31.4,4.9,34.5
	c-1.3,3.1-8.4,26.6-7.5,30.5c0.9,4,7.1,12.8,7.1,12.8l-4.9,1.3c0,0-8.9,13.3-8,14.6c0.9,1.3,22.1,16.8,31,17.7
	c8.8,0.9,23-3.5,23-3.5s2.7-9.7,2.7-14.6c0-4.9,0.4-15.9,0.9-22.1c0.4-6.2,5.8-42.1,4.9-53.6c-0.9-11.5-2.7-35.4-3.1-41.6
	c-0.4-6.2-4-24.8-3.5-31.9c0.4-7.1-0.9-28.8,1.3-36.3c2.2-7.5-3.5-14.6-2.6-41.6c0.9-27-9.7-65.1-14.6-69.9
	c-4.9-4.9-19.5-13.3-27.4-12.4C59.4,354.6,36.8,355.1,35.5,363.5z"/>
<linearGradient id="SVGID_3_" gradientUnits="userSpaceOnUse" x1="65.1264" y1="524.1641" x2="200.5811" y2="524.1641">
	<stop  offset="0" style="stop-color:#C2B59B"/>
	<stop  offset="1" style="stop-color:#9A857A"/>
</linearGradient>
<path style="fill:url(#SVGID_3_);" d="M65.1,366.6c0,0,2.2,9.7,4,23.4c1.8,13.7,5.8,22.1,7.1,26.1c1.3,4,10.2,9.7,14.2,18.1
	c4,8.4,14.6,16.8,15.5,19.9c0.9,3.1,5.3,18.6,8,23c2.7,4.4,8.9,19.5,10.6,27c1.8,7.5,11.9,41.6,13.3,44.3c1.3,2.7-2.2,16.8-2.7,21.2
	c-0.4,4.4,0,17.7,2.7,27.9c2.6,10.2,13.3,37.6,15,42.9c1.8,5.3-0.9,11.5-1.8,14.2c-0.9,2.7-10.2,12-9.7,16.8
	c0.4,4.9,2.7,7.5,4.9,9.7c2.2,2.2,3.5,3.5,3.5,6.6c0,3.1-1.8,10.6-1.8,10.6s19.9,1.8,22.6,3.5c2.7,1.8,9.3,5.3,15.5,3.5
	c6.2-1.8,5.8-6.6,5.8-6.6s0.9-2.7,1.3-7.1c0.4-4.4-3.1-8-0.4-11.5c2.7-3.5,8-5.8,8-12c0-6.2-6.2-52.7-6.2-57.1
	c0-4.4-3.5-49.6-4.9-57.5c-1.3-8-2.2-22.6-3.5-34.1c-1.3-11.5-7.5-71.7-10.2-81.5c-2.7-9.7-7.5-23.5-7.5-29.7
	c0-6.2,3.5-24.8,1.8-33.2c-1.8-8.4-4-18.1-9.3-21.3c-5.3-3.1-35.4-12.8-52.7-12C90.8,343.1,65.1,366.6,65.1,366.6z"/>
<path id="left-hand" style="fill:#C48E62;" d="M88.5,363.5c0,0,5,9.6,12.3,11.6c7.3,2,19.3,1,21.9-0.7c2.7-1.7,4-2,4-2v2
	c0,0-4.3,8-12.6,9.3c-8.3,1.3-12,1.7-17.3-1c-5.3-2.6-10-7.6-10-13.3C86.9,363.8,86.9,361.8,88.5,363.5z"/>
<path style="fill:#53515F;" d="M62.5,151.4c0,0-12,11.5-14.2,21.3c-2.2,9.7,0,24.3-0.4,27.9c-0.4,3.5-4,18.6-4,21.7
	c0,3.1-1.3,10.2-2.7,15.9c-1.3,5.8-2.7,8.8-2.7,12.8c0,4,0,11.5,0,11.5s-4.9,15.1-5.8,17.7c-0.9,2.7-7.1,19.5-7.1,22.1
	c0,2.6-1.3,13.3-4,16.8c-2.7,3.5-8,12.8-8.4,15.9c-0.4,3.1,0.4,9.7,3.1,14.6c2.7,4.9,6.6,7.5,7.5,9.7c0.9,2.2,2.7,2.2,2.7,2.2
	s0.4-7.5,4-12c3.5-4.4,1.8-6.6,4.9-7.1c3.1-0.4,10.2-5.7,10.2-5.7l9.7-35.4l7.1-56.2l4-47.4L62.5,151.4z"/>
<path style="fill:#5E5B69;" d="M90.4,127.7c0,0-29.9,21.9-32.5,28.6c-2.7,6.6-6.6,17.9-6,34.5c0.7,16.6,0,50.5-4,67.1
	c-4,16.6-5.3,43.2-6.6,49.8c-1.3,6.6-6,23.2-4.6,25.2c1.3,2,0,17.9,10.6,25.2c10.6,7.3,15.3,10.6,27.9,8c12.6-2.7,29.2-6.6,47.2-3.3
	c17.9,3.3,34.5,8.6,39.8,7.3c5.3-1.3,10,2,7.3-6.6c-2.7-8.6-4.6-15.3-5.3-22.6c-0.7-7.3-6.6-9.3-6.6-13.3c0-4-8-8.6-0.7-27.2
	c7.3-18.6,23.9-97.6,25.2-104.2c1.3-6.6,0-50.5,0-50.5l-2.7-9.3c0,0-21.2-19.3-31.2-22.6c-10-3.3-27.2,2.7-29.9,4.6
	c-2.7,2-9.3,8.6-13.3,9.3C101,128.4,90.4,127.7,90.4,127.7z"/>
<path style="fill:#5E5B69;" d="M170,134.1c20.8,0,21.7,35,21.2,38.1c-0.4,3.1-0.9,30.1-0.9,37.2c0,7.1-1.3,13.7-2.2,18.6
	c-0.9,4.9-3.5,10.6-4,17.3c-0.4,6.6,0,28.8-1.8,34.1c-1.8,5.3-7.5,18.1-14.6,27.9c-7.1,9.7-19.9,31.9-23.9,36.7
	c-4,4.9-12,10.2-14.6,12c-2.7,1.8-1.8,2.6-3.1,3.5c-1.3,0.9-1.3,0.9-1.3,0.9l0.9,13.3c0,0-7.1,9.3-19.5,4.4
	c-12.4-4.9-17.7-13.7-17.7-13.7s7.1-8.4,7.1-11.5c0-3.1-1.8-7.1-1.8-7.1s2.2-2.7,6.6-7.1c4.4-4.4,4-10.6,7.1-14.2
	c3.1-3.5,8.4-7.1,10.2-10.6c1.8-3.5,9.3-17.3,11.5-23.9c2.2-6.6,6.2-14.2,9.7-22.1c3.5-8,4.4-12,4-18.6c-0.4-6.6-2.2-17.7-2.2-23.5
	c0-5.8,1.3-16.4-2.7-23.5c-4-7.1-0.9-35,4-44.7C147,147.8,148.8,134.1,170,134.1z"/>
<path style="fill:#F2F2F2;" d="M101.6,113.6c0,0,8.6,19,9.1,20.6c0.4,1.5,1.1,4,2.4,3.3c1.3-0.7,8.2-8.9,13.3-12.4
	c5.1-3.5,14.8-9.7,17.5-10.6c2.7-0.9,4.9-1.8,4.9-1.8s-2.7-3.1-2.7-6.9c0-3.8,0.4-8.4-5.3-8c-5.8,0.4-16.8,3.8-22.3,6.6
	C112.9,107.4,101.6,113.6,101.6,113.6z"/>
<g id="face-shadows">

		<linearGradient id="SVGID_4_" gradientUnits="userSpaceOnUse" x1="503.1241" y1="-354.9155" x2="503.1241" y2="-361.7589" gradientTransform="matrix(1.2021 0.3241 -0.2603 0.9656 -585.2136 228.2952)">
		<stop  offset="0" style="stop-color:#000000;stop-opacity:0"/>
		<stop  offset="0.8561" style="stop-color:#000000;stop-opacity:0.3424"/>
		<stop  offset="1" style="stop-color:#000000;stop-opacity:0.4"/>
	</linearGradient>
	<path style="fill:url(#SVGID_4_);" d="M102.7,46.1c0.7-1.1,2.7-4.3,7.1-4.7c4.4-0.4,10.3,3.7,12.3,6.5"/>

		<linearGradient id="SVGID_5_" gradientUnits="userSpaceOnUse" x1="-3867.1436" y1="1114.017" x2="-3867.1436" y2="1104.7557" gradientTransform="matrix(0.8952 -0.1241 -8.470000e-02 -0.6108 3652.4824 265.1407)">
		<stop  offset="0" style="stop-color:#000000;stop-opacity:0"/>
		<stop  offset="1" style="stop-color:#000000;stop-opacity:0.4"/>
	</linearGradient>
	<path style="fill:url(#SVGID_5_);" d="M86.9,65.9c0.5,0.9,2,3.8,6.2,4.5c4.2,0.7,10.6-2.2,12.9-4.4"/>
	<g>

			<linearGradient id="SVGID_6_" gradientUnits="userSpaceOnUse" x1="1369.4899" y1="-153.1343" x2="1369.4899" y2="-159.5727" gradientTransform="matrix(-1.2783 0.3136 0.2356 1.0046 1878.1833 -228.0107)">
			<stop  offset="0" style="stop-color:#000000;stop-opacity:0"/>
			<stop  offset="0.8561" style="stop-color:#000000;stop-opacity:0.3424"/>
			<stop  offset="1" style="stop-color:#000000;stop-opacity:0.4"/>
		</linearGradient>
		<path style="fill:url(#SVGID_6_);" d="M91.5,41.2c-2.2-0.2-4.8,0.7-7.2,1.9c0,1.4-0.1,2.5-0.4,3.8l14.4-1.1
			C97.8,44.9,95.9,41.7,91.5,41.2z"/>
	</g>
	<linearGradient id="SVGID_7_" gradientUnits="userSpaceOnUse" x1="109.9377" y1="113.8974" x2="109.9377" y2="85.8277">
		<stop  offset="0" style="stop-color:#000000;stop-opacity:0"/>
		<stop  offset="0.9018" style="stop-color:#000000;stop-opacity:0.4"/>
	</linearGradient>
	<path style="fill:url(#SVGID_7_);" d="M95,95.8c0,0,13.3,3.3,30.5-10c0,0-2,7.3-11.3,11.3c-9.3,4-12.6,6.6-14.6,9.3
		c-2,2.6-5.3,7.5-5.3,7.5S96,101.6,95.9,97C95.9,96.6,95,95.8,95,95.8z"/>
</g>
<path id="hair" style="fill:#221F1F;" d="M160.6,33.6c-0.9-7.3-4.1-15.9-7.6-20.1c-0.4-0.5-0.8-1-1.2-1.4
	c-2.9-3.6-5.9-7.3-10.9-9.3c-3.7-1.5-10.5-4.2-21.6-4.2c-2.5,0-5.2,0.1-7.9,0.4c-0.2,0-5.9,0.7-8.3,2.7c-0.8,0.6-1.7,1.3-2.6,2
	c-2,1.5-4.2,3.2-5.8,4.8c-2.2,2.2-2.6,3.1-3,3.9l-0.1,0.3c-0.5,0.9-0.4,4.6-0.4,5l0,0.5l0.4-0.3c0,0,4.2-2.8,8.1-3.5
	c3.9-0.7,9.4-1.1,9.4-1.1c0.1,0,14.2,1.3,18.1,1.8c0.5,0.1,1,0.1,1.5,0.2c2.8,0.3,4,0.4,5.7,1.4c1.9,1.1,2.1,2,2.1,4.2
	c0,2-1,5.4-2.4,8.5c-1.7,3.6-2.2,5.8-1.5,6.5c0.2,0.2,0.5,0.4,0.7,0.5c0.7,0.4,1.5,0.8,2.1,2.5c0.3,0.9,0.7,1.7,1.1,2.5
	c0.6,1.3,1.2,2.5,1.3,3.9c0.2,2.2-1.1,8.3-1.1,8.3l0,0.1l2.5,2.5c0.2-0.6,0.4-1.2,0.6-1.6c0.5-1.4,1.2-2.1,1.8-2.6l0.2-0.4
	c0.2-0.2,1.3-1.2,2.6-1.6c1.6-0.9,4.6-1,5.7-0.4c1.3,0.7,2,2.4,1.5,4.9c-0.4,2.4-1.5,3.1-2.4,5.5c-0.8,2.1-2,4.6-3.4,6.5
	c-1.4,4.8-2.9,9.8-3,9.9l-0.5,1.6l1-1.4c0.1-0.1,10.2-14.5,12.9-21.5l0.2-0.5C158.9,47.7,161.4,41.1,160.6,33.6z"/>
</svg>
