<?xml version="1.0" encoding="utf-8"?>
<?xml-stylesheet href="../styles/viewer-avatars.css" type="text/css"?>
<!-- Generator: Adobe Illustrator 18.1.0, SVG Export Plug-In . SVG Version: 6.00 Build 0)  -->
<svg version="1.1" id="Guide_-_Female_-_Front" class="avatar-guide skin-darker" xmlns="http://www.w3.org/2000/svg" xmlns:xlink="http://www.w3.org/1999/xlink"
	 x="0px" y="0px" viewBox="0 0 214.4 757.6" style="enable-background:new 0 0 214.4 757.6;" xml:space="preserve">
<path id="hair-back" style="fill:#37302E;" d="M73.5,53.7c0,0-7.4,65.1,0.3,75.4c7.7,10.2,62.8,37.1,71.5,18.9
	c8.7-18.1,10.2-44.2,10.2-50c0-5.8-6.5-31.2-8-37c-1.5-5.8-6.5-21.8-14.5-24.7C125,33.4,73.5,53.7,73.5,53.7z"/>
<path id="face" style="fill:#F5CAB3;" d="M148.4,145.4c-1.5-14.2-2.8-22-6-26.8c-3.3-4.8-9.8-3.1-10.6-11.3
	c-0.3-3.7-0.9-9.1-1.5-13.9c2.4-3.3,4.4-6.7,5.3-8.6c1.2-2.6,2.5-8.1,3.2-14.7c1.3-0.5,5.2-2.2,5.5-5.1c0.4-3.5,1.1-4.3,0.4-6.9
	c-0.7-2.6-3.3-3.9-3.3-3.9l-2.3,0.8c-0.7-10-2.8-22.4-3.9-26.3c-1.4-5-3.3-11.3-8-16c-4.7-4.7-9.1-6.4-9.1-6.4s-6.1,0.3-14.4,0
	C95.3,6,91.2,15.1,84.3,23.4c-6.9,8.3-3.8,35.7-4.1,47.3c-0.3,11.6,3,13.9,7.2,19.7c1.1,1.6,2.6,3.5,4.4,5.6
	c-1.3,7-2.8,15.2-3.4,17.9c-0.6,2.7-1.4,5.2-2.2,6.6c-2.4,4.2,0.9,11.9,0,20.7c-0.9,8.7-1.9,28.9,1.6,31.9c3.5,3,1.7,2.1,17.7,2.4
	c16,0.3,21.4,0,25.5-2.7C135.1,170,149.9,159.6,148.4,145.4z"/>
<g id="face-shadows">
	<linearGradient id="face-neck_1_" gradientUnits="userSpaceOnUse" x1="116.859" y1="175.4463" x2="116.859" y2="93.3436">
		<stop  offset="0" style="stop-color:#FFFFFF;stop-opacity:0"/>
		<stop  offset="1" style="stop-color:#766359;stop-opacity:0.2"/>
	</linearGradient>
	<path id="face-neck" style="fill:url(#face-neck_1_);" d="M148.4,145.4c-1.5-14.2-2.8-22-6-26.8c-3.3-4.8-9.8-3.1-10.6-11.3
		c-0.3-3.7-0.9-9.1-1.5-14c-2,2.8-4.3,5.4-6.5,7c-4.7,3.3-8.7,7-15.1,6.9c-6-0.1-12.4-5.9-17-11.2c-1.3,7-2.8,15.2-3.4,17.9
		c-0.6,2.7-1.4,5.2-2.2,6.6c-2.4,4.2,0.9,11.9,0,20.7c-0.9,8.7-1.9,28.9,1.6,31.9c3.5,3,1.7,2.1,17.7,2.4c16,0.3,21.4,0,25.5-2.7
		C135.1,170,149.9,159.6,148.4,145.4z"/>
	<linearGradient id="face-ear_1_" gradientUnits="userSpaceOnUse" x1="141.8785" y1="70.0694" x2="141.8785" y2="54.1672">
		<stop  offset="0" style="stop-color:#766359;stop-opacity:0.4"/>
		<stop  offset="0.5207" style="stop-color:#FFFFFF;stop-opacity:0"/>
		<stop  offset="1" style="stop-color:#766359;stop-opacity:0.2"/>
	</linearGradient>
	<path id="face-ear" style="fill:url(#face-ear_1_);" d="M138.8,70.1c0,0,5.2-1.6,5.5-5.1c0.4-3.5,1.1-4.3,0.4-6.9
		c-0.7-2.6-3.3-3.9-3.3-3.9l-2.3,0.8L138.8,70.1z"/>
	<linearGradient id="face-eye-2_1_" gradientUnits="userSpaceOnUse" x1="124.7231" y1="54.0689" x2="124.7231" y2="46.6731">
		<stop  offset="0" style="stop-color:#FFFFFF;stop-opacity:0"/>
		<stop  offset="0.9204" style="stop-color:#766359;stop-opacity:0.2"/>
	</linearGradient>
	<path id="face-eye-2" style="fill:url(#face-eye-2_1_);" d="M115.1,52.5c0.8-1.3,3.1-5.2,7.5-5.8c4.4-0.6,9.9,4.1,11.7,7.3"/>
	<linearGradient id="face-nose_1_" gradientUnits="userSpaceOnUse" x1="107.5318" y1="76.7175" x2="107.5318" y2="72.749">
		<stop  offset="0" style="stop-color:#766359;stop-opacity:0.2"/>
		<stop  offset="1" style="stop-color:#FFFFFF;stop-opacity:0"/>
	</linearGradient>
	<path id="face-nose" style="fill:url(#face-nose_1_);" d="M114.6,72.7c-0.4,0.8-1.6,3.2-4.7,3.9c-3.2,0.6-7.8-1.7-9.5-3.5"/>
	<linearGradient id="face-eye-1_1_" gradientUnits="userSpaceOnUse" x1="95.3238" y1="54.3806" x2="95.3238" y2="46.6627">
		<stop  offset="0" style="stop-color:#FFFFFF;stop-opacity:0"/>
		<stop  offset="0.9204" style="stop-color:#766359;stop-opacity:0.2"/>
	</linearGradient>
	<path id="face-eye-1" style="fill:url(#face-eye-1_1_);" d="M85.8,54.4c0.5-1.4,1.9-5.8,6.1-7.3c4.2-1.6,10.6,1.9,13,4.6"/>
</g>
<path id="hair-front" style="fill:#423B38;" d="M172.2,134.4c-0.1-1.1-0.7-7.8-5.1-18.7c-4.4-10.9-0.4-6.3-6.3-27.7
	c-6-21.5-7.9-34-12.5-50c-4.6-16.1-11.3-25.8-17.3-30.7c-6-4.9-9.7-6.2-11.9-5.4c-1.8,0.6-3.1,1.7-4,3c0-0.8-0.1-1.6-0.2-2.1
	c-0.5-2.2-2.2-1.7-8.2-2.5c-6-0.8-15.5,4.1-22.3,9C77.6,14,71.6,30.5,68.9,39.3c-2.7,8.7-6,44.1-6.5,50.9c-0.5,6.8-3.8,19-8.4,28.6
	c-4.6,9.5-7.8,17.3-8.7,19.8c-0.8,2.5,8.9-7,17.4-7.5c8.4-0.6,9.8-7.3,12.2-15.2c2.5-7.9,5.2-8.2,7.9-18.2
	c2.7-10.1,0.3-9.1,0.3-20.2c0-11.2,1.1-29,2.4-34.4c1.4-5.4,2.7-10.9,10.3-16.6c7.6-5.7,11.2-4.6,15-6.8c2.1-1.2,3.1-3.4,3.6-5.2
	c0.9,2.7,2.6,5.3,4.8,7.1c3.3,2.7,6,5.2,7.6,9c1.6,3.8,3.5,9,5.7,13.3c2.2,4.4,1.3,8.4,6.4,12.8c5.2,4.4,4.4,2.7,6.9,6.5
	c2.5,3.8,2.1,6.3,0.7,17.4c-1.4,11.1-6.4,16.9-4.8,23.9c1.6,7.1-3.8,10.6,5.2,16.9C156,127.4,173,143.9,172.2,134.4z"/>
<g id="shoes">
	<path id="shoe-right" style="fill:#231F20;" d="M99.2,717.5c0-1.2-0.8-11.9-0.8-11.9s0.2-2.7,0.5-6.1H72.5
		c-1.4,3.7-2.7,7.4-3.8,10.5c-3.6,10.3-3.6,17.4-2.4,28.1c1.2,10.7,3.6,12.7,7.9,16.6c4.4,4,7.6,3,14.3,2.4
		c9.1-0.9,13.5-17,13.5-18.2c0-1.2-0.4-8.3-0.4-9.5C101.6,728.2,99.2,718.7,99.2,717.5z"/>
	<path id="shoe-left" style="fill:#231F20;" d="M142.3,733.3c-1.2-5.5-2.4-13.5-2.4-13.5l-4.5-20.4h-27.6c0,7.8,0.8,13.3,0.4,16
		c-0.4,2.8-3.2,17.8-3.2,20.6s2.4,6.3,5.1,10.7c2.8,4.4,6.8,10,15.5,9.8c3.8-0.1,9.5-1.5,13-7.4
		C142.3,743.2,143.5,738.8,142.3,733.3z"/>
</g>
<g id="feet">
	<path id="foot-right" style="fill:#F5CAB3;" d="M99.4,693.5h-28c0.1,0.4,0.1,0.8,0.1,1c0,1.6-2.4,13.5-2.8,15.4
		c-0.4,2-1.2,14.6,1.6,23.7c2.8,9.1,21,3.2,24.5,2.4c3.6-0.8,4-1.6,4.4-4.4c0.4-2.8-0.4-5.9-0.8-8.3c-0.4-2.4-0.8-14.2,0-17.8
		C98.8,703.7,99.3,698.4,99.4,693.5z"/>
	<path id="foot-left" style="fill:#F5CAB3;" d="M138,705.2c0-2.8-0.8-6.3-0.8-6.3s-0.3-2.8-0.1-5.4h-26.6c-0.2,5.2-0.3,11-0.3,14.9
		c0,7.4-0.3,12.5-1.1,16.2c-0.8,3.6-3.2,7.2-0.5,8.4c2.8,1.2,19.4,6.3,25.3,2c5.9-4.3,5.9-4.3,5.9-10.3C140,718.6,138,708,138,705.2
		z"/>
</g>
<linearGradient id="pants-left_1_" gradientUnits="userSpaceOnUse" x1="98.4215" y1="523.9534" x2="185.851" y2="520.9003">
	<stop  offset="0" style="stop-color:#59595B"/>
	<stop  offset="0.5508" style="stop-color:#939597"/>
	<stop  offset="0.773" style="stop-color:#8F9193"/>
	<stop  offset="0.98" style="stop-color:#848588"/>
	<stop  offset="1" style="stop-color:#828487"/>
</linearGradient>
<path id="pants-left" style="fill:url(#pants-left_1_);" d="M175,350.2c-5.4-8.1-39.2-13.6-68.2-16.9l-1.8,67.4
	c1.8,4.3,3.2,20.7,3.2,27.8c0,7.1,2.1,42.7,2.1,55.2c0,12.5,1.2,39.8,1.2,46.3c0,6.5-3.2,84.3-2,96.2c1.2,11.9-5.1,58.8-5.1,66.5
	c0,7.7,1.8,15.4,1.8,15.4s10.1,4.7,21.4,4.7c11.3,0,11.9,0.6,13.7-3c1.8-3.6,0.6-14.3,4.1-33.2c3.6-19,8.9-49.3,9.5-66.5
	c0.6-17.2,1.4-25.6,3-45.7c1.6-20.5,0-24.9,4.1-52.8c4.2-27.9,14.3-79,16-100.3C179.7,390,184.5,364.5,175,350.2z"/>
<linearGradient id="pants-right_1_" gradientUnits="userSpaceOnUse" x1="44.1096" y1="523.4516" x2="124.4459" y2="516.4231">
	<stop  offset="0" style="stop-color:#5C5D5F"/>
	<stop  offset="9.471157e-04" style="stop-color:#5D5D5F"/>
	<stop  offset="0.1112" style="stop-color:#707072"/>
	<stop  offset="0.2258" style="stop-color:#7F7F82"/>
	<stop  offset="0.3473" style="stop-color:#88898C"/>
	<stop  offset="0.4863" style="stop-color:#8B8C8F"/>
	<stop  offset="0.8986" style="stop-color:#858689"/>
	<stop  offset="1" style="stop-color:#828487"/>
</linearGradient>
<path id="pants-right" style="fill:url(#pants-right_1_);" d="M63.4,330.1c-3.6,0.6-30.9,21.4-30.9,21.4s-2.8,29.5,4.8,85.5
	c7.4,55.2,7.4,55.2,7.4,55.2s4.4,64.7,4.4,70c0,5.3,0.9,20.8,1.5,30.9c0.6,10.1,6.2,42.7,6.2,51.6c0,8.9,3,32.1,3,32.1v25.7
	c0,0,4.2,10.7,14.3,10.1c10.1-0.6,25-4.2,26.2-9.5c-0.3,1.4,2.1-6.5,1.1-22.1c-0.6-9.5-2.4-35-2.4-42.7c0-7.7-1.5-24.3-1.5-32.6
	c0-8.3,0.3-52.2,2-67.7c1.8-15.4,1.2-55.8,1.2-67.1c0-11.3-0.6-46.3,2.4-57.6c3-11.3,0-16,0-16s0.3-0.1,5.3,0.7v-64.2
	C82.8,330.8,64.9,329.8,63.4,330.1z"/>
<linearGradient id="jacket-left_1_" gradientUnits="userSpaceOnUse" x1="100.0065" y1="249.6033" x2="203.132" y2="240.581">
	<stop  offset="0" style="stop-color:#828487"/>
	<stop  offset="0.5508" style="stop-color:#939597"/>
	<stop  offset="0.666" style="stop-color:#8F9192"/>
	<stop  offset="0.7734" style="stop-color:#858587"/>
	<stop  offset="0.8777" style="stop-color:#747476"/>
	<stop  offset="0.9796" style="stop-color:#5E5E60"/>
	<stop  offset="1" style="stop-color:#59595B"/>
</linearGradient>
<path id="jacket-left" style="fill:url(#jacket-left_1_);stroke:#666766;stroke-width:0.5;stroke-miterlimit:10;" d="M143.1,116
	c0,0,39.2,17.6,43.4,19.2c4.3,1.6,7.8,4.6,7.8,4.6l-18.5,73.4l-1.6,16.6c0,0-4,35.6-4,38.8c0,3.2,2,14.2,2.8,17.8
	c0.8,3.6,5.9,36,5.9,36s7.5,27.3,7.5,29.7c0,2.4,0,13.5-0.4,14.6c-0.4,1.2-19.4,7.1-22.2,7.1c-2.8,0-19-0.4-22.6-0.8
	c-3.6-0.4-19.4-4-20.6-4.4c-1.2-0.4-9.9-17.8-9.9-17.8s-3.2-13.1-3.2-14.6s-4.4-43.5-4-46.3c0.4-2.8,0.8-31.7,0.8-31.7l5.9-31.7
	l5.9-8.7c0,0,10.7-5.9,16.6-23.3C139,177.2,143.1,116,143.1,116z"/>
<linearGradient id="jacket-right_1_" gradientUnits="userSpaceOnUse" x1="16.2388" y1="252.8512" x2="117.434" y2="245.775">
	<stop  offset="0" style="stop-color:#5C5D5F"/>
	<stop  offset="0.5168" style="stop-color:#909194"/>
	<stop  offset="0.9244" style="stop-color:#858689"/>
	<stop  offset="1" style="stop-color:#828487"/>
</linearGradient>
<path id="jacket-right" style="fill:url(#jacket-right_1_);stroke:#666766;stroke-width:0.5;stroke-miterlimit:10;" d="M34.1,134.6
	c0,0,8.3,69.5,8.3,70.6c0,1.2,2.4,15,2.8,16.2c0.4,1.2,2,13.5,2.8,15.4c0.8,2-2.4,32.1-2.4,33.6c0,1.6-6.3,18.6-7.5,24.5
	c-1.2,5.9-12.3,56.2-12.3,59.4c0,3.2-3.9,5.9-0.8,7.5c3.2,1.6,48.3,18.2,59.8,13.5c11.5-4.7,22.6-20.2,22.9-23.7
	c0.4-3.6,7.1-33.2,8.3-51.8c1.2-18.6,0-44.3,0-49.1c0-4.7,1.2-11.1,0.8-13.9c-0.4-2.8-2.8-10.3-6.7-17.4c-4-7.1-26.1-91.8-26.1-95.4
	c0-3.6-3.6-3.6-3.6-3.6S37.4,133.4,34.1,134.6z"/>
<path id="shirt" style="fill:#5AC6CE;" d="M87.3,173.3c0,0,34.4,2.4,43.2-0.3c8.8-2.7,8.8,5,7,7.4c-1.8,2.4-19.1,37.6-20.3,40.6
	c-1.2,3-12.4,2.8-14.3-4.6C101.1,209.1,87.3,173.3,87.3,173.3z"/>
<path id="collar-left-bottom" style="fill:#808184;" d="M86.2,116.9c0,0,2.7,15.1,3.1,18.9c0.3,3.8,1.8,9.5,1.8,14
	c0,4.6,1.5,14.3,2.7,19.4c1.2,5,3.4,9.1,3.7,12.2c0.3,3.1,3.4,12.5,5.8,18.2c2.4,5.7,10.9,27.3,12.4,30.8c1.6,3.4-2.1,2.3-2.7,0
	c-0.6-2.3-1.8-2.3-11.9-12.5c-10.1-10.3-25.6-27.9-28.4-33c-2.7-5.1-15.2-29.3-16.5-34.7c-1.2-5.4-2.1-13.1-2.1-13.1l14.6,2.3
	l-7.9-3.5c0,0,3-6.6,6.7-10.4c3.7-3.9,7.6-7.2,13.4-9C86.9,114.5,86.2,116.9,86.2,116.9z"/>
<path id="collar-left-top" style="fill:#939598;" d="M88.2,115.8c0,0,2.7,15.8,3,19.7c0.3,4,1.8,9.9,1.8,14.6s1.5,14.9,2.7,20.2
	c1.2,5.3,3.3,9.5,3.6,12.8c0.3,3.3,3.3,13.1,5.6,19c2.4,5.9,10.6,28.5,12.1,32.1c1.5,3.6-2,2.4-2.6,0c-0.6-2.4-1.7-2.4-11.6-13.1
	c-9.8-10.7-24.9-29.1-27.6-34.4c-2.7-5.3-14.8-30.6-16-36.2c-1.2-5.6-2.1-13.7-2.1-13.7l14.3,2.4l-7.7-3.7c0,0,3-6.9,6.5-10.9
	c3.6-4,7.4-7.5,13.1-9.4C88.8,113.4,88.2,115.8,88.2,115.8z"/>
<path id="collar-right-bottom" style="fill:#808184;" d="M114.6,221c0,0,13.9-39.8,17.2-51.1c3.3-11.3,9.8-49.3,9.8-52.8
	c0-6,13.9,4.7,13.9,4.7l6.8,3.6l7.1,10.1l-13.4,3l15.1,1.2c0,0-5.1,17.8-9.2,26.4c-4.2,8.6-24.9,39.2-30.3,46
	c-5.3,6.8-15.1,17.5-15.1,17.5L114.6,221z"/>
<path id="collar-right-top" style="fill:#939598;" d="M112.5,221.1c0,0,14-39.8,17.2-51.1c3.3-11.3,9.8-49.3,9.8-52.8
	c0,0-5.9-3.3-6.6-6.1l7.1,3.2l20.3,11.2l7.1,10.1l-13.4,3l15.1,1.2c0,0-5,17.8-9.2,26.4c-4.1,8.6-24.9,39.2-30.3,46
	c-5.3,6.8-15.1,17.5-15.1,17.5L112.5,221.1z"/>
<path id="center-button-bottom" style="fill:#7A7B7B;" d="M113,284.3c0,2.9-2.3,5.2-5.2,5.2c-2.9,0-5.2-2.3-5.2-5.2
	c0-2.9,2.3-5.2,5.2-5.2C110.7,279.1,113,281.4,113,284.3z"/>
<path id="center-button-top_1_" style="fill:#7A7B7B;" d="M116.5,239.7c0,2.9-2.3,5.2-5.2,5.2c-2.9,0-5.2-2.3-5.2-5.2
	c0-2.9,2.3-5.2,5.2-5.2C114.2,234.5,116.5,236.8,116.5,239.7z"/>
<path id="pocket-left" style="fill:#666766;" d="M140,276.8l0-0.4c0.2,0,21.8-2.4,25.3-2.4v0.4C161.8,274.4,140.2,276.8,140,276.8z"
	/>
<path id="cuff-right" style="fill:#6E6F71;" d="M55.7,367.2c0,0-11.5,19.6-9.1,20.7c2.4,1.1,6.7-2.1,13.9-7.6
	c7.1-5.5,22.6-17,22.6-17l-0.2-2.7c0,0-8.1-2.9-10.5-2.1C69.9,359.3,55.7,367.2,55.7,367.2z"/>
<path id="cuff-left" style="fill:#6E6F71;" d="M142.7,379.5c0,0,8.7,8.7,10.7,8.7c2,0,4,0.4,4,0.4s0.4-8.3,0.4-10.7
	c0-2.4-4.4-8.7-7.1-10.7c-2.8-2-3.6-6.3-8.7-6.3c-5.1,0-10.3-1.6-10.3-1.6l-5.9-0.4c0,0-2.8,0.8-2,3.2c0.8,2.4,9.5,11.1,9.5,11.1
	l4.3,2L142.7,379.5z"/>
<path id="left-hand" style="fill:#F5CAB3;" d="M131.8,360.3c0,0,3.2,1.2-2,2.4c-5.1,1.2-8.3,2.4-12.3,4.7c-4,2.4-8.3,4.8-10.3,7.1
	c-2,2.4-9.1,7.1-9.1,7.1s5.5,9.5,6.7,10.3c1.2,0.8,6.3,5.9,7.9,6.3c1.6,0.4,10.7,4.8,13.1,5.9c2.4,1.2,2.4,1.2,8.7-4
	c6.3-5.1,5.5-4.4,12.3-14.7c6.7-10.3,7.5-13.5,7.5-14.6c0-1.2-13.1-9.9-13.1-9.9L131.8,360.3z"/>
<linearGradient id="left-hand-gradient_1_" gradientUnits="userSpaceOnUse" x1="109.1085" y1="397.0974" x2="148.5768" y2="363.9796">
	<stop  offset="9.414860e-02" style="stop-color:#DDB7A3"/>
	<stop  offset="0.8297" style="stop-color:#DDB7A3;stop-opacity:0"/>
</linearGradient>
<path id="left-hand-gradient" style="fill:url(#left-hand-gradient_1_);" d="M131.8,360.3c0,0,3.2,1.2-2,2.4
	c-5.1,1.2-8.3,2.4-12.3,4.7c-4,2.4-8.3,4.8-10.3,7.1c-2,2.4-9.1,7.1-9.1,7.1s5.5,9.5,6.7,10.3c1.2,0.8,6.3,5.9,7.9,6.3
	c1.6,0.4,10.7,4.8,13.1,5.9c2.4,1.2,2.4,1.2,8.7-4c6.3-5.1,5.5-4.4,12.3-14.7c6.7-10.3,7.5-13.5,7.5-14.6c0-1.2-13.1-9.9-13.1-9.9
	L131.8,360.3z"/>
<path id="right-hand" style="fill:#F5CAB3;" d="M54.5,369.6c0,0,4,8.7,5.9,10.7c2,2,6.7,8.3,7.5,11.5c0.8,3.2,4.7,7.5,6.7,9.5
	c2,2,8.7,3.6,11.1,5.1c2.4,1.6,5.1,3.2,7.5,4.4c2.4,1.2,3.6,2.4,9.1,2c5.5-0.4,8.3,0,10.3-2.4c2-2.4,3.2-4.8,3.2-4.8
	s-0.4,2.4,4.4,2.4c4.7,0,9.9-0.4,9.9-2c0-1.6,0.4-4-7.9-7.1c-8.3-3.2-9.5-5.5-14.7-9.5c-5.1-4-6.3-4.7-6.3-7.9
	c0-3.2,0.4-4.7-0.4-6.3c-0.8-1.6,1.2,0-2.8-3.2c-4-3.2-10.7-4.7-15-8.7c-4.4-4-12.7-7.9-17.4-5.9C60.8,359.3,54.9,366.1,54.5,369.6z
	"/>
<g id="hand-shadow">
	<path id="hand-shadow-1" style="fill:#DEB7A3;" d="M120.3,408c0,0-2.7-1.6-5.5-3.3c-2.6-1.6-5.4-3.3-6.3-3.9
		c-2-1.3-4.4-3.8-4.4-3.8s4.6,8.4,6.2,9.1C111.9,406.7,118.7,408,120.3,408z"/>
	<path id="hand-shadow-2" style="fill:#DEB7A3;" d="M109.4,412.4c0,0-1.1,0.5-3.9-1.2c-2.6-1.6-6.4-4.3-7.3-4.9c-2-1.3-5-4.9-5-4.9
		s7,10.8,8.6,11.4C103.4,413.4,107.8,412.4,109.4,412.4z"/>
	<path id="hand-shadow-3" style="fill:#DEB7A3;" d="M92.4,409.2c0,0-1.1,0.5-3.9-1.2c-2.6-1.6-6.4-4.3-7.3-4.9c-2-1.3-5-4.9-5-4.9
		s9.3,9.8,10.9,10.5C88.7,409.3,90.8,409.2,92.4,409.2z"/>
</g>
<path id="sleeve-left" style="fill:#939598;" d="M189.4,136.5c0,0-7.5,28.5-9.5,34c-2,5.5-5.1,19.4-5.9,23.7
	c-0.8,4.3-0.8,7.9-0.8,13.1c0,5.1-0.8,17.8-0.8,17.8s2.4,9.1,2.4,14.2c0,5.1-0.8,13.1-0.4,16.2c0.4,3.2,2,8.3,2,8.3l-2.8,4.3
	c0,0-1.2,7.9-0.8,9.5c0.4,1.6,0.8,4,0.8,4s-9.5,24.1-13.5,29.3c-4,5.1-8.7,12.3-9.9,13.8c-1.2,1.6-6.7,7.1-7.9,11.1
	c-1.2,4-5.9,7.1-8.7,11.1c-2.8,4-9.5,11.1-9.5,12.3c0,1.2,0,1.2,0,1.2s22.6,9.9,26.5,16.2c4,6.3,6.7,11.9,6.7,11.9
	s19-31.3,19.4-32.8c0.4-1.6,11.1-17,16.6-28.1c5.5-11.1,18.6-37.2,19-41.5c0.4-4.4,2-12.7,2-12.7s-0.8-19-2-32.8
	c-1.2-13.8-4.3-23.7-5.1-32.4c-0.8-8.7-1.2-13.8-1.2-13.8s-4-22.2-4.8-28.1c-0.8-5.9-3.2-14.2-4.4-17.8c-1.2-3.6-2.4-8.7-2.4-8.7
	S191.4,138.1,189.4,136.5z"/>
<path id="sleeve-right" style="fill:#939598;" d="M35,133.6c0,0-3.4,1.5-4.8,3.8c-2.7,4.4-5.9,7.1-7.7,16.3
	c-1.8,9.2-8,27.6-9.8,37.7c-1.8,10.1-11.6,52.8-12.2,59.6c-0.6,6.8-0.9,24,0,28.2c0.9,4.2,13.7,39.5,21.4,54.3
	c7.7,14.8,15.4,40.1,19.3,46.6c3.9,6.5,5.3,7.7,5.3,7.7s4.8-10.7,9.2-13.6c4.5-3,12.5-11,18.1-11.9c5.6-0.9,8.9-1.8,8.9-1.8
	l-30-53.1c0,0-5.9-10.7-7.7-15.1c-1.8-4.5-4.8-10.7-4.8-10.7l-1.5-1.2c0,0,0.6-4.2,0-5c-0.6-0.9,0-3,0-3s3.6-5.6,4.2-11.3
	c0.6-5.6,2.1-16.6,2.1-24c0-7.4,0.6-10.1,0.6-10.1l0.6-22.9c0,0-4.5-30.3-4.5-31.2c0-0.9-2.7-22.9-3-24c-0.3-1.2-3-13.7-3-13.7
	L35,133.6z"/>
<path id="button16" style="fill:#818285;" d="M38.1,357.4c0.7,2.2-0.1,4.4-1.7,4.9c-1.7,0.5-3.6-0.8-4.3-3c-0.7-2.2,0.1-4.4,1.7-4.9
	C35.5,353.9,37.4,355.2,38.1,357.4z"/>
<path id="button15" style="fill:#6E6F71;" d="M35.6,362.6c-1.5,0-3-1.3-3.6-3.2c-0.4-1.3-0.4-2.6,0.2-3.6c0.4-0.7,0.9-1.2,1.6-1.4
	c0.3-0.1,0.5-0.1,0.8-0.1c1.5,0,3,1.3,3.6,3.2c0.7,2.2-0.1,4.5-1.8,5.1C36.2,362.5,35.9,362.6,35.6,362.6z M34.6,354.4
	c-0.3,0-0.5,0-0.7,0.1c-0.6,0.2-1.2,0.7-1.5,1.3c-0.5,1-0.6,2.2-0.2,3.5c0.6,1.8,2,3,3.4,3c0.3,0,0.5,0,0.7-0.1
	c1.6-0.5,2.3-2.7,1.7-4.8C37.5,355.7,36,354.4,34.6,354.4z"/>
<path id="button14" style="fill:#818285;" d="M40.1,363.9c0.7,2.2-0.1,4.4-1.7,4.9c-1.7,0.5-3.6-0.8-4.3-3c-0.7-2.2,0.1-4.4,1.7-4.9
	C37.5,360.4,39.4,361.8,40.1,363.9z"/>
<path id="button13" style="fill:#6E6F71;" d="M37.6,369.1c-1.5,0-3-1.3-3.6-3.2c-0.4-1.3-0.4-2.6,0.2-3.6c0.4-0.7,0.9-1.2,1.6-1.5
	c0.3-0.1,0.5-0.1,0.8-0.1c1.5,0,3,1.3,3.6,3.2c0.4,1.3,0.4,2.6-0.2,3.6c-0.4,0.7-0.9,1.2-1.6,1.4C38.2,369.1,37.9,369.1,37.6,369.1z
	 M36.6,361c-0.3,0-0.5,0-0.7,0.1c-0.6,0.2-1.2,0.7-1.5,1.4c-0.5,1-0.5,2.2-0.1,3.4c0.6,1.8,2,3,3.4,3c0.3,0,0.5,0,0.7-0.1
	c0.6-0.2,1.2-0.7,1.5-1.3c0.5-1,0.6-2.2,0.2-3.5C39.4,362.2,38,361,36.6,361z"/>
<path id="button12" style="fill:#818285;" d="M42.5,371.9c0.7,2.2-0.1,4.4-1.7,4.9c-1.7,0.5-3.6-0.8-4.3-3c-0.7-2.2,0.1-4.4,1.7-4.9
	C39.9,368.3,41.8,369.7,42.5,371.9z"/>
<path id="button11" style="fill:#6E6F71;" d="M40,377c-1.5,0-3-1.3-3.6-3.2c-0.7-2.2,0.1-4.5,1.8-5.1c0.3-0.1,0.5-0.1,0.8-0.1
	c1.5,0,3,1.3,3.6,3.2c0.4,1.1,0.4,2.2,0,3.1c-0.3,1-1,1.6-1.8,1.9C40.5,377,40.3,377,40,377z M39,368.9c-0.3,0-0.5,0-0.7,0.1
	c-1.6,0.5-2.3,2.7-1.7,4.8c0.6,1.8,2,3,3.4,3c0.3,0,0.5,0,0.7-0.1c0.8-0.3,1.4-0.9,1.7-1.8c0.3-0.9,0.3-2,0-3
	C41.8,370.1,40.4,368.9,39,368.9z"/>
<path id="button10" style="fill:#818285;" d="M46.8,379c0.7,2.2-0.1,4.4-1.7,4.9c-1.7,0.5-3.6-0.8-4.3-3c-0.7-2.2,0.1-4.4,1.7-4.9
	C44.2,375.5,46.1,376.8,46.8,379z"/>
<path id="button9" style="fill:#6E6F71;" d="M44.3,384.1c-1.5,0-3-1.3-3.6-3.2c-0.7-2.2,0.1-4.5,1.8-5.1c0.3-0.1,0.5-0.1,0.8-0.1
	c1.5,0,3,1.3,3.6,3.2c0.4,1.3,0.4,2.6-0.2,3.6c-0.4,0.7-0.9,1.2-1.6,1.4C44.9,384.1,44.6,384.1,44.3,384.1z M43.3,376
	c-0.3,0-0.5,0-0.7,0.1c-1.6,0.5-2.3,2.7-1.7,4.8c0.6,1.8,2,3,3.4,3c0.3,0,0.5,0,0.7-0.1c0.6-0.2,1.2-0.7,1.5-1.3
	c0.5-1,0.6-2.2,0.2-3.5C46.2,377.2,44.7,376,43.3,376z"/>
<path id="button8" style="fill:#818285;" d="M168.6,355.3c-0.6,2.2,0,4.6,1.2,5.4c1.3,0.8,2.8-0.2,3.4-2.4c0.6-2.2,0.1-4.6-1.2-5.4
	C170.7,352.1,169.2,353.2,168.6,355.3z"/>
<path id="button7" style="fill:#6E6F71;" d="M170.7,361.2L170.7,361.2c-0.3,0-0.7-0.1-1-0.3c-1.3-0.9-1.9-3.4-1.3-5.5
	c0.5-1.7,1.5-2.7,2.6-2.7c0.3,0,0.7,0.1,1,0.3c1.3,0.9,1.9,3.3,1.3,5.5C172.9,360.1,171.9,361.2,170.7,361.2z M171.1,352.8
	c-1,0-2,1-2.4,2.6c-0.6,2.1-0.1,4.5,1.2,5.3c0.3,0.2,0.6,0.3,0.9,0.3c1,0,2-1,2.4-2.6c0.6-2.1,0.1-4.5-1.2-5.3
	C171.7,352.9,171.4,352.8,171.1,352.8z"/>
<path id="button6" style="fill:#818285;" d="M166.3,362.4c-0.6,2.1,0,4.6,1.2,5.4c1.3,0.8,2.8-0.2,3.4-2.4c0.6-2.2,0-4.6-1.2-5.4
	C168.4,359.2,166.9,360.2,166.3,362.4z"/>
<path id="button5" style="fill:#6E6F71;" d="M168.5,368.2L168.5,368.2c-0.3,0-0.7-0.1-1-0.3c-1.3-0.9-1.9-3.4-1.3-5.5
	c0.5-1.7,1.5-2.7,2.6-2.7c0.3,0,0.7,0.1,1,0.3c1.3,0.9,1.9,3.3,1.3,5.5C170.6,367.1,169.6,368.2,168.5,368.2z M168.8,359.8
	c-1,0-2,1-2.4,2.6c-0.6,2.1,0,4.5,1.2,5.3c0.3,0.2,0.6,0.3,0.9,0.3c1,0,2-1,2.4-2.6c0.6-2.1,0.1-4.5-1.2-5.3
	C169.4,359.9,169.1,359.8,168.8,359.8z"/>
<path id="button4" style="fill:#818285;" d="M164.3,370.2c-0.6,2.1,0,4.6,1.3,5.4c1.3,0.8,2.8-0.2,3.4-2.4c0.6-2.2,0-4.6-1.2-5.4
	C166.4,367,164.9,368.1,164.3,370.2z"/>
<path id="button3" style="fill:#6E6F71;" d="M166.4,376C166.4,376,166.4,376,166.4,376c-0.3,0-0.7-0.1-1-0.3
	c-1.3-0.9-1.9-3.3-1.3-5.5c0.5-1.7,1.5-2.7,2.6-2.7c0.3,0,0.7,0.1,1,0.3c1.3,0.9,1.9,3.4,1.3,5.5C168.6,375,167.6,376,166.4,376z
	 M166.8,367.7c-1,0-2,1-2.4,2.6c-0.6,2.1,0,4.5,1.2,5.3c0.3,0.2,0.6,0.3,0.9,0.3c1,0,2-1,2.4-2.6c0.6-2.1,0.1-4.5-1.2-5.3
	C167.4,367.8,167.1,367.7,166.8,367.7z"/>
<path id="button2" style="fill:#818285;" d="M160.7,376.9c-0.6,2.2,0,4.6,1.2,5.4c1.3,0.8,2.8-0.2,3.4-2.4c0.6-2.1,0-4.6-1.2-5.4
	C162.8,373.7,161.3,374.7,160.7,376.9z"/>
<path id="button1" style="fill:#6E6F71;" d="M162.9,382.7L162.9,382.7c-0.3,0-0.7-0.1-1-0.3c-1.3-0.9-1.9-3.3-1.3-5.5
	c0.5-1.7,1.5-2.7,2.6-2.7c0.3,0,0.7,0.1,1,0.3c1.3,0.9,1.9,3.4,1.3,5.5C165,381.6,164,382.7,162.9,382.7z M163.2,374.3
	c-1,0-2,1-2.4,2.6c-0.6,2.1,0,4.5,1.2,5.3c0.3,0.2,0.6,0.3,0.9,0.3c1,0,2-1,2.4-2.6c0.6-2.1,0.1-4.5-1.2-5.3
	C163.8,374.4,163.5,374.3,163.2,374.3z"/>
</svg>
