<?xml version="1.0" encoding="utf-8"?>
<?xml-stylesheet href="../../styles/viewer-avatars.css" type="text/css"?>
<!-- Generator: Adobe Illustrator 18.1.0, SVG Export Plug-In . SVG Version: 6.00 Build 0)  -->
<svg version="1.1" id="Guide_-_Female_-_Front" class="avatar-client skin-darker" xmlns="http://www.w3.org/2000/svg" xmlns:xlink="http://www.w3.org/1999/xlink"
	 x="0px" y="0px" viewBox="0 0 214.4 757.6" style="enable-background:new 0 0 214.4 757.6;" xml:space="preserve">
<path id="foot-right" style="fill:#C48E62;" d="M67,690c0,0-9.2,7.4-13.8,10.1c-4.6,2.8-18.4,9.2-18.4,9.2s-11.1,3.7-3.7,5.5
	c7.4,1.8,25.8,2.8,38.7,0c12.9-2.8,28.6-5.5,34.1-10.1c5.5-4.6,10.1-11.1,8.3-15.7C110.3,684.5,70.7,684.5,67,690z"/>
<path style="fill:#5D6F76;stroke:#5D6F76;stroke-width:0.4225;stroke-miterlimit:10;" d="M39.3,706.7c0,0-9.4,2.4-14.1,4.4
	c-4.7,1.9-8.9,4.5-9.9,6.5c-1.1,1.9,0.7,4.9,4.2,5.9c3.5,1.1,13.8,1.6,22.3,1.2c8.6-0.4,16.8-3.5,25.8-4.9
	c9.1-1.4,14.8-2.4,18.5-1.7c3.7,0.7,4.4,0.9,9.4,1.1c5.1,0.2,12.7-0.2,13.8-1.2c1-1,3.7-5.1,3.8-8c0.2-3,0.2-15.2,0.2-15.2
	s-8.9,7.2-17.6,10.6c-8.7,3.5-23.9,7.7-38.9,7.2C41.8,711.9,34.4,709.3,39.3,706.7z"/>
<path id="foot-left" style="fill:#C48E62;" d="M115.7,711.1c0,0-0.7,5.6-7.4,11.5c-6.7,5.9-13.4,10.8-13,14.9
	c0.4,4.1,5.2,11.1,21.5,8.5c16.3-2.6,26.4-5.2,32-12.6c5.6-7.4,8.9-19.3,7.8-27.9C155.4,697,119.8,698.9,115.7,711.1z"/>
<path style="fill:#5D6F76;stroke:#5D6F76;stroke-width:0.4541;stroke-miterlimit:10;" d="M96.4,731.6c0,0-6.9,7.4-8.2,9.4
	c-1.2,2-4.7,9.7,2,11.6c6.7,2,20.3,3.5,27.7,2.2c7.4-1.2,16.6-5.7,20.6-9.7c4-4,5.7-4.2,10.7-6.7c5-2.5,10.4-4.5,10.2-10.4
	c-0.2-5.9-4.2-15.6-4.2-15.6s0,6.2-1.5,8.9c-1.5,2.7-5.9,12.9-12.6,15.9c-6.7,3-16.1,5.9-28.5,2.2
	C100.1,735.8,96.4,731.6,96.4,731.6z"/>
<linearGradient id="av-f-l_1_" gradientUnits="userSpaceOnUse" x1="31.4385" y1="507.6277" x2="138.8313" y2="507.6277">
	<stop  offset="0.3313" style="stop-color:#B8B29C"/>
	<stop  offset="0.8405" style="stop-color:#A7A28E"/>
</linearGradient>
<path style="fill:url(#av-f-l_1_);" d="M47,313.9l47.3,9.9l13.9,177.3c0,0,16.8,50.5,17.8,59.4c1,8.9,12.9,102,12.9,105
	c0,3-17.8,30.7-17.8,30.7s-20.8,7.9-37.7,4c-16.8-4-22.8-5.9-22.8-5.9l7.9-13.9c0,0-4-13.9-4-19.8c0-5.9,5.9-52.5,5.9-52.5v-28.7
	c0,0,2-25.8,2-28.7c0-3-6.9-35.7-7.9-40.6c-1-5-11.9-43.6-12.9-47.6c-1-4-11.9-46.6-13.9-54.5c-2-7.9-7.9-45.6-5.9-65.4
	C33.8,322.8,47,313.9,47,313.9z"/>
<path style="fill:#B8B29C;" d="M67.4,308c0,0,5.4,56,11.4,70.3c5.9,14.4,7.9,48.6,9.4,58c1.5,9.4,8.9,56,8.9,62.4
	c0,6.4-3,24.3,2,35.2c5,10.9,16.9,29.7,17.3,37.2c0.5,7.4,2.5,35.7,2.5,44.6c0,8.9,0.5,39.1,0,44.6c-0.5,5.4,0.5,33.7-1,39.6
	c-1.5,5.9-3,13.9-3,13.9s10.9,3.5,22.3,4c11.4,0.5,26.8,0,31.7-2.5c4.9-2.5,10.4-7.9,10.4-7.9s-1.5-23.3-3-34.7
	c-1.5-11.4-5.9-44.6-6.4-54.5c-0.5-9.9-4-40.1-6.9-54c-3-13.9-10.9-29.2-11.4-45.6c-0.5-16.3,0-25.3,1.5-35.2
	c1.5-9.9,5-51.5,6.9-64.9c2-13.4,11.4-44.1,8.4-68.9c-4.1-34-19.6-31.8-23.6-46.5c-2-7.4-8.7-21.7-14.1-23.1
	c-5.4-1.5-59.4,8.2-59.4,8.2L67.4,308z"/>
<path id="left-hand" style="fill:#C48E62;" d="M56.1,132.4c0,0-12.9,0.6-19.3,3.5c-6.4,2.9-10.3,7.1-13.5,16.4
	c-3.2,9.3-4.6,24.7-5.2,32.1c-0.6,7.4-6.4,40.5-6.4,43.4c0,2.9-1.3,12.5-1.3,12.5S4,260.6,4,270.9c0,10.3,0.6,36,0.6,38.9
	c0,2.9,0.6,21.5,6.1,28.9c5.5,7.4,23.9,23.4,23.9,23.4s2.6-2.8,3.8-6c0.8-2.1-0.4-8.7-0.4-8.7s6.1,2.9,7.7,4.5
	c1.6,1.6,4.5,2.9,5.8,1.6c1.3-1.3,2.3-6.1-1-8.7c-3.2-2.6-8.4-7.1-11.9-9.3c-3.5-2.3-6.4-4.8-10-6.7c-3.5-1.9-6.7-2.9-6.7-2.9
	s3.9-33.1,6.1-40.5c2.2-7.4,5.1-16.1,5.8-20.3c0.6-4.2,0.6-17.7,1.9-21.9c1.3-4.2,4.2-12.2,6.1-27.3c1.9-15.1,8.7-62.7,8.7-62.7
	L56.1,132.4z"/>
<path style="fill:#5D6F76;" d="M56.6,124.1c0,0-16.2,1.2-22.6,5.9c-6.4,4.7-12.4,15.4-14.6,32.6c-2.1,17.1-4.6,34.7-4.6,34.7
	s21,3,23.6,1.7c2.6-1.3,13.6-61.3,13.6-61.3L56.6,124.1z"/>
<path id="face" style="fill:#C48E62;" d="M143.9,122.2c0,0-11.6,52.7-23.5,71.7c-11.9,19-62.4,29.6-69.7,17.7
	c-7.4-11.9-9.3-39.9-8-46.9c1.3-7.1,13.2-28.6,13.5-32.1c0.3-3.5,5.8-9.3,5.8-9.3l3.5-1.3c0,0,8.4,1.3,10.3-1
	c1.9-2.3,3.5-20.3,3.5-20.3s0.2-0.3,0.5-0.9c0-0.3,0-0.6-0.1-0.7c-0.5-1.7-4.6-2.4-5.3-3.7c-0.7-1.3-3.8-7.6-5.1-12.7
	c-1.2-5.1-3.8-12.7-3.5-17c0.3-4.3-0.1-10.1,0.5-12.4c0.6-2.4,0.7-4.1,0.7-6.4c-0.1-2.4-1-5.1,0.4-9c0.4-1.2,0.9-2.6,1.4-4
	c1.2-3.5,2.4-7.2,2.9-8.6c0.7-1.6,3.8-7.5,10.4-10.7c1.3-0.6,2.7-1.1,4.2-1.5c9.6-2.2,23.3-2.7,30.9,0.8c7.6,3.4,13,3,16.4,10
	c3.4,7,3.3,23.3,3.4,25.8c0.1,2.6-3,13-5.3,15.8c-2.3,2.9-5.1,8.3-7.3,13.7c-2.2,5.4-3,12.5-2.9,16.6c0.1,3.2-0.4,8-0.7,9.8
	c0.1,1,0.2,2,0.6,3c1.3,3.2,0.6,6.4,5.8,8.4C132.3,118.6,143.9,122.2,143.9,122.2z"/>
<path style="fill:#5D6F76;" d="M39.4,336.2l-5.2-3.9c-0.1-8.7,2-24.7,2.9-30.5c1-5.8,4.8-27.3,5.1-37.9c0.3-10.6-1-27.6-1-29.9
	c0-2.2,0.6-10,0.6-10s-7.1-14.1-7.1-20.2c0-6.1,0.6-12.2,2.3-19.6c1.6-7.4,1.2-14.3,5-24.2c3.9-10,13.6-36.2,13.6-36.2
	s12.3-2.5,15.5-1.5c0,0-8.5,2.8-12.6,10.8c-4.2,8-14.8,36.3-1.9,40.2c12.9,3.9,28,6.8,39.9,1.9c11.9-4.8,23.8-12.2,30.2-26.4
	c6.4-14.1,7.4-17.4,8.7-20.2c1.3-2.9,3.5-7.1,4.8-7.4c1.3-0.3,6.8-1.6,8-1c1.3,0.6,4.2,1.6,4.2,1.6s-1.6,8.3-4.5,20.1
	c-2.9,11.9-0.6,18.7,6.4,25.7c7.1,7.1,10.6,23.9,10.6,23.9s-7.7,20.6-8.7,23.1c-1,2.6-3.9,20.6-6.4,24.8c-2.6,4.2-6.8,11.6-5.8,22.2
	c1,10.6,6.1,22.2,7.1,24.4c1,2.2,7.1,18,9.3,25.4c2.3,7.4,9,27,9.3,29.6c0.3,2.6,2.6,1.9,0.3,2.6c-2.2,0.6-15.4,3.5-25.1,0.6
	c-9.6-2.9-19.9,2.9-19.9,2.9s-3.9,3.2-7.1,4.5c-3.2,1.3-13.5,4.8-38.3,3.5c-24.7-1.3-26.6-3.1-27.3-7.3
	C52.2,345,39.4,336.2,39.4,336.2z"/>
<path id="right-hand" style="fill:#C48E62;" d="M151,121.8c0,0,15.4,4.2,19.6,7.4c4.2,3.2,7.7,9.6,11.3,17.4
	c3.5,7.7,9.3,25.7,12.5,39.5c3.2,13.8,7.4,33.4,9.3,40.2c1.9,6.7,6.1,27,6.1,30.2c0,3.2,1.3,12.5-1.6,18.3
	c-2.9,5.8-16.7,27.3-23.1,35c-6.4,7.7-21.5,28-22.2,29.3c-0.6,1.3-2.9,5.5-2.9,5.5s-2.9,10.9-4.8,12.2c-1.9,1.3-9,5.1-16.7,3.9
	c-7.7-1.3-18.7-8.4-18.7-8.4v-4.8v-1.3c0,0-1,0-3.5,0c-2.6,0-2.9,1-5.5,1.9c-2.6,1-4.2,2.3-7.7,1.9c-3.5-0.3-5.1-1.6-5.8-2.9
	c-0.6-1.3,1-2.9,2.6-3.5c1.6-0.6,8.7-2.6,10.9-3.9c2.3-1.3,5.8-1.3,10.3-4.5c4.5-3.2,11.6-5.1,15.1-5.8c3.5-0.6,5.1-1,5.1-1
	s10-9.3,19.3-23.8c9.3-14.5,11.9-21.5,14.1-26c2.3-4.5,6.8-12.2,6.4-15.4c-0.3-3.2-9.3-33.3-12.5-42.1c-6.4-17.5-5-23.7-7.3-29.5
	c-2.3-5.8,0.2-8-1.7-10.3c-1.9-2.3-15.1-12-15.4-15.2C143.9,163,135.5,141.8,151,121.8z"/>
<path style="fill:#5D6F76;" d="M150.3,121.2c0,0,20.9,4.5,24.8,10.3c3.9,5.8,11.9,22.5,13.8,27.3c1.9,4.8,5.8,22.2,6.4,27
	c0.6,4.8,2.5,13.2,2.5,13.2s-16.1-0.7-20.4,0.4c-4.3,1.2-13.8,6.8-13.8,6.8s-3.9-14-9-19.8c-5.2-5.8-11.6-10-13.8-17.4
	C138.4,161.7,131.3,143.7,150.3,121.2z"/>
<path id="hair-back" style="fill:#302B2C;" d="M123.5,52.6c0,0-3.2,9.8-3.9,14.7c-0.7,4.9,0.3,17.1-0.4,19.2c-0.7,2.1-7.3,17.1-8,21
	c-0.7,3.8-5.6,16.4-5.6,21c0,4.5,1.8,11.5,1.8,12.6c0,1.1,0.7,5.3,0.7,6.7c0,1.4,1.1,0.4,1.8-3.1c0.7-3.5,2.5-7,4.6-9.8
	c2.1-2.8,9.4-13.3,11.2-16.8c1.7-3.5,4.5-15.4,4.9-20.6c0.4-5.3,0-20.3,0-24.2C130.4,69.4,123.5,52.6,123.5,52.6z"/>
<path id="hair-left" style="fill:#231F20;" d="M70.3,85.9c0,0-0.2,14.6-0.2,15.6c0,1,1,6.7,0.7,11c-0.3,4.3-3.1,7.4-3.7,9
	c-0.6,1.6-6.1,6.8-6.1,6.8s-3.5,7.4-4.2,8.4c-0.6,1-2.3,6.8-2.3,6.8l-0.3,7.1c0,0,1.3-3.5,1.6-4.8c0.3-1.3,7.1-10,7.1-10l3.9-6.7
	c0,0-0.6,2.9-0.6,4.2c0,1.3-1.9,5.5-1.9,5.5s-0.6,2.9-0.6,4.5c0,1.6,1,4.5,1,1.9c0-2.6,3.5-5.5,4.5-7.7c1-2.2,0.6-6.1,1.3-7.7
	c0.6-1.6,3.2-4.5,3.9-5.5c0.6-1,2.5-4.2,2.5-4.2s3.5-18.5,3.1-20.9c-0.4-2.5-4.7-2.4-5.3-4.6"/>
<path id="hair-right" style="fill:#231F20;stroke:#231F20;stroke-width:8.241300e-02;stroke-miterlimit:10;" d="M72.7,23.3
	c0,0,0.1-0.2,0.3-0.6C72.8,23.1,72.7,23.3,72.7,23.3z M155.3,116.1c-1.7-5.2-5.3-15.8-3.9-26.2c1.4-10.5-5.4-40.2-9.7-52.8
	c-4.2-12.6-10.8-22.8-13.6-25.5c-2.8-2.8-9.7-9.7-19.5-10.4c-9.8-0.7-19.4,0.7-22.1,3.1c-1.9,1.6-4.2,4.2-6.2,6.4
	c-0.7,0.3-5.2,2.5-6.2,4.5c-1,2.1-4.9,7.6-4.9,10.1c0,1.9-0.4,5.9-0.6,8.5c1.2-3.5,2.4-7.2,2.9-8.6c0.2-0.6,0.8-1.7,1.7-3
	c-0.1,0.2-0.2,0.5-0.3,0.6c0.1-0.2,0.3-0.5,0.4-0.8c0.7-1,1.6-2.2,2.8-3.3c0.4,1.8,1,4.2,2.1,4.8c1.7,1,9.7,8.1,10.7,8.3
	c1,0.2,3.1,0.7,8.1,2.1c3.8,1.1,5.9,1.6,8.1,1.9c1,1.5,5.1,3.9,5.7,4.8c0.7,1,3.2,4.2,3.2,4.2s3.2,12.6,3.9,14.7
	c0.7,2.1,3.5,8.8,3.8,9.8c0.4,1.1,2.8,13.3,2.8,15.4c0,2.1-1,16.4-2.1,21.3c-1,4.9-7,17.1-7.3,20.3c-0.4,3.1-2.1,9.8-3.1,14.7
	c-1.1,4.9,0,9.4,0.3,12.2c0.3,2.8,2.1,0,2.1,0s2.1-2.8,4.2-6.3c2.1-3.5,5.6-8.4,6.7-12.2c1-3.9,0.7-3.5,4.2-8.1c3.5-4.5,3.3-5,9-4.7
	c9,0.5,8.4-2.2,14.2-0.1c6,2.2,8.6,2,10.2,2.5C160.8,123.1,156.5,119.8,155.3,116.1z M163.5,124.7c-0.2-0.2-0.5-0.3-0.8-0.4
	C163.5,124.9,163.9,125.1,163.5,124.7z"/>
<g id="face-shadows">

		<linearGradient id="av-f-l_2_" gradientUnits="userSpaceOnUse" x1="523.9555" y1="-433.9037" x2="523.9555" y2="-440.5294" gradientTransform="matrix(1.2115 0.2869 -0.2304 0.9732 -640.926 323.6878)">
		<stop  offset="0" style="stop-color:#000000;stop-opacity:0"/>
		<stop  offset="1" style="stop-color:#000000;stop-opacity:0.4"/>
	</linearGradient>
	<path style="fill:url(#av-f-l_2_);" d="M84.7,49.6c0.6-1.1,2.5-4.2,6.8-4.7c4.2-0.5,10.1,3.3,12.1,5.9"/>

		<linearGradient id="av-f-l_3_" gradientUnits="userSpaceOnUse" x1="-3805.8293" y1="1214.6112" x2="-3806.7427" y2="1206.7493" gradientTransform="matrix(0.8909 -0.1516 -0.1035 -0.6079 3595.6401 229.7519)">
		<stop  offset="0" style="stop-color:#000000;stop-opacity:0"/>
		<stop  offset="0.9449" style="stop-color:#000000;stop-opacity:0.378"/>
		<stop  offset="1" style="stop-color:#000000;stop-opacity:0.4"/>
	</linearGradient>
	<path style="fill:url(#av-f-l_3_);" d="M70.1,69.2c0.5,0.9,2.1,3.6,6.2,4.2c4.1,0.5,10.1-2.5,12.3-4.6"/>

		<linearGradient id="av-f-l_4_" gradientUnits="userSpaceOnUse" x1="155.2796" y1="43.2359" x2="155.2796" y2="15.7189" gradientTransform="matrix(0.9995 -3.080000e-02 3.080000e-02 0.9995 -63.3361 77.1181)">
		<stop  offset="0" style="stop-color:#000000;stop-opacity:0"/>
		<stop  offset="0.9018" style="stop-color:#000000;stop-opacity:0.4"/>
	</linearGradient>
	<path style="fill:url(#av-f-l_4_);" d="M78.3,97.2c0,0,13.8,3.7,30.1-9.7c0,0-1.7,7.1-10.6,11.3c-8.9,4.1-12,6.8-13.9,9.4
		c-1.8,2.6-6.8,7.8-6.8,7.8L78.3,97.2z"/>
	<g>
		<linearGradient id="av-f-l_5_" gradientUnits="userSpaceOnUse" x1="73.9236" y1="50.8448" x2="73.9236" y2="44.5667">
			<stop  offset="0" style="stop-color:#000000;stop-opacity:0"/>
			<stop  offset="1" style="stop-color:#000000;stop-opacity:0.4"/>
		</linearGradient>
		<path style="fill:url(#av-f-l_5_);" d="M74.1,44.6c-2.1-0.2-4.6,0.8-6.9,2.1c0,1.3-0.1,2.5-0.2,3.7l13.9-1.4
			C80.2,47.9,78.3,44.9,74.1,44.6z"/>
	</g>
</g>
</svg>
