<?xml version="1.0" encoding="utf-8"?>
<?xml-stylesheet href="../desktop_app.css" type="text/css"?>
<!-- Generator: Adobe Illustrator 18.1.0, SVG Export Plug-In . SVG Version: 6.00 Build 0)  -->
<svg version="1.1" id="Male-Front" class="avatar-guide skin-darker" xmlns="http://www.w3.org/2000/svg" xmlns:xlink="http://www.w3.org/1999/xlink" x="0px" y="0px"
	 viewBox="0 0 250.5 757.4" style="enable-background:new 0 0 250.5 757.4;" xml:space="preserve">
<path id="face" style="fill:#F5CAB3;" d="M157.9,53.9c-0.1-2.5-1.2-6.3-3.5-3.5c-0.3,0.3-0.5,0.6-0.7,0.9c-0.2-6.8,0.1-14.7-0.3-19
	c-0.5-4.9-5.9-20.1-15.2-24c-9.3-3.9-22.7-5.9-34.9,0c-12.2,5.9-12.9,18.6-14.6,26.5c-1,4.7-0.5,11.3,0.2,17.4
	c-0.3-0.4-0.6-0.8-1-1.2c-2.9-3.1-4,1.4-4,4.4c0,2.4,1.1,5.3,1.1,13.7c0,8.3,2.4,9.2,4.4,9.7c2,0.5,4.3-1.9,4.3-1.9s0,0,0.5-0.9v1.8
	c0,0,1,2.4,3.4,10.8c2.4,8.3,3.4,18.6,3.4,18.6s1.5,9.8,2,14.7c0.5,4.9,22.5,13.2,31.8,10.3c9.3-2.9,15.4-21.2,15.1-36
	c-0.1-6.6-0.5-8.2,0-10.4c0.2-1,1.2-6.3,2.2-12.3c0.9,0.7,2,1.3,2.8,1c1.6-0.5,3.4-2.5,3-9.5C157.5,58,158,55.9,157.9,53.9z"/>
<linearGradient id="SVGID_1_" gradientUnits="userSpaceOnUse" x1="83.6076" y1="64.5925" x2="95.733" y2="64.5925">
	<stop  offset="0.6748" style="stop-color:#E7BDA9;stop-opacity:0"/>
	<stop  offset="0.8612" style="stop-color:#E5BCA8;stop-opacity:0.2866"/>
	<stop  offset="0.9284" style="stop-color:#DFB7A5;stop-opacity:0.3899"/>
	<stop  offset="0.9761" style="stop-color:#D5B09F;stop-opacity:0.4632"/>
	<stop  offset="1" style="stop-color:#CDAB9A;stop-opacity:0.5"/>
</linearGradient>
<path style="fill:url(#SVGID_1_);" d="M93.4,77.1c0,0-2.4,2.3-4.3,1.9c-2-0.5-4.4-1.4-4.4-9.7c0-8.3-1.1-11.2-1.1-13.7
	c0-3,1.1-7.5,4-4.4c4,4.3,3.3,8.3,3.3,8.3s6.4,10.8,4.4,14.2C93.4,77.1,93.4,77.1,93.4,77.1z"/>
<linearGradient id="SVGID_2_" gradientUnits="userSpaceOnUse" x1="6913.8979" y1="-91.6778" x2="6924.0327" y2="-91.6778" gradientTransform="matrix(-0.9989 4.580000e-02 4.580000e-02 0.9989 7068.6094 -162.9703)">
	<stop  offset="0.6748" style="stop-color:#E7BDA9;stop-opacity:0"/>
	<stop  offset="0.8612" style="stop-color:#E5BCA8;stop-opacity:0.2866"/>
	<stop  offset="0.9284" style="stop-color:#DFB7A5;stop-opacity:0.3899"/>
	<stop  offset="0.9761" style="stop-color:#D5B09F;stop-opacity:0.4632"/>
	<stop  offset="1" style="stop-color:#CDAB9A;stop-opacity:0.5"/>
</linearGradient>
<path style="fill:url(#SVGID_2_);" d="M150.4,72.5c0,0,2.6,2.7,4.2,2.3c1.6-0.5,3.4-2.5,3-9.5c-0.3-7,0.2-9.1,0.1-11.1
	c-0.1-2.5-1.2-6.3-3.5-3.5c-3.2,3.8-2.4,7.1-2.4,7.1s-4.9,9.2-3.1,12C150.4,72.5,150.4,72.5,150.4,72.5z"/>
<linearGradient id="SVGID_3_" gradientUnits="userSpaceOnUse" x1="123.5385" y1="122.9829" x2="123.5385" y2="81.2727">
	<stop  offset="0" style="stop-color:#CDAB9B;stop-opacity:0"/>
	<stop  offset="0.9018" style="stop-color:#CDAB9B;stop-opacity:0.5"/>
</linearGradient>
<path style="fill:url(#SVGID_3_);" d="M150.1,94.8c-0.4-3.5,0-8.2-0.4-10.6c-2,7.6-7.5,12.5-9.5,16.6c-2.2,4.4-7.3,5.9-14.9,5.9
	c-7.9,0-14.9-3.7-19.3-7.3c-4.5-3.7-7.4-9.9-8.9-15.4c-0.2-0.9-0.5-1.7-0.7-2.6c0,4.9,2.8,13.5,3.4,16.8c0.6,3.5,1,12.2,2.9,16.2
	c2,4,5.3,6,5.3,6s15.3,11,41.7-12C151.4,106.9,150.5,98.3,150.1,94.8z"/>
<linearGradient id="SVGID_4_" gradientUnits="userSpaceOnUse" x1="545.4953" y1="-309.2748" x2="545.4953" y2="-316.2701" gradientTransform="matrix(1.1619 0.4472 -0.3592 0.9333 -603.987 100.5714)">
	<stop  offset="0" style="stop-color:#CDAB9B;stop-opacity:0"/>
	<stop  offset="1" style="stop-color:#CDAB9A;stop-opacity:0.5"/>
</linearGradient>
<path style="fill:url(#SVGID_4_);" d="M131.7,52.3c0.8-1,3.2-4.1,7.7-4c4.5,0.1,10.1,4.9,11.9,7.9"/>
<linearGradient id="SVGID_5_" gradientUnits="userSpaceOnUse" x1="-2826.1958" y1="743.0707" x2="-2826.1958" y2="736.0765" gradientTransform="matrix(-0.8952 -0.1241 8.470000e-02 -0.6108 -2467.1553 177.7075)">
	<stop  offset="0" style="stop-color:#CDAB9B;stop-opacity:0"/>
	<stop  offset="0.8561" style="stop-color:#CDAB9B;stop-opacity:0.428"/>
	<stop  offset="1" style="stop-color:#CDAB9B;stop-opacity:0.5"/>
</linearGradient>
<path style="fill:url(#SVGID_5_);" d="M132.9,75.6c-0.4,0.7-1.5,2.9-4.7,3.4c-3.2,0.5-8-1.7-9.7-3.3"/>
<linearGradient id="SVGID_6_" gradientUnits="userSpaceOnUse" x1="730.0085" y1="-16.3784" x2="730.0085" y2="-23.386" gradientTransform="matrix(1.3174 9.420000e-02 -7.130000e-02 0.9975 -852.2998 4.0988)">
	<stop  offset="0" style="stop-color:#CDAB9B;stop-opacity:0"/>
	<stop  offset="1" style="stop-color:#CDAB9A;stop-opacity:0.5"/>
</linearGradient>
<path style="fill:url(#SVGID_6_);" d="M100.2,55.8c0.5-1.2,2-4.8,6.6-6.1c4.6-1.2,11.8,1.8,14.5,4.1"/>
<linearGradient id="SVGID_7_" gradientUnits="userSpaceOnUse" x1="110.1199" y1="251.481" x2="129.7991" y2="127.2317">
	<stop  offset="0.4724" style="stop-color:#FAFBFC"/>
	<stop  offset="0.7025" style="stop-color:#F7F8F9"/>
	<stop  offset="0.7854" style="stop-color:#EFEFF0"/>
	<stop  offset="0.8445" style="stop-color:#E3E2E3"/>
	<stop  offset="0.8922" style="stop-color:#D2D2D2"/>
	<stop  offset="0.9332" style="stop-color:#BEBDBE"/>
	<stop  offset="0.9687" style="stop-color:#A7A7A8"/>
	<stop  offset="1" style="stop-color:#8E9092"/>
</linearGradient>
<path style="fill:url(#SVGID_7_);" d="M84.4,141.6c0-1.4,4.5-16.3,29.9-13.9c25.3,2.4,44.4,0.7,51,9c6.6,8.3,1.7,44.8-1.7,58
	C160,208,142.7,243,125,244.4c-17.7,1.4-29.5,11.1-35.1-0.7c-5.6-11.8-17-36.1-16-46.9C75,186.1,84.4,141.6,84.4,141.6z"/>
<path id="shirt" style="fill:#76AAB9;" d="M139.8,129.2c-0.3-0.2-1.2-0.2-4,1.1c-3.2,1.5-4.7,3-7.2,4.1l0.2,0.8l-1.8,9.7
	c0,0-1.6,5.3-2.7,5.8c0,0-0.1,0-0.1,0c0.2,0.9,0.5,1.8,0.7,2.8c1,4,2.4,5.2,3.6,11.8c1.2,6.6,0.9,12.6,0.7,19
	c-0.2,6.4,0.7,22.5,0.7,23c0,0.5,4,41.2,4.3,45.7c0.3,4.5-9.7,6.9-12.3,6.8c-2.6-0.2-12.8-4-13-4.8c-0.2-0.9-2.8-31.5-2.8-31.5
	s4.3-51.6,5.2-56.9c0.9-5.4,4.8-16.8,4.8-16.8v-0.2c-0.5-0.6-0.9-1.6-1.3-2.6c-0.8-1.9-1.6-7.3-2.9-9.4c-1.3-2.1-3.2-1-1.9-3.9
	c0.1-0.2,0.2-0.4,0.3-0.6c0,0,0,0-0.1,0c-5.4-3.2-6.9-4.8-6.6-6.1c0.3-1.3,2.1-3.8,2.8-2.9c0,0,1,3.1,8.5,4.4
	c7.5,1.3,9,1.7,12.5-0.8c3.5-2.5,4.2-4.2,7.8-2.5C138.3,126.5,139.4,128.5,139.8,129.2z M139.8,129.2c0.1,0.2,0.1,0.3,0.1,0.3
	S139.9,129.4,139.8,129.2z"/>
<path style="fill:#FFFFFF;" d="M100.8,107.1c0,0,1,8.9,8.9,14.9c7.8,6.1,7.8,6.1,7.8,6.1s-3.5-1.6-6.8-0.3
	c-3.3,1.2-9.2,5.2-10.6,6.6c-1.4,1.4-3.5,2.6-3.5,2.6s-1.4-18.4-1.2-20.1c0.2-1.7,1-7.1,1.2-7.6c0.2-0.5,1-2.8,2.1-3.1
	C99.8,105.7,100.8,107.1,100.8,107.1z"/>
<path style="fill:#FFFFFF;" d="M124.6,127.9c0,0,12.8-8.9,17.5-13.7c4.7-4.9,8.2-7.8,8.3-11.1c0.2-3.3-0.5-5.5-0.5-6.4
	c0-0.7-0.1-3.4-0.1-3.4s4.8,5.1,5.3,10.5c0.5,5.4,0.3,16-1,21.9c-1.4,5.9-2.1,12-2.1,12.8c0,0.9-15.1-7.6-18.9-9
	C129.3,128.1,126,128.1,124.6,127.9z"/>
<path style="fill:#231F20;stroke:#231F20;stroke-width:0.5;stroke-miterlimit:10;" d="M79.2,722.6l-0.4,5.5l-0.2,5.1
	c0,0-4.4,2.8-8.5,3.6c-4,0.8-10.4,0.8-12.1,2.3c-1.7,1.5-1.1,5.5-5.9,8.5c-4.9,3-14,7.8-23.5,8.3c-9.5,0.4-22.7,1.3-23.5-0.6
	c-0.8-1.9-1.1-3.8-1.1-3.8s0.4-0.2,0.8-1.9c0.4-1.7,0.6-4.2,1.3-4.9c0.6-0.6,3.4-2.3,4.9-5.3c1.5-3,5.7-8.1,8.9-11
	c3.2-3,5.9-3.6,10.8-12.9c4.9-9.3,6.3-11.9,8.5-12.5c2.1-0.6,27.7,2.8,28.8,3.8c1.1,1.1,10.6,8.9,10.8,9.8
	C79,717.3,79.2,722.6,79.2,722.6z"/>
<path style="fill:#231F20;stroke:#231F20;stroke-width:0.5;stroke-miterlimit:10;" d="M161.8,717.3c0,0,0.9,3.6,1.1,7.2
	c0.2,3.6,0,5.9,0.6,6.4c0.6,0.4,0.4,1.7,4,2.8c3.6,1.1,5.1,2.1,7.2,2.3c2.1,0.2,4.7,0,5.7-0.4c1.1-0.4,1.1-0.4,1.1-0.4
	s2.1,5.9,3,9.3c0.8,3.4,5.3,5.9,13.6,8.3c8.3,2.3,14.2,2.5,22.4,1.7c8.3-0.8,13.6-1.5,13.8-2.1c0.2-0.6,1.1-3.2,0-4.7
	c-1.1-1.5-2.1-1.7-2.1-1.7s1.5-2.3-0.4-3.8c-1.9-1.5-2.3-2.3-3.2-3c-0.8-0.6,0.6-0.4-1.7-4.4c-2.3-4-6.1-5.7-7.6-8
	c-1.5-2.3-11.4-12.3-14.8-21.4c-3.4-9.1-12.5-10-15.5-9.3C185.9,696.6,161.3,704,161.8,717.3z"/>
<linearGradient id="SVGID_8_" gradientUnits="userSpaceOnUse" x1="28.7462" y1="521.4158" x2="119.7756" y2="521.4158">
	<stop  offset="0" style="stop-color:#6A6A6C"/>
	<stop  offset="9.014202e-02" style="stop-color:#78787A"/>
	<stop  offset="0.2397" style="stop-color:#8A8C8E"/>
	<stop  offset="0.3436" style="stop-color:#929497"/>
	<stop  offset="0.9264" style="stop-color:#808184"/>
</linearGradient>
<path style="fill:url(#SVGID_8_);" d="M35.1,432.8c0,0-0.5,57.9-0.5,63.9c0,6-3.2,93.1-3.2,102.8c0,9.7,0,42.6-1.4,49.1
	c-1.4,6.5-1.9,43.5,0,49.1c1.9,5.6,4.6,5.6,4.6,5.6l-1.9,4.6c0,0,8.3,0,15.3,4.2c6.9,4.2,17.6,4.6,22.2,7.9c4.6,3.2,7.9,6,8.8,4.2
	c0.9-1.8,0.9-5.1,3.2-8.3c2.3-3.2,5.1-1.4,4.2-8.8c-0.9-7.4,0-11.1-3.2-15.7c-3.2-4.6-6.9-4.2-2.3-24.1c4.6-19.9,4.6-37.5,4.6-49.1
	c0-11.6,10.2-71.8,11.6-82.9c1.4-11.1,15.7-56,17.1-64.8c1.4-8.8,3.7-22.7,4.2-33.3c0.5-10.6,0-37,0.5-49.1
	c0.5-12,0.9-44.4,0.9-48.1c0-3.7-9.7-20.4-9.7-20.4s-30.6-4.2-40.3,3.2C60.1,330.1,35.1,432.8,35.1,432.8z"/>
<linearGradient id="SVGID_9_" gradientUnits="userSpaceOnUse" x1="114.2181" y1="518.923" x2="209.149" y2="518.923">
	<stop  offset="1.840490e-02" style="stop-color:#797C7E"/>
	<stop  offset="0.5276" style="stop-color:#929497"/>
	<stop  offset="0.769" style="stop-color:#8F9093"/>
	<stop  offset="0.9461" style="stop-color:#858689"/>
	<stop  offset="1" style="stop-color:#808184"/>
</linearGradient>
<path style="fill:url(#SVGID_9_);" d="M114.2,425.9c0,0,8.3,38,11.1,50.9c2.8,13,10.6,31,12.5,39.4c1.8,8.3,12.5,55.1,13.4,62
	c0.9,6.9,2.3,22.7,1.4,35.6c-0.9,13-1.4,44.9,0.5,55.5c1.9,10.6,7.4,20.4,7.4,20.4s-1.4,6.9-3.2,8.8c-1.8,1.9-2.8,5.1-2.8,6.5
	c0,1.4,4.2,8.8,5.1,12c0.9,3.2,2.8,3.7,5.1,3.7c2.3,0,20.8-11.1,25.9-11.1c5.1,0,14.8-0.9,14.8-0.9s0-7.9,0-10.6
	c0-2.8,2.3-16.2,2.3-18.1c0-1.9,1.4-24.5,1.4-27.3c0-2.8,0.5-31.5-1.8-53.7c-2.3-22.2-2.8-56-2.8-63.9c0-7.9,4.6-18.5,4.6-35.6
	c0-17.1-0.5-38.9-2.3-80.6c-1.8-41.7-6.5-87.5-15.3-92.1c-8.8-4.6-70.4-9.7-70.4-9.7S115.6,416.6,114.2,425.9z"/>
<linearGradient id="SVGID_10_" gradientUnits="userSpaceOnUse" x1="75.4829" y1="445.5991" x2="75.4829" y2="113.4046">
	<stop  offset="0.319" style="stop-color:#929497"/>
	<stop  offset="0.5276" style="stop-color:#686B6D"/>
	<stop  offset="0.6258" style="stop-color:#818385"/>
	<stop  offset="0.7055" style="stop-color:#929497"/>
</linearGradient>
<path style="fill:url(#SVGID_10_);stroke:#636667;stroke-width:5.449400e-02;stroke-miterlimit:10;" d="M92.5,113.9
	c0,0-12.5,8.3-26.4,13c-13.9,4.6-33.3,14.4-33.3,14.4l-0.5,35.2c0,0,8.3,29.2,8.3,30.6c0,1.4,7.9,28.2,8.3,32.9c0.5,4.6,6,23.6,6,25
	c0,1.4-1.9,20.4-3.2,24.5c-1.4,4.2-1.9,19-4.2,25c-2.3,6-10.6,33.3-12,56c-1.4,22.7-1.9,54.2-1.9,60.2c0,6,1.9,10.2,7.9,11.1
	c6,0.9,28.7,5.1,36.6,3.7c7.9-1.4,11.6-1.8,18.5-22.2c6.9-20.4,16.2-80.1,18.1-92.1c1.9-12,6.5-66.7,2.3-89.3
	c-4.2-22.7-6.5-26.8-7.4-28.7c-0.9-1.9-17.1-50.9-16.2-73.1C94.3,117.6,95.7,111.6,92.5,113.9z"/>
<path style="fill:#929497;stroke:#808184;stroke-width:5.449400e-02;stroke-miterlimit:10;" d="M32.7,141.2c0,0-3.7,0-4.6,1.9
	c-0.9,1.9-2.3,22.2-3.7,27.8c-1.4,5.6-3.7,17.1-5.6,21.3c-1.9,4.2-5.6,16.7-5.6,19c0,2.3-2.8,19.4-3.2,21.3
	c-0.5,1.9-0.9,17.6-1.4,19c-0.5,1.4-3.7,9.3-5.1,12c-1.4,2.8-3.2,19.4,1.4,25.9c4.6,6.5,9.3,12.5,16.7,14.4
	c7.4,1.8,15.3,2.3,22.2,2.8c6.9,0.5,16.7,2.3,19,1.8c2.3-0.5,10.6-2.3,13.4-10.6c2.8-8.3,2.8-31,0.5-36.1c-2.3-5.1-3.2-6-7.9-6.5
	c-4.6-0.5-13.9-0.5-13.9-0.5s-3.7-33.8-7.4-52.8c-3.7-19-10.6-47.2-11.6-51.8C35.1,145.3,32.7,141.2,32.7,141.2z"/>
<path style="fill:#929497;stroke:#636667;stroke-width:5.449400e-02;stroke-miterlimit:10;" d="M97.1,107.9c0,0-1.9,4.2-6,9.7
	c-4.2,5.6-5.1,9.3-13.4,13.9c-8.3,4.6-11.6,6.9-11.6,6.9l8.8,4.2l-9.7,7.9c0,0,16.2,35.2,27.8,51.8c7.6,10.9,7.7,9.6,24.1,39.3
	c0,0-7.9-35.6-10.7-50c-2.8-14.4-6.5-19.4-7.9-45.8C97.1,119.4,96.6,108.8,97.1,107.9z"/>
<linearGradient id="SVGID_11_" gradientUnits="userSpaceOnUse" x1="168.1182" y1="448.6232" x2="168.1182" y2="108.3143">
	<stop  offset="0.2761" style="stop-color:#929497"/>
	<stop  offset="0.5153" style="stop-color:#6B6F71"/>
	<stop  offset="0.6218" style="stop-color:#808385"/>
	<stop  offset="0.7239" style="stop-color:#929497"/>
</linearGradient>
<path style="fill:url(#SVGID_11_);stroke:#636667;stroke-width:5.449400e-02;stroke-miterlimit:10;" d="M157.7,108.3
	c0,0,17.1,12,27.3,15.7c10.2,3.7,17.6,7.4,24.1,10.6c6.5,3.2,13.4,5.6,15.7,7.9c2.3,2.3-13,75.5-13.4,81.9c-0.5,6.5-6.5,35.2-9.3,50
	c-2.8,14.8-3.7,39.3-0.9,47.7c2.8,8.3,9.7,43,9.7,51.8c0,8.8,2.3,37.5,1.9,42.6c-0.5,5.1-0.5,20.8-2.8,24.1c-2.3,3.2-33.3,6-43,6.9
	c-9.7,0.9-19.9,1.9-26.4-0.5c-6.5-2.3-15.7-19.4-16.7-29.2c-0.9-9.7-10.6-77.3-11.1-87.9c-0.5-10.6-3.2-51.8-0.5-69.4
	c2.8-17.6,8.3-41.7,16.7-53.2c8.3-11.6,32.4-64.8,32.9-74.5C162.4,123.1,157.7,108.3,157.7,108.3z"/>
<path style="fill:#929497;stroke:#636667;stroke-width:5.449400e-02;stroke-miterlimit:10;" d="M154.5,100c0,0,6.5,7.9,9.3,11.1
	c2.8,3.2,13,6.9,16.2,13.4c3.2,6.5,5.6,12,5.6,12l-12,3.7l12,10.2c0,0-27.3,36.6-35.6,46.8C141.5,207.4,118,234,118,234
	s13.3-43.3,17.5-55.8c4.2-12.5,7.9-22.2,12.5-36.1c4.6-13.9,8.3-23.6,8.3-30.6C156.3,104.6,155.9,102.3,154.5,100z"/>
<path style="fill:#929497;stroke:#808184;stroke-width:5.449400e-02;stroke-miterlimit:10;" d="M225,143c0,0-7.4,8.8-10.7,15.7
	c-3.2,6.9-15.7,37-17.1,51.4c-1.4,14.4-0.5,31-0.5,40.7c0,9.7,0,12.5,0,12.5l-5.6-0.9c0,0-19-1.9-23.6-1.9c-4.6,0-13-0.5-14.4,0
	c-1.4,0.5-5.6,23.1-5.6,34.7c0,11.6,7.4,19.4,7.4,19.4l0.1,1.8c0,0,14.6,0.4,31.6-1.4c17-1.8,34.4-4.7,41.4-6.4
	c7-1.6,10.2-2.3,15.4-10.9c5.1-8.6,7-6.2,7-11.1c0-4.9-1.8-9.6-2.7-18.9c-0.8-9.2-0.6-17-2-24.8c-1.4-7.8-4.5-16.2-4.5-19.9
	c0-3.7-3.5-19.5-4.5-24.4c-1-4.9-1.8-9-2.1-12.7c-0.2-3.7-4.3-6.4-4.7-11.9c-0.4-5.5,0.2-10.5,0.6-17.2
	C231,150.3,231.4,144.4,225,143z"/>
<path style="fill:#6E6F71;" d="M236.1,268.9l-0.8-0.7l-5.5-4.9c0,0-4.6-1.5-5.9-2c-1.3-0.5-6.5-3.4-8.1-4c-1.6-0.7-4.2-1.7-6.4-1.8
	c-2.2-0.1-8,1.2-9.4,1.8c-1.4,0.6-5.2,2.7-5.2,2.7l12.8-5.7l5.3-0.1c0,0,4.3,1.4,6.4,1.8c2.1,0.5,7.8,2,9.1,2.6
	c1.3,0.5,7.2,6.3,7.2,6.3L236.1,268.9z"/>
<path style="fill:#6E6F71;" d="M46.4,192.6c0,0,5.6,17.7,5.6,21.5c0,3.8,1.7,15.6,2.1,19.8c0.3,4.2,3.1,18.4,3.1,19.4
	c0,1-2.1,1.4-2.1,1.4l-4.5-29.9l-1.7-15.3L46.4,192.6z"/>
<path style="fill:#6E6F71;" d="M44.1,258.3l-1-0.4l-6.9-2.4c0,0-4.9,0.3-6.2,0.3c-1.4,0-7.3-0.7-9-0.7c-1.7,0-4.5,0-6.6,0.7
	c-2.1,0.7-6.9,4.2-8,5.2c-1,1-3.8,4.5-3.8,4.5l9.7-10.1l4.9-2.1c0,0,4.5-0.3,6.6-0.7c2.1-0.3,8-1,9.4-1c1.4,0,9,3.1,9,3.1
	L44.1,258.3z"/>
<path style="fill:#595A5C;" d="M69,305.1c0,0,6.4-6.4,6.7-12.1c0.2-3.9,1-10.4,1-10.4l-4.9,4.2c0,0-1.7-1-3.8-1.7
	c-2.1-0.7-3.8-1-4.2-2.1c-0.3-1-1.7-4.9-1.7-4.9l-0.7,8.7c0,0,3.1,11.5,3.5,12.8C65.3,301,69,305.1,69,305.1z"/>
<path style="fill:#595A5C;" d="M149.9,289.2c0,0,0.4,6.9,0.7,10.4c0.3,3.5,2.6,10.4,3.2,12.2c0.6,1.7,1,3.8,2.2,2.1
	c1.3-1.7,4.5-5.9,4.5-11.5c0-5.6,1.9-9,1.9-12.8c0-3.8-2.2-6.6-3.2-6.6C158.3,282.9,149.9,289.2,149.9,289.2z"/>
<path id="hair" style="fill:#231F20;" d="M92.2,67.6c0,0,1.8-4,1.8-4.4c0-0.5-0.9-8.4-0.9-8.4s0.5-5.8,0.9-6.4
	c0.5-0.6,3.3-6.1,3.5-9c0.2-2.9-2-8.7-1.5-10.9c0.5-2.1,0.3-4.1,3-6.1c2.7-2,4.9-3.3,10.2-2.7c5.3,0.6,6.4,0,13.8,0.6
	c7.4,0.6,14.6-1,17.9-0.4c3.3,0.6,8.7,4,9.5,5.6c0.8,1.5-0.8,6.5-0.8,9.5c0,3.1-0.9,4.9,0.8,8.2c1.7,3.3,3,10.7,3,12.7
	c0,2-1.1,9-0.6,11c0.5,2,1.8,2.1,1.8,2.1s0.8-9,2.6-12.5c1.8-3.5,3.5-8.8,3.5-13.4c0-4.6-1.1-16.2-3.2-21.5
	c-1.2-3-4.1-10.1-11.2-14.7c-5.3-3.4-11.9-6.7-21.1-6.3C101.2,1.6,93,15.6,93,15.6s-3.3,4.4-3.7,5.3c-0.3,0.9-3.8,7.2-3.8,7.9
	c0,0.8-1.7,10.5-1.7,11.9c0,1.4,0.3,9.1,0.9,10.5c0.6,1.4,2.6,0.9,3.2,2.9c0.6,2,3.2,13,3.2,13L92.2,67.6z"/>
<path style="fill:#FFFFFF;" d="M152,298.5c0,0,0.4,1.7,2.3,1.8c1.8,0.1,2.3,1.1,3.7-0.1c1.4-1.2,2.8-3,3-4c0.2-0.9,0.3-0.8,0.3-0.4
	s-0.4,3.6-0.4,4.1c-0.1,0.4-0.1,1.8-0.2,2.1c-0.1,0.3-1.7,0.7-3.8,0.3c-2.1-0.4-3.1-0.5-3.9-1.5c-0.8-1-1.5-1.4-1.5-2.1
	c0-0.7,0.1-0.6,0.4-0.2"/>
<path style="fill:#FFFFFF;" d="M66.5,265.8c0,0-2.9,4.7-3.3,5.6c-0.3,0.7-1.7,5.5-2.4,8.7c-0.3,1.2-0.5,2.3-0.5,2.7
	c0,1.6,1.2,9.6,1.3,11c0,1.4,0.6,4.6,1.7,4.5c1.2,0,4.6-0.6,6-1.1c1.4-0.5,6.1-4.3,6.1-4.3l0.4-1.2l-2.1-1.1c0,0-1.8,1.2-2.7,2.2
	c-0.9,1-0.2,1.6-1.6,1.9c-1.4,0.3-0.9,1.9-2.3,0.5c-1.4-1.3-3.5-1.3-4-4c-0.5-2.7-2.3-6.4-1.7-9.4C62,278.9,66.5,265.8,66.5,265.8z"
	/>
<path id="right-hand" style="fill:#F5CAB3;" d="M143.1,298.6c-6.5,0.7-18.4,1.2-21.7,1.2c-3.4,0-13.2-0.2-13.9-1.6
	c-0.7-1.4-0.7-2.3-0.7-2.3s-0.2-1.9,3.9-1.8c4.1,0.2,6.9,0.2,12.2,0.2c5.3,0,7.2-0.9,7.2-2.3c0-1.4-0.4-1.2-0.9-2.6
	c-0.5-1.4,1.2-4.6,1.1-7.4c-0.2-2.8,0.2-4.4,0.2-6.9c0-2.5,1.6-6.5-0.4-7.9c-1.9-1.4-3.4-1.8-6.5-2.3c-3.2-0.5-3.9-1.4-6-1.4
	c-2.1,0-2.8-0.5-5.5-0.7c-2.6-0.2-3.4-0.2-3.9-0.9c-0.5-0.7-2.8-3,0.5-3c3.4,0,12.9,0.2,15.4,0.2c2.5,0,7.8,0.2,8.5-0.2
	c0.7-0.4,0.9-3-2.8-3.7c-3.7-0.7-10.8-3.9-12.4-5.5c-0.5-0.5-1.1-1.6-1.6-2.7c-0.2,0.4-0.5,0.8-0.9,1.2c-2.1,2.1-6.6,3.8-9.4,6.9
	c-2.8,3.1-3.1,1.7-4.2,4.5c-1,2.8,0.7,2.8-2.8,9c-3.5,6.3-1.7,8.3-6.9,9.7c-5.2,1.4-10.8,2.4-11.5,0.7c-0.7-1.7-3.8-9.4,0-17.7
	c3.8-8.3,7.3-10.8,7.3-10.8s11.8-1.4,14.6-3.5c2.8-2.1,5.9-3.5,7.6-5.6c1.7-2.1,2.1-2.4,3.8-2.4c0.8,0,1.5,0.1,1.9,0.4
	c0.8-0.7,1.8-1.2,2.7-0.6c1.4,1.1,3.7,3.9,4.9,4.6c1.2,0.7,4.1,1.2,5.5,1.9c1.4,0.7,3.9,1.9,4.9,2.8c1.1,0.9,2.8,1.9,5.1,2.7
	c2.3,0.7,2.8,0.5,3.5,1.4c0.7,0.9,2.6,3.9,3.2,5.1c0.5,1.2,1.9,14.7,2.1,18.2c0.2,3.5,0,15.5-0.5,16.8
	C146.3,293.6,149.7,297.9,143.1,298.6z"/>
<linearGradient id="hand-shadow_1_" gradientUnits="userSpaceOnUse" x1="112.8511" y1="238.6178" x2="112.8511" y2="299.7918">
	<stop  offset="0" style="stop-color:#000000;stop-opacity:0"/>
	<stop  offset="0.9018" style="stop-color:#000000;stop-opacity:0.5"/>
</linearGradient>
<path id="hand-shadow" style="fill:url(#hand-shadow_1_);" d="M143.1,298.6c-6.5,0.7-18.4,1.2-21.7,1.2c-3.4,0-13.2-0.2-13.9-1.6
	c-0.7-1.4-0.7-2.3-0.7-2.3s-0.2-1.9,3.9-1.8c4.1,0.2,6.9,0.2,12.2,0.2c5.3,0,7.2-0.9,7.2-2.3c0-1.4-0.4-1.2-0.9-2.6
	c-0.5-1.4,1.2-4.6,1.1-7.4c-0.2-2.8,0.2-4.4,0.2-6.9c0-2.5,1.6-6.5-0.4-7.9c-1.9-1.4-3.4-1.8-6.5-2.3c-3.2-0.5-3.9-1.4-6-1.4
	c-2.1,0-2.8-0.5-5.5-0.7c-2.6-0.2-3.4-0.2-3.9-0.9c-0.5-0.7-2.8-3,0.5-3c3.4,0,12.9,0.2,15.4,0.2c2.5,0,7.8,0.2,8.5-0.2
	c0.7-0.4,0.9-3-2.8-3.7c-3.7-0.7-10.8-3.9-12.4-5.5c-0.5-0.5-1.1-1.6-1.6-2.7c-0.2,0.4-0.5,0.8-0.9,1.2c-2.1,2.1-6.6,3.8-9.4,6.9
	c-2.8,3.1-3.1,1.7-4.2,4.5c-1,2.8,0.7,2.8-2.8,9c-3.5,6.3-1.7,8.3-6.9,9.7c-5.2,1.4-10.8,2.4-11.5,0.7c-0.7-1.7-3.8-9.4,0-17.7
	c3.8-8.3,7.3-10.8,7.3-10.8s11.8-1.4,14.6-3.5c2.8-2.1,5.9-3.5,7.6-5.6c1.7-2.1,2.1-2.4,3.8-2.4c0.8,0,1.5,0.1,1.9,0.4
	c0.8-0.7,1.8-1.2,2.7-0.6c1.4,1.1,3.7,3.9,4.9,4.6c1.2,0.7,4.1,1.2,5.5,1.9c1.4,0.7,3.9,1.9,4.9,2.8c1.1,0.9,2.8,1.9,5.1,2.7
	c2.3,0.7,2.8,0.5,3.5,1.4c0.7,0.9,2.6,3.9,3.2,5.1c0.5,1.2,1.9,14.7,2.1,18.2c0.2,3.5,0,15.5-0.5,16.8
	C146.3,293.6,149.7,297.9,143.1,298.6z"/>
<path id="left-hand" style="fill:#F5CAB3;" d="M161.1,274c-0.5-2.6-2.3-3.7-3.4-4.9c-1.1-1.2-5.1-6.2-6.4-7.8
	c-1.2-1.6-3.7-3.7-5.1-3.9c-1.4-0.2-7.2-0.7-9-0.7c-1.8,0-3.7-0.3-4.4-0.7c-0.7-0.4-4.4-0.5-5.5-0.9c-1.1-0.4-5.6-1.2-8.8-1.6
	c-3.2-0.4-5.3-0.4-7.6-0.4c-1.6,0-2.6,1.1-3,2.5c-1.7-0.4-6.1-1.7-8.7-2c-2.8-0.3-6.6-1-10.4-1c-3.8,0-6.2-1-8.7,1
	c-2.4,2.1-3.8,6.9-6.2,11.1c-2.4,4.2-1.4,0.1-7.3,6.3c-5.5,5.7-5.5,15.9-4.8,21.1c0.6,4.8,0.9,3.2,3.1,3.4h7.3l5.9,1.7
	c0,0,4.5,0.4,5.6,0c1-0.3,3.1-1.4,5.6-0.7c2.4,0.7,10.4,3.8,12.5,3.8c2.1,0,4.9,1.4,5.9-0.7c0,0,0-0.1,0.1-0.1
	c0.3,0.3,0.7,0.6,1.2,0.8c1.4,0.5,2.1,0.7,8.5,1.2c6.4,0.5,8.3-0.4,13.6-0.4c5.3,0,3.4-0.2,6.2,0.7c2.8,0.9,6.2-0.2,10.9-0.4
	c4.8-0.2,4.9-1.1,7.4-0.9c2.5,0.2,6.2,0.9,6.2,0.9s1.2-3,1.9-11.1C164.3,282.5,161.6,276.7,161.1,274z M136.4,292.9
	c-1.1,0.2-4.4,0.5-5.6,1.1c-1.2,0.5-6,0.4-10.6,0.4c-4.6,0-6-0.4-8.8-0.4c-1.8,0-3.1,0.3-3.9,1.1c-1-0.5-2.7-0.7-6.5-1.8
	c-5.6-1.7-12.2-5.2-12.2-5.2l-4.6-2.8c0,0,12.6,1.8,14.3,2.1c1.7,0.4,4.9,1.7,5.9,0.4c0.2-0.2,0.4-0.5,0.7-0.8
	c0.5,1.4,1.5,2,3.8,2.5c3.2,0.7,7.8,0.5,12,0.3c4.2-0.2,9.9,0.4,13.1,0.5c3.2,0.2,4.6,1.8,4.6,1.8S137.5,292.7,136.4,292.9z
	 M135,280.9c-3,0.4-7.9,0.2-10.9,0c-3-0.2-12.2,0.2-14.1,0.4c-1.1,0.1-2.7,0.3-3.8,1c-1.6-0.8-3.9-2-5.5-2.6
	c-2.1-0.7-9.4-4.2-9.4-4.2l-5.2-2.2l0.9-0.3c2.2,0.2,5,0.4,6.7,0.4c3.1,0,6.6,2.4,9,1c1-0.6,1.9-1.1,2.5-1.5
	c0.8,1.4,2.2,2.1,4.3,2.3c3.2,0.4,10.6,1.4,15,1.6c4.4,0.2,7.8,0.5,11.6,0.7c3.9,0.2,3.9,1.9,3.9,1.9S138,280.6,135,280.9z
	 M137.3,267.5c-2.1,0.9-3.5,0.5-7.2,0.5c-3.7,0-5.3-0.5-9-1.1c-3.7-0.5-8.8-0.4-10.8-0.4c-1.3,0-3.3,0.2-4.5,1.3
	c-0.5-0.5-1.1-1-2-1.4c-2.8-1-7.6-0.7-9.7-1.4c-2.1-0.7-5.6-1.7-6.6-1.7c-1,0-1-1.7-1-1.7s3.8,0,7.6,0c3.8,0,8.3,1,10.1,1
	c1.7,0,3.5,1,3.8-2.1c0-0.3,0.1-0.6,0.1-0.9c0.2,0.5,0.5,0.7,0.5,0.7s1.4,1.1,2.6,1.1c1.2,0,4.9,0.5,6.9,0.5c1.9,0,4.8,0.2,9,0.7
	c4.2,0.5,6,1.8,7.1,1.8c1.1,0,6.5,1.2,6.5,1.2S139.4,266.6,137.3,267.5z"/>
</svg>
