<?xml version="1.0" encoding="utf-8"?>
<?xml-stylesheet href="../desktop_app.css" type="text/css"?>
<!-- Generator: Adobe Illustrator 18.1.0, SVG Export Plug-In . SVG Version: 6.00 Build 0)  -->
<svg version="1.1" id="Guide_-_Female_-_Front" class="avatar-guide skin-darker" xmlns="http://www.w3.org/2000/svg" xmlns:xlink="http://www.w3.org/1999/xlink"
	 x="0px" y="0px" viewBox="0 0 214.4 757.6" style="enable-background:new 0 0 214.4 757.6;" xml:space="preserve">
<path id="hair-right" style="fill:#423B38;" d="M115.4,14.6c0,0,11.1,5.5,12.7,8.1c1.6,2.5,3.1,8.8,5.6,21.8
	c2.5,13,3.5,26.7,3.5,30.2c0,3.5,0.9,15.3,1.3,17.5c0.3,2.2,2.1,39.4-5.9,43.8c-8,4.5-10.8-9.5-17.2-9.8
	C109.1,125.9,90,107.5,90,104c0-3.5,0-46.1,0-50.5C90,49,99.9,12.4,115.4,14.6z"/>
<path style="fill:#919396;stroke:#808184;stroke-width:5.767700e-02;stroke-miterlimit:10;" d="M160.2,201.4c0,0-11.8-8-13.6-10.9
	c-1.8-2.9-13.1-12.4-14.7-14.6c-1.6-2.2-6.7-6.8-6.7-6.8s-1.5-5-2.4-14.2c-0.9-9.3-9.1-21.1,11.2-27.9c20.4-6.8,37.3,9.2,39.7,13.9
	C176.1,145.5,180.9,198.5,160.2,201.4z"/>
<path id="foot-right" style="fill:#F5CAB3;" d="M86.3,719.3c0.4,0.9,7.6,15.9,9.2,18.1c1.6,2.2,13.1,4.7,18.4,4.1
	c5.2-0.6,11.5-2.2,13.1-3.7c1.6-1.6,3.9-5.9,3.3-7.5c-0.7-1.6-9.2-8.4-11.2-15c-2-6.6,0.3-9-4.6-10C109.6,704.3,80.4,705,86.3,719.3
	z"/>
<path id="foot-left" style="fill:#F5CAB3;" d="M171,707.8c0,0,4.6,13.4,4.6,15.3c0,1.9,2.6,6.2,5.3,9c2.6,2.8,9.8,8.1,2.3,10.9
	c-7.6,2.8-18.1,8.1-23.3,0.6c-5.2-7.5-12.5-13.4-16.4-19.3c-3.9-5.9-9.8-12.2-9.8-18.4c0-6.2,6.2-17.5,17.7-13.1
	C162.8,697.2,170.4,702.2,171,707.8z"/>
<path id="shoe2" style="fill:#231F20;stroke:#231F20;stroke-width:0.4436;stroke-miterlimit:10;" d="M128.3,728.1
	c0,0,10.8,12.8,12.5,16.2c1.6,3.4,5.6,13.1-8.5,13.1c-14.1,0-25.9-1.9-32.2-4.1c-6.2-2.2-7.2-6.5-9.2-10.6c-2-4.1-1-8.7-2.6-10.9
	c-1.6-2.2-2-3.7-2-3.7v6.5h-3.6c0,0-1-13.7-1.3-15.6c-0.3-1.9-0.3-5.3-0.3-5.3l5.3,5.6c0,0,1.6,2.5,1.6,3.4c0,0.9,5.3,12.8,15.4,14
	c10.2,1.2,18.7,0,22.3-3.1C129.3,730.5,128.3,728.1,128.3,728.1z"/>
<path id="shoe1" style="fill:#231F20;stroke:#231F20;stroke-width:0.4436;stroke-miterlimit:10;" d="M119.8,697.8c0,0-1,4.4,2.3,10
	c3.3,5.6,5.6,10.6,6.2,16.2c0.7,5.6,1.3,13.4,1.3,13.4l4.6,1.3c0,0,0.3-11.5,0.3-15.3c0-3.7,1-5.6,2.3-4.7c1.3,0.9,6.6,6.9,8.5,11.2
	c2,4.4,3,3.4,6.6,11.2c3.6,7.8,1.6,11.5,11.2,14.3c9.5,2.8,20.4,2.8,29.2,1.3c8.9-1.6,9.2-1.3,10.5-2.5c1.3-1.2,1.3-4.4-0.3-6.6
	c-1.6-2.2-14.8-10.9-18.7-13.1c-3.9-2.2-5.5-5.9-5.5-5.9s6.8,6.9,1.9,8.1c-4.9,1.2-15.1,4.1-20,0.3c-4.9-3.7-15.4-15.6-18.7-23.1
	c-3.3-7.5-10.8-19.7-13.8-19.7C124.7,694.4,117.5,693.7,119.8,697.8z"/>
<linearGradient id="SVGID_1_" gradientUnits="userSpaceOnUse" x1="109.7471" y1="507.3926" x2="184.8425" y2="507.3926">
	<stop  offset="1.840490e-02" style="stop-color:#797C7E"/>
	<stop  offset="0.5276" style="stop-color:#929497"/>
	<stop  offset="0.769" style="stop-color:#8F9093"/>
	<stop  offset="0.9461" style="stop-color:#858689"/>
	<stop  offset="1" style="stop-color:#808184"/>
</linearGradient>
<path style="fill:url(#SVGID_1_);" d="M109.9,430.2c0,0,8.3,30.8,8.8,34.5c0.4,3.7,9.6,41.2,13.1,52.4c3.5,11.2,3.1,15.4,3.1,17.5
	c0,2.1-5.2,44.9-6.1,56.6c-0.9,11.6-3.5,37.9-3.9,44.1c-0.4,6.2-3.1,41.6-3.9,46.2c-0.9,4.6-4.4,16.2-1.8,17.5
	c2.6,1.2,29.3,12.5,40.7,12.1c11.4-0.4,11.4-0.4,11.4-0.4s4.8-48.7,4.8-59.9c0-11.2,2.2-49.1,3.1-58.7c0.9-9.6,4.4-51.6,5.3-64
	c0.9-12.5,0.4-56.1-0.4-74.9c-0.9-18.7-4.8-59.9-7-70.7c-2.2-10.8-5.3-39.1-7.4-48.2c-2.2-9.1-5.3-20-8.8-24.1
	c-3.5-4.2-23.6-7.5-30.6-5.8c-7,1.7-19.7,7.9-20.1,13.3c-0.4,5.4,0,104.4,0,104.4V430.2z"/>
<linearGradient id="SVGID_2_" gradientUnits="userSpaceOnUse" x1="33.1232" y1="520.3569" x2="120.0135" y2="520.3569">
	<stop  offset="0.3436" style="stop-color:#929497"/>
	<stop  offset="0.6747" style="stop-color:#8C8E90"/>
	<stop  offset="1" style="stop-color:#808184"/>
</linearGradient>
<path style="fill:url(#SVGID_2_);" d="M33.3,357.5c0,0-1.7,25,4.8,53.2c6.6,28.3,16.6,88.6,15.8,99.4c-0.9,10.8-2.8,57-0.2,74.5
	c2.6,17.5,7.2,67.4,9.4,77.8c2.2,10.4,8.8,48.7,15.3,52.8c6.6,4.2,12.3,5.4,24.5,2.5c12.2-2.9,17.1-4.2,17.1-6.7
	c0-2.5-8.3-36.6-9.2-41.6c-0.9-5-7.7-41.6-6.3-53.7c1.3-12.1,3-42.4,2.2-53.7c-0.7-11.1,3.2-67.8,4.6-82.4
	c1.3-14.6,7.9-89.8,7.9-91.9c0-2.1,1.8-46.6-6.6-54.9C104.3,324.6,41.6,302.6,33.3,357.5z"/>
<rect x="120.1" y="280.8" style="fill:#929497;stroke:#808184;stroke-width:4.834200e-02;stroke-miterlimit:10;" width="38.1" height="44.7"/>
<path style="fill:#808184;stroke:#929497;stroke-width:4.834200e-02;stroke-miterlimit:10;" d="M132.1,296.7c0,0,8.6,25.8,15.2,35.7
	c6.6,9.9,9.2,19.5,15.2,20.7c6,1.1,3-47.3,3-47.3L147.6,293C147.6,293,130,282.2,132.1,296.7z"/>
<path id="face" style="fill:#F5CAB3;" d="M150.5,182.6c-4.6-13.7-15.4-39.9-18.7-45.3c-3.3-5.4-16.6-18.7-16.6-18.7l-1.8-20.5
	c6.8,0.4,11.4-0.7,11.9-4.3c0.6-5.1,0.9-9.2,0.9-9.2s2.9-9.5,3.2-12.4c0.3-2.9,2-10.2,1.4-13.4c-0.6-3.2-3.9-5.4-3.9-7.6
	c0-2.2,0.6-7.9-0.3-11.1c-1-3.2-4.1-14.6-9.8-19.7C110.9,15.3,100.1,8.3,90.3,8c-9.9-0.3-27.3,10.5-29.9,14.6
	c-2.5,4.1-3.8,37.8-2.5,44.8c0.9,4.7,8.6,12.3,14.7,16.7c-0.5,0.5-0.7,1.2-0.7,2.1c0,0-4.6,21.5-5,23.6
	c-0.4,2.1,29.5,74.9,36.2,79.4c6.7,4.6,35.4,14.1,35.4,14.1S155,196.3,150.5,182.6z"/>
<linearGradient id="SVGID_3_" gradientUnits="userSpaceOnUse" x1="84.4381" y1="388.4304" x2="84.4381" y2="113.2918">
	<stop  offset="0.2461" style="stop-color:#96989A"/>
	<stop  offset="0.4712" style="stop-color:#818285"/>
	<stop  offset="0.4889" style="stop-color:#828487"/>
	<stop  offset="0.6806" style="stop-color:#929497"/>
</linearGradient>
<path style="fill:url(#SVGID_3_);" d="M47.5,288.8c-2.3,12.3-7,22.8-9.7,30.8c-4.8,14.6-8.1,35.6-9.2,53.1
	c-0.3,4.2,7.8,10.7,28.7,12.9c20.7,2.2,23.4,3.4,42.9,2.5c18.5-0.8,37.7,4.2,38.5-41.6c0.9-45.8,7-116.4-0.9-137.2
	c-7.9-20.8-27.1-50.7-35-59.1c-7.9-8.3-22.8-29.1-28-33.3c-5.3-4.2-12.7-3.7-12.7-3.7l-35,18.3c0,0,24.9,26.8,24.1,31.2
	C46,190.4,49.7,276.5,47.5,288.8z"/>
<path id="shirt" style="fill:#77ACBB;" d="M141.1,158.7c0,0-15.3,1.8-21.2-0.1c-5.8-2,13.8,51.1,19.9,53.7c6,2.6,7.1-22,7.8-28.2
	C148.2,178,141.1,158.7,141.1,158.7z"/>
<linearGradient id="SVGID_4_" gradientUnits="userSpaceOnUse" x1="150.5958" y1="377.0208" x2="150.5958" y2="120.3727">
	<stop  offset="0.2699" style="stop-color:#8D9092"/>
	<stop  offset="0.4724" style="stop-color:#6B6F71"/>
	<stop  offset="0.5914" style="stop-color:#808385"/>
	<stop  offset="0.7055" style="stop-color:#929497"/>
</linearGradient>
<path style="fill:url(#SVGID_4_);" d="M134.5,280.9c0,0,9.8,48.3,12,52.8c2.2,4.6,13.6,39.2,16.2,41.3c2.6,2.1,15.4,2.9,16.3,0.4
	c0.9-2.5-6.3-50.9-7.2-58.8c-0.9-7.9-9.3-32.4-9.7-41.2c-0.4-8.7,6.6-54.1,7.9-60.3c1.3-6.2,0.9-31.2-1.3-40.3
	c-2.2-9.2-14-36.6-17.9-40.8c-3.9-4.2-4.8-7.1-4.8-7.1l-23.6-6.7c0,0,12.7,21.6,14.9,25.4c2.2,3.7,12.3,45.3,10.5,53.2
	c-1.8,7.9-10.9,37-12.7,42.4C133.1,246.8,133.1,278,134.5,280.9z"/>
<g>
	<path style="fill:#87878B;" d="M69.1,100.8c0,0,14.4,17.6,16.2,21.3c1.8,3.6,14.9,19,19.7,24c4.8,5,25.4,29.4,27.6,33.5
		c2.2,4.1,8.8,19.9,8.8,24c0,4.1,3.1,23.5,3.1,25.3c0,1.8-3.5,5-3.5,5s-10.9-22.2-16.2-31.2c-5.3-9-18.4-24-26.7-31.7
		c-8.3-7.7-23.6-24-25.8-26.2c-2.2-2.3-8.8-10-8.8-10l13.6-2.3l-14-5.4c0,0-2.2-11.8-0.9-14C63.4,110.8,66.4,101.3,69.1,100.8z"/>
</g>
<g>
	<path style="fill:#929497;" d="M68.4,96.7c0,0,14.5,17.6,16.2,21.3c1.8,3.6,14.9,19,19.7,24c4.8,5,25.4,29.4,27.6,33.5
		c2.2,4.1,8.8,19.9,8.8,24c0,4.1,3.1,23.5,3.1,25.3c0,1.8-3.5,5-3.5,5s-10.9-22.2-16.2-31.2c-5.3-9-18.4-24-26.7-31.7
		c-8.3-7.7-23.6-24-25.8-26.2c-2.2-2.3-8.8-10-8.8-10l13.6-2.3l-14-5.4c0,0-2.2-11.8-0.9-14C62.7,106.6,65.7,97.1,68.4,96.7z"/>
	<path style="fill:none;stroke:#808184;stroke-width:5.040400e-02;stroke-miterlimit:10;" d="M68.4,96.7c0,0,14.5,17.6,16.2,21.3
		c1.8,3.6,14.9,19,19.7,24c4.8,5,25.4,29.4,27.6,33.5c2.2,4.1,8.8,19.9,8.8,24c0,4.1,3.1,23.5,3.1,25.3c0,1.8-3.5,5-3.5,5
		s-10.9-22.2-16.2-31.2c-5.3-9-18.4-24-26.7-31.7c-8.3-7.7-23.6-24-25.8-26.2c-2.2-2.3-8.8-10-8.8-10l13.6-2.3l-14-5.4
		c0,0-2.2-11.8-0.9-14C62.7,106.6,65.7,97.1,68.4,96.7z"/>
</g>
<linearGradient id="SVGID_5_" gradientUnits="userSpaceOnUse" x1="109.5095" y1="176.4743" x2="162.8788" y2="180.2063">
	<stop  offset="0.6748" style="stop-color:#929497"/>
	<stop  offset="0.9939" style="stop-color:#6B6F71"/>
</linearGradient>
<path style="fill:url(#SVGID_5_);stroke:#636667;stroke-width:5.040400e-02;stroke-miterlimit:10;" d="M144,232.7
	c0,0,16.6-26.7,17.5-33.5c0.9-6.8-1.7-32.1-3.1-38c-1.3-5.9-7-19.4-9.2-23.1c-2.2-3.6-5.7-5.9-5.7-5.9l-7.9,5.9l0.9-4.1l-22.3-25.3
	l1.8,17.6c0,0,10.1,13.1,12.7,17.2c2.6,4.1,10.1,19.9,12.3,34.4c2.2,14.5-2.2,48.8-3.5,56.1c-1.3,7.2-1.3,12.2-1.3,12.2L144,232.7z"
	/>
<path style="fill:#929497;stroke:#808184;stroke-width:4.834200e-02;stroke-miterlimit:10;" d="M56.1,144.6
	c7.9,15.8,16.2,35.4,16.2,35.4l7,16.6l5.7,14.1l8.3,18.7c0,0,1.8,7.9,3.5,9.1c1.8,1.2,4.4,4.6,11.4,5.4c7,0.8,15.3,1.7,19.7,1.7
	c4.4,0,22.8,2.9,22.8,2.9l22.8,11.2c0,0,2.6,11.2,1.7,13.3c-0.9,2.1-7.4,10.4-12.3,9.6c-4.8-0.8-29.8-2.1-38.5-1.3
	c-8.8,0.8-37.7,1.7-44.7,1.7c-7,0-7.9,1.2-16.2-9.6c-8.3-10.8-37.2-66.9-42.5-89.8c-5.3-22.9-11.4-47.8,8.3-52.8
	C40.9,127.9,48.2,128.8,56.1,144.6z"/>
<path style="fill:#818285;stroke:#6E6F72;stroke-width:0.1571;stroke-miterlimit:10;" d="M158.2,278c-1.7,0.1-3.4,1.1-3.6,2.3
	c-0.3,1.1,0.9,1.9,2.7,1.8c1.7-0.1,3.4-1.1,3.6-2.3C161.1,278.6,159.9,277.8,158.2,278z"/>
<path style="fill:#818285;stroke:#6E6F72;stroke-width:0.1571;stroke-miterlimit:10;" d="M152.4,278.2c-1.7,0.1-3.4,1.1-3.6,2.3
	c-0.3,1.1,0.9,1.9,2.7,1.8c1.7-0.1,3.4-1.1,3.6-2.3C155.4,278.9,154.1,278,152.4,278.2z"/>
<path style="fill:#818285;stroke:#6E6F72;stroke-width:0.1571;stroke-miterlimit:10;" d="M146.1,278.8c-1.7,0.1-3.4,1.1-3.6,2.2
	c-0.3,1.1,0.9,1.9,2.7,1.8c1.7-0.1,3.4-1.1,3.6-2.3C149.1,279.4,147.9,278.6,146.1,278.8z"/>
<path style="fill:#818285;stroke:#6E6F72;stroke-width:0.1571;stroke-miterlimit:10;" d="M140.2,278c-1.7,0.1-3.4,1.1-3.6,2.3
	c-0.2,1.1,0.9,1.9,2.7,1.8c1.7-0.1,3.4-1.1,3.6-2.3C143.2,278.6,142,277.8,140.2,278z"/>
<path style="fill:#919396;stroke:#808184;stroke-width:4.778400e-02;stroke-miterlimit:10;" d="M153,176.6
	c1.8-13.6,25.5-0.2,25.5-0.2s-1.3,3.9,1.8,10.5c3.1,6.7,2.8,14.8,4.4,16.4c1.5,1.6,2.1,8.5,4,11.6c1.9,3.1,5.4,20.7,3.4,25.1
	c-2,4.4-6.4,18.6-13.2,22.8c-6.8,4.2-15.2,6.8-21.2-3.8c-6-10.6-8-19.8-7.8-31.3c0.2-11.5-1.1-17.9,0.2-25.1
	C151.4,195.4,151.2,190.2,153,176.6z"/>
<path style="fill:#D1D3D4;" d="M153.7,172.8c0,0-0.5,5.7,0,8.3c0.5,2.6,2.1,5.7,2.1,5.7s6,5.3,10.7,4.1c4.8-1.2,6.9-6.4,6.9-6.4
	s1.2-4.1,1.2-4.8c0-0.7-0.5-6.7-0.5-6.7s1.1,8.9-6.1,11.6c-4.6,1.7-11.6-0.2-12.8-3.5C154.1,177.8,154.2,180.9,153.7,172.8z"/>
<path id="right-hand" style="fill:#F5CAB3;" d="M154.1,166.1c0,0,1-3.3-1.7-6.5c-2.7-3.3-5-5.2-7.4-8.2c-2.4-2.9-5.2-8.6-6.1-11.8
	c-0.9-3.2,0-4.5-1-8.4c-1-3.8-1.8-5.8-2.2-7.1c-0.3-1.3-3.2-6.4-1.9-8.6c1.3-2.2,2.4-3.1,5.1-1.4c2.7,1.8,3.3,4.3,6,7.6
	c2.7,3.3,10,9,10,9s5.3,2,6.1,5.5c0.8,3.5,3.8,13.8,3.7,14.7c-0.2,0.9-0.1,2.1,2.4,4.4c2.6,2.3,2.3,1.6,4.2,4.4
	c1.9,2.8,2.4,6.5,2.4,8c0,1.5-0.5,8.5-2.4,10.2c-1.9,1.7-6.4,7.8-11.4,4C154.9,178.3,152,176.3,154.1,166.1z"/>
<path id="hair-top" style="fill:#4C4341;" d="M116.1,10.8c-6.7-4.8-9.5-6.4-15.9-7.9C93.8,1.3,88.4,0.3,84,0.7
	C79.5,1,68.7,4.2,71.9,3.8L83,9.2c0,0,1.5,0.2,3.7,0.5c-3.1,4.2-4.9,10.2-5.6,10.8c-1,0.9-11.4,26.7-11.4,26.7h5.4
	c0,0,11.4-6,16.8-9.9c5.4-3.8,14-14.9,15.6-16.2c0.8-0.6,2-2.2,3.1-3.7c0.9,0.4,1.9,0.7,3,1c3.5,1,4.8-0.3,9.9,2.2
	c5.1,2.5,5.1,2.5,5.1,2.5S124,16.6,116.1,10.8z"/>
<path id="hair-left" style="fill:#423B38;" d="M100.4,5.9c0,0-10.2,10.5-12.2,15.6c-2,5.1-6.1,19.4-6.1,24.5c0,5.1-1.2,20-4.1,31.1
	c-2.9,11.1-2.2,24.7-7.9,31.3c-5.7,6.7-12.3,8.6-13.5,9.5c-1.2,1-18.8,9.7-18.8,9.7s5.2-13.1,4.7-21.9c-0.5-8.3,0.6-43.6,1-54.4
	c0.4-10.8,0.1-24.7,13.4-38.1C64.2,5.8,71.9,2,80.4,3C89,3.9,95.9,4.9,100.4,5.9z"/>
<g id="face-shadows">

		<linearGradient id="SVGID_6_" gradientUnits="userSpaceOnUse" x1="4197.9302" y1="-1516.3187" x2="4197.9302" y2="-1523.3842" gradientTransform="matrix(-1.2115 0.2869 0.2304 0.9732 5538.6606 323.6878)">
		<stop  offset="0" style="stop-color:#F5CAB3;stop-opacity:0"/>
		<stop  offset="0.1678" style="stop-color:#F2C6AE;stop-opacity:8.388028e-02"/>
		<stop  offset="0.3809" style="stop-color:#EABCA0;stop-opacity:0.1905"/>
		<stop  offset="0.6187" style="stop-color:#DDAC8A;stop-opacity:0.3093"/>
		<stop  offset="0.8725" style="stop-color:#CD9870;stop-opacity:0.4362"/>
		<stop  offset="1" style="stop-color:#C48E62;stop-opacity:0.5"/>
	</linearGradient>
	<path style="fill:url(#SVGID_6_);" d="M113.2,50.1c-0.7-1.1-2.7-4.5-7.2-5c-4.5-0.5-10.8,3.5-12.9,6.3"/>

		<linearGradient id="SVGID_7_" gradientUnits="userSpaceOnUse" x1="2105.8093" y1="2475.6465" x2="2105.531" y2="2466.3674" gradientTransform="matrix(-0.6735 -2.980000e-02 2.020000e-02 -0.4617 1490.6014 1275.6024)">
		<stop  offset="0" style="stop-color:#F5CAB3;stop-opacity:0"/>
		<stop  offset="0.1626" style="stop-color:#F2C5AD;stop-opacity:8.131462e-02"/>
		<stop  offset="0.3872" style="stop-color:#E8BA9D;stop-opacity:0.1936"/>
		<stop  offset="0.6478" style="stop-color:#DAA885;stop-opacity:0.3239"/>
		<stop  offset="0.9336" style="stop-color:#C89369;stop-opacity:0.4668"/>
		<stop  offset="1" style="stop-color:#C48E62;stop-opacity:0.5"/>
	</linearGradient>
	<path style="fill:url(#SVGID_7_);" d="M129.7,70c-0.3,0.8-1.3,3.1-4.5,3.9c-3.2,0.8-8.2-1-10.2-2.4"/>
	<linearGradient id="SVGID_8_" gradientUnits="userSpaceOnUse" x1="122.741" y1="51.3351" x2="122.741" y2="46.1869">
		<stop  offset="0" style="stop-color:#F5CAB3;stop-opacity:0"/>
		<stop  offset="0.1678" style="stop-color:#F2C6AE;stop-opacity:8.388028e-02"/>
		<stop  offset="0.3809" style="stop-color:#EABCA0;stop-opacity:0.1905"/>
		<stop  offset="0.6187" style="stop-color:#DDAC8A;stop-opacity:0.3093"/>
		<stop  offset="0.8725" style="stop-color:#CD9870;stop-opacity:0.4362"/>
		<stop  offset="1" style="stop-color:#C48E62;stop-opacity:0.5"/>
	</linearGradient>
	<path style="fill:url(#SVGID_8_);" d="M118.5,50.2l8.4,1.2c0-0.1,0-0.3,0-0.4c0-1,0.1-2.8,0.2-4.6c-0.5-0.1-0.9-0.1-1.4-0.1
		C121.4,46.3,119.2,49.2,118.5,50.2z"/>

		<linearGradient id="hand-shadow_1_" gradientUnits="userSpaceOnUse" x1="-554.0912" y1="1065.4916" x2="-568.0692" y2="996.9791" gradientTransform="matrix(0.9798 0.1999 -0.1999 0.9798 909.4947 -749.9913)">
		<stop  offset="0" style="stop-color:#F5CAB3;stop-opacity:0"/>
		<stop  offset="0.3868" style="stop-color:#E0AF8F;stop-opacity:0.1934"/>
		<stop  offset="1" style="stop-color:#C48E62;stop-opacity:0.5"/>
	</linearGradient>
	<path id="hand-shadow" style="fill:url(#hand-shadow_1_);" d="M154.1,166.1c0,0,1-3.3-1.7-6.5c-2.7-3.3-5-5.2-7.4-8.2
		c-2.4-2.9-5.2-8.6-6.1-11.8c-0.9-3.2,0-4.5-1-8.4c-1-3.8-1.8-5.8-2.2-7.1c-0.3-1.3-3.2-6.4-1.9-8.6c1.3-2.2,2.4-3.1,5.1-1.4
		c2.7,1.8,3.3,4.3,6,7.6c2.7,3.3,10,9,10,9s5.3,2,6.1,5.5c0.8,3.5,3.8,13.8,3.7,14.7c-0.2,0.9-0.1,2.1,2.4,4.4
		c2.6,2.3,2.3,1.6,4.2,4.4c1.9,2.8,2.4,6.5,2.4,8c0,1.5-0.5,8.5-2.4,10.2c-1.9,1.7-6.4,7.8-11.4,4
		C154.9,178.3,152,176.3,154.1,166.1z"/>
	<linearGradient id="neck-shadow_1_" gradientUnits="userSpaceOnUse" x1="93.8904" y1="137.2364" x2="93.8904" y2="87.126">
		<stop  offset="0.195" style="stop-color:#F5CAB3;stop-opacity:0"/>
		<stop  offset="0.5892" style="stop-color:#EEBA9C;stop-opacity:0.2637"/>
		<stop  offset="0.9424" style="stop-color:#E6AB86;stop-opacity:0.5"/>
	</linearGradient>
	<path id="neck-shadow" style="fill:url(#neck-shadow_1_);" d="M113.4,98.2c-3.1,0.3-6.1,0.1-9.5-0.5c-11.8-1.9-27.7-10.6-27.7-10.6
		c-0.5,3.4-1,11.3-3,15.5c-0.9,1.9,31,29.7,37.6,34.3C117.5,141.5,113.4,98.2,113.4,98.2z"/>
</g>
<path id="left-hand" style="fill:#F5CAB3;" d="M175.1,142.9c-1.2-2.9-3-10.2-3-10.2s-2-2.1-4-2.5c-0.7-0.1-1.8-0.6-3.1-1.1
	c-0.7-0.7-1.4-1.6-1.8-2.3c-0.9-1.6-2.9-5.6-4-6.9c-1.2-1.2-1.9-2.6-4.4-2.1c-2.5,0.5-5.6-0.1-7.4,0.5c-1.8,0.7-3.7,1.5-4.8,1.8
	c-1.1,0.4-2.8,1-2.6,2.7c0.3,1.7,2.1,3.7,4.2,3.3c2.1-0.4,9-1.8,10-0.6c0.1,0.1,0.1,0.2,0.2,0.3c-1.3-0.2-2.3,0-3.7,0.9
	c-2.4,1.5-5.8,3.8-8.1,6c-2.2,2.2-5.1,3.3-5.5,5.2c-0.4,1.9-1.4,2.7,0.3,3c1.7,0.3,3.1,1.5,8-2.3c5-3.8,5.6-6.1,8.8-6.2
	c3.2,0,10.8,1.8,10.8,1.8s-13.8-3.3-21.5,6.9c-4.5,6-5.7,7.2-5.9,7.4c0,0,0,0.1,0,0.2c-0.2,1.1,0.7,3.5,1.7,3.4c0.9,0,3.3,0.8,6.2-2
	c-0.5,0.9-1,1.8-1.4,2.8c0,0-0.5,1.7,0.8,1.7c1.4,0.1,5.4-0.9,7.4-3.3c2.1-2.5,2-0.9,3.5-1.7c1.6-0.8,2.5-2.6,2.5-2.6s1.2,0,3,2.6
	c1.9,2.6,1,1.8,0.1,5.3c-0.9,3.6-3.2,4.9-1.9,8.2c1.3,3.4,4,9.4,11.6,4.6c0,0,0.8-8.1,1.4-11.3C173.3,153.1,176.3,145.8,175.1,142.9
	z M150.7,143.5c1.1-1.3,2.1-2.3,3.4-2.8c2.3-0.9,5-1.2,7.3-0.9C158.7,139.6,154.7,140.1,150.7,143.5z"/>
</svg>
