<svg xmlns="http://www.w3.org/2000/svg" id="Guide-Male-Front" class="avatar-guide skin-darker" viewBox="0 0 250.5 757.4">
  <style>
    <!-- avatar specific shading styles -->
    #Guide-Male-Front .st1{fill:url(#pant-left-shade_1_);}
    #Guide-Male-Front .st2{fill:url(#pant-right-shade_1_);}
    #Guide-Male-Front .eye-left-shade{fill:url(#eye-left-shade_1_);}
    #Guide-Male-Front .nose-shade{fill:url(#nose-shade_1_);}
    #Guide-Male-Front .eye-right-shade{fill:url(#eye-right-shade_1_);}
    #Guide-Male-Front .st7{fill:#FFFFFF;}
    #Guide-Male-Front .st8{fill:url(#shirt-shade_2_);}
    #Guide-Male-Front .st10{fill:url(#suit-left-shade_1_);}
    #Guide-Male-Front .st11{fill:url(#suit-right-shade_1_);}
    #Guide-Male-Front .st12{opacity:0.2;}
    #Guide-Male-Front .st13{opacity:0.25;}
    #Guide-Male-Front .hand-shade{fill:url(#hand-shade_1_);}
    #Guide-Male-Front .neck-shade{fill:url(#neck-shade_1_);}
  </style>
  <path id="shoe-right-color" d="M79.2 722.6l-.4 5.5-.2 5.1s-4.4 2.8-8.5 3.6c-4 .8-10.4.8-12.1 2.3-1.7 1.5-1.1 5.5-5.9 8.5-4.9 3-14 7.8-23.5 8.3-9.5.4-22.7 1.3-23.5-.6-.8-1.9-1.1-3.8-1.1-3.8s.4-.2.8-1.9.6-4.2 1.3-4.9c.6-.6 3.4-2.3 4.9-5.3s5.7-8.1 8.9-11c3.2-3 5.9-3.6 10.8-12.9s6.3-11.9 8.5-12.5c2.1-.6 27.7 2.8 28.8 3.8 1.1 1.1 10.6 8.9 10.8 9.8.2.7.4 6 .4 6z"/>
  <path id="shoe-left-color" d="M161.8 717.3s.9 3.6 1.1 7.2c.2 3.6 0 5.9.6 6.4.6.4.4 1.7 4 2.8s5.1 2.1 7.2 2.3c2.1.2 4.7 0 5.7-.4l1.1-.4s2.1 5.9 3 9.3c.8 3.4 5.3 5.9 13.6 8.3 8.3 2.3 14.2 2.5 22.4 1.7 8.3-.8 13.6-1.5 13.8-2.1s1.1-3.2 0-4.7-2.1-1.7-2.1-1.7 1.5-2.3-.4-3.8-2.3-2.3-3.2-3c-.8-.6.6-.4-1.7-4.4s-6.1-5.7-7.6-8-11.4-12.3-14.8-21.4c-3.4-9.1-12.5-10-15.5-9.3-3.1.5-27.7 7.9-27.2 21.2z"/>
  <path id="pant-color" d="M207.3 599c-2.3-22.2-2.8-56-2.8-63.9s4.6-18.5 4.6-35.6-.5-38.9-2.3-80.6-6.5-87.5-15.3-92.1c-8.8-4.6-70.4-9.7-70.4-9.7s-41.6-1.7-51.3 5.7c-9.7 7.3-34.7 110-34.7 110s-.5 57.9-.5 63.9-3.2 93.1-3.2 102.8 0 42.6-1.4 49.1-1.9 43.5 0 49.1c1.9 5.6 4.6 5.6 4.6 5.6l-1.9 4.6s8.3 0 15.3 4.2c6.9 4.2 17.6 4.6 22.2 7.9 4.6 3.2 7.9 6 8.8 4.2.9-1.8.9-5.1 3.2-8.3s5.1-1.4 4.2-8.8c-.9-7.4 0-11.1-3.2-15.7s-6.9-4.2-2.3-24.1c4.6-19.9 4.6-37.5 4.6-49.1s10.2-71.8 11.6-82.9c1.4-11.1 15.7-56 17.1-64.8 1.1-7.2 2.9-17.9 3.8-27.3 2.6 11.8 5.8 26.5 7.3 33.6 2.8 13 10.6 31 12.5 39.4 1.8 8.3 12.5 55.1 13.4 62 .9 6.9 2.3 22.7 1.4 35.6-.9 13-1.4 44.9.5 55.5 1.9 10.6 7.4 20.4 7.4 20.4s-1.4 6.9-3.2 8.8c-1.8 1.9-2.8 5.1-2.8 6.5s4.2 8.8 5.1 12 2.8 3.7 5.1 3.7 20.8-11.1 25.9-11.1c5.1 0 14.8-.9 14.8-.9v-10.6c0-2.8 2.3-16.2 2.3-18.1 0-1.9 1.4-24.5 1.4-27.3s.5-31.5-1.8-53.7z" class="pant-color"/>
  <linearGradient id="pant-left-shade_1_" x1="28.7555" x2="119.8" y1="238.4111" y2="238.4111" gradientUnits="userSpaceOnUse" gradientTransform="matrix(1 0 0 -1 0 760)">
    <stop offset="0" stop-opacity=".25"/>
    <stop offset=".4" stop-color="#231F20" stop-opacity="0"/>
    <stop offset=".6" stop-color="#231F20" stop-opacity="0"/>
    <stop offset="1" stop-opacity=".15"/>
  </linearGradient>
  <path id="pant-left-shade" d="M119.8 340.1v-.1c0-3.7-9.7-20.4-9.7-20.4s-30.6-4.2-40.3 3.2c-9.7 7.3-34.7 110-34.7 110s-.5 57.9-.5 63.9-3.2 93.1-3.2 102.8 0 42.6-1.4 49.1-1.9 43.5 0 49.1c1.9 5.6 4.6 5.6 4.6 5.6l-1.9 4.6s8.3 0 15.3 4.2c6.9 4.2 17.6 4.6 22.2 7.9 4.6 3.2 7.9 6 8.8 4.2.9-1.8.9-5.1 3.2-8.3s5.1-1.4 4.2-8.8c-.9-7.4 0-11.1-3.2-15.7s-6.9-4.2-2.3-24.1c4.6-19.9 4.6-37.5 4.6-49.1s10.2-71.8 11.6-82.9c1.4-11.1 15.7-56 17.1-64.8 1.1-7.2 2.9-17.9 3.8-27.3-2.1-9.6-3.8-17.3-3.8-17.3 1-6.4 3.9-55.8 5.6-85.8z" class="st1"/>
  <linearGradient id="pant-right-shade_1_" x1="122.3121" x2="226.0124" y1="522.5378" y2="504.2527" gradientUnits="userSpaceOnUse">
    <stop offset="0" stop-opacity=".25"/>
    <stop offset=".4" stop-color="#231F20" stop-opacity="0"/>
    <stop offset=".6" stop-color="#231F20" stop-opacity="0"/>
    <stop offset="1" stop-opacity=".15"/>
  </linearGradient>
  <path id="pant-right-shade" d="M207.3 599c-2.3-22.2-2.8-56-2.8-63.9s4.6-18.5 4.6-35.6-.5-38.9-2.3-80.6-6.5-87.5-15.3-92.1c-8.8-4.6-70.4-9.7-70.4-9.7s-.5 9.6-1.3 23c-1.7 30-4.6 79.3-5.6 85.8 0 0 1.7 7.7 3.8 17.3 2.6 11.8 5.8 26.5 7.3 33.6 2.8 13 10.6 31 12.5 39.4 1.8 8.3 12.5 55.1 13.4 62 .9 6.9 2.3 22.7 1.4 35.6-.9 13-1.4 44.9.5 55.5 1.9 10.6 7.4 20.4 7.4 20.4s-1.4 6.9-3.2 8.8c-1.8 1.9-2.8 5.1-2.8 6.5s4.2 8.8 5.1 12 2.8 3.7 5.1 3.7 20.8-11.1 25.9-11.1c5.1 0 14.8-.9 14.8-.9v-10.6c0-2.8 2.3-16.2 2.3-18.1 0-1.9 1.4-24.5 1.4-27.3s.5-31.5-1.8-53.7z" class="st2"/>
  <path id="face-color" d="M157.9 53.9c-.1-2.5-1.2-6.3-3.5-3.5-.3.3-.5.6-.7.9 1.5-6.7 2.1-14.7 1.7-19-.5-4.9-3.9-21.1-13.2-25s-26.7-4.9-38.9 1-12.9 18.6-14.6 26.5c-1 4.7-.5 11.3.2 17.4-.3-.4-.6-.8-1-1.2-2.9-3.1-4 1.4-4 4.4 0 2.4 1.1 5.3 1.1 13.7 0 8.3 2.4 9.2 4.4 9.7s4.3-1.9 4.3-1.9l.5-.9v1.8s1 2.4 3.4 10.8c2.4 8.3 3.4 18.6 3.4 18.6s1.4 5 1.9 9.9 14.3 14.9 23.6 12c9.3-2.9 26.7-19.1 23.4-32.9-.1-6.6-.5-8.2 0-10.4.2-1 1.2-6.3 2.2-12.3.9.7 2 1.3 2.8 1 1.6-.5 3.4-2.5 3-9.5-.4-7 .1-9.1 0-11.1z" class="skin-color"/>
  <linearGradient id="eye-left-shade_1_" x1="407.3727" x2="405.5045" y1="1270.6322" y2="1276.6754" gradientUnits="userSpaceOnUse" gradientTransform="matrix(1.1619 0.4472 0.3592 -0.9333 -788.2375 1058.703)">
    <stop offset="0" stop-opacity="0"/>
    <stop offset="1" stop-opacity=".2"/>
  </linearGradient>
  <path id="eye-left-shade_2_" d="M131.7 52.3c.8-1 3.2-4.1 7.7-4s10.1 4.9 11.9 7.9l-19.6-3.9z" class="eye-left-shade"/>
  <linearGradient id="nose-shade_1_" x1="-3994.2434" x2="-3994.8394" y1="-95.9175" y2="-89.6177" gradientUnits="userSpaceOnUse" gradientTransform="matrix(-0.8952 -0.1241 -8.470000e-02 0.6108 -3458.0708 -362.0674)">
    <stop offset="0" stop-opacity="0"/>
    <stop offset="1" stop-opacity=".2"/>
  </linearGradient>
  <path id="nose-shade_2_" d="M132.9 75.6c-.4.7-1.5 2.9-4.7 3.4s-8-1.7-9.7-3.3l14.4-.1z" class="nose-shade"/>
  <linearGradient id="eye-right-shade_1_" x1="593.9818" x2="593.6237" y1="816.5449" y2="823.1608" gradientUnits="userSpaceOnUse" gradientTransform="matrix(1.3174 9.420000e-02 7.130000e-02 -0.9975 -729.9812 814.6582)">
    <stop offset="0" stop-opacity="0"/>
    <stop offset="1" stop-opacity=".2"/>
  </linearGradient>
  <path id="eye-right-shade_2_" d="M100.2 55.8c.5-1.2 2-4.8 6.6-6.1 4.6-1.2 11.8 1.8 14.5 4.1l-21.1 2z" class="eye-right-shade"/>
  <path id="shirt-white" d="M84.4 141.6c0-1.4 4.5-16.3 29.9-13.9 1.9.2 4 1 5.8 1.2 22.4 1.7 39.1.2 45.2 7.8 6.6 8.3 1.7 44.8-1.7 58C160 208 142.7 243 125 244.4s-29.5 11.1-35.1-.7-17-36.1-16-46.9c1.1-10.7 10.5-55.2 10.5-55.2z" class="st7"/>
  <linearGradient id="shirt-shade_2_" x1="121.2008" x2="121.2008" y1="249.4775" y2="127.4389" gradientUnits="userSpaceOnUse">
    <stop offset=".8" stop-opacity="0"/>
    <stop offset="1" stop-opacity=".2"/>
  </linearGradient>
  <path id="shirt-shade_1_" d="M84.4 141.6c0-1.4 4.5-16.3 29.9-13.9 1.9.2 4 1 5.8 1.2 22.4 1.7 39.1.2 45.2 7.8 6.6 8.3 1.7 44.8-1.7 58C160 208 142.7 243 125 244.4s-29.5 11.1-35.1-.7-17-36.1-16-46.9c1.1-10.7 10.5-55.2 10.5-55.2z" class="st8"/>
  <path id="shirt-color" d="M139.8 128.2c-.3-.2-1.2-.2-4 1.1-3.2 1.5-4.7 3-7.2 4.1l.2.8-1.8 9.7s-1.6 5.3-2.7 5.8h-.1c.2.9.5 1.8.7 2.8 1 4 2.4 5.2 3.6 11.8s.9 12.6.7 19 .7 22.5.7 23 4 41.2 4.3 45.7c.3 4.5-9.7 6.9-12.3 6.8-2.6-.2-12.8-4-13-4.8-.2-.9-2.8-31.5-2.8-31.5s4.3-51.6 5.2-56.9c.9-5.4 4.8-16.8 4.8-16.8v-.2c-.5-.6-.9-1.6-1.3-2.6-.8-1.9-1.6-7.3-2.9-9.4-1.3-2.1-3.2-1-1.9-3.9l.3-.6h-.1c-5.4-3.2-6.9-4.8-6.6-6.1.3-1.3 2.1-3.8 2.8-2.9 0 0 1 2.7 8.5 4 5.5 2.4 8.5 1.8 11.9-.3 3.6-2.3 4.8-4.2 8.4-2.6 3.1 1.3 4.2 3.3 4.6 4zm0 0c.1.2.1.3.1.3s0-.1-.1-.3z" class="shirt-color"/>
  <path id="shirt-collar-left-white" d="M100.9 106.3s.9 9.7 8.8 15.7l7.8 6.1s-3.5-1.6-6.8-.3c-3.3 1.2-9.2 5.2-10.6 6.6-1.4 1.4-3.5 2.6-3.5 2.6s-1.4-18.4-1.2-20.1c.2-1.7 1-7.1 1.2-7.6s1-2.8 2.1-3.1c1.1-.5 2.2.1 2.2.1z" class="st7"/>
  <path id="shirt-collar-right-white" d="M124.6 127.9s12.8-8.9 17.5-13.7c4.7-4.9 8.2-7.8 8.3-11.1.2-3.3-.5-5.5-.5-6.4 0-.7-.1-3.4-.1-3.4s6 6.4 6.6 11.7c.7 6-1 14.8-2.3 20.7-1.4 5.9-2.1 12-2.1 12.8 0 .9-15.1-7.6-18.9-9-3.8-1.4-7.1-1.4-8.5-1.6z" class="st7"/>
  <path id="suit-color" d="M201.2 322.1c-2.8-8.4-1.9-32.9.9-47.7 2.8-14.8 8.8-43.5 9.3-50 .4-6.4 15.7-79.6 13.4-81.9-2.3-2.3-9.2-4.7-15.7-7.9s-13.9-6.9-24.1-10.6c-2.6-.9-5.7-2.4-8.8-4.1-4.3-3.8-10.4-6.4-12.4-8.8-2.8-3.2-9.3-11.1-9.3-11.1 1.4 2.3 1.8 4.6 1.8 11.5 0 7-3.7 16.7-8.3 30.6l-12.5 36.1c-2.7 8.2-9.4 29.5-13.6 43.3-2 5.4-3.8 11.5-5.3 17.6-.2-.8-.4-1.8-.6-2.9-1-4.9-1.8-8.7-2.5-11.6-2.4-11.2-5.4-25.2-7-33-2.8-14.4-6.5-19.4-7.9-45.8-1.4-26.4-1.9-37-1.4-37.9 0 0-1 2.3-3.2 5.7-.3-.2-.8-.1-1.4.3 0 0-12.5 8.3-26.4 13-13.9 4.6-33.3 14.4-33.3 14.4l-.5 35.2s8.3 29.2 8.3 30.6c0 1.4 7.9 28.2 8.3 32.9.5 4.6 6 23.6 6 25 0 1.4-1.9 20.4-3.2 24.5-1.4 4.2-1.9 19-4.2 25s-10.6 33.3-12 56c-1.4 22.7-1.9 54.2-1.9 60.2s1.9 10.2 7.9 11.1c6 .9 28.7 5.1 36.6 3.7 7.9-1.4 11.6-1.8 18.5-22.2 6-17.7 13.8-65.1 17-85.1 2.4 21.4 9.5 71.4 10.3 79.6 1 9.8 10.2 26.9 16.7 29.2 6.5 2.4 16.7 1.4 26.4.5 9.7-.9 40.7-3.7 43-6.9 2.3-3.3 2.3-19 2.8-24.1.4-5.1-1.9-33.8-1.9-42.6s-7-43.5-9.8-51.8z" class="suit-color"/>
  <linearGradient id="suit-left-shade_1_" x1="74.4073" x2="74.4073" y1="314.2169" y2="646.5582" gradientUnits="userSpaceOnUse" gradientTransform="matrix(1 0 0 -1 0 760)">
    <stop offset=".2" stop-color="#231F20" stop-opacity="0"/>
    <stop offset=".4" stop-opacity=".25"/>
    <stop offset=".6" stop-opacity=".15"/>
    <stop offset=".8" stop-color="#231F20" stop-opacity="0"/>
  </linearGradient>
  <path id="suit-left-shade" d="M112.3 260.5c1-6.5 2.4-13.9 4.2-21.2-3.9-20.4-6-24.3-6.9-26.1-.9-1.9-17.1-50.9-16.2-73.1.9-22.5 2.3-28.5-.9-26.2 0 0-12.5 8.3-26.4 13-13.9 4.6-33.3 14.4-33.3 14.4l-.5 35.2s8.3 29.2 8.3 30.6c0 1.4 7.9 28.2 8.3 32.9.5 4.6 6 23.6 6 25 0 1.4-1.9 20.4-3.2 24.5-1.4 4.2-1.9 19-4.2 25s-10.6 33.3-12 56c-1.4 22.7-1.9 54.2-1.9 60.2s1.9 10.2 7.9 11.1c6 .9 28.7 5.1 36.6 3.7 7.9-1.4 11.6-1.8 18.5-22.2 6-17.7 13.8-65.1 17-85.1-.4-3.8-.7-6.7-.8-8.3-.5-10.6-3.2-51.8-.5-69.4z" class="st10"/>
  <linearGradient id="suit-right-shade_1_" x1="168.0766" x2="168.0766" y1="448.4944" y2="108.3" gradientUnits="userSpaceOnUse">
    <stop offset=".2" stop-color="#231F20" stop-opacity="0"/>
    <stop offset=".4" stop-opacity=".25"/>
    <stop offset=".6" stop-opacity=".15"/>
    <stop offset=".8" stop-color="#231F20" stop-opacity="0"/>
  </linearGradient>
  <path id="suit-right-shade" d="M201.2 322.1c-2.8-8.4-1.9-32.9.9-47.7 2.8-14.8 8.8-43.5 9.3-50 .4-6.4 15.7-79.6 13.4-81.9-2.3-2.3-9.2-4.7-15.7-7.9s-13.9-6.9-24.1-10.6-27.3-15.7-27.3-15.7 4.7 14.8 4.2 24.5-24.6 62.9-32.9 74.5c-5.3 7.3-9.4 19.5-12.5 32-1.8 7.3-3.2 14.7-4.2 21.2-2.7 17.6 0 58.8.5 69.4.1 1.6.4 4.5.8 8.3 2.4 21.4 9.5 71.4 10.3 79.6 1 9.8 10.2 26.9 16.7 29.2 6.5 2.4 16.7 1.4 26.4.5 9.7-.9 40.7-3.7 43-6.9 2.3-3.3 2.3-19 2.8-24.1.4-5.1-1.9-33.8-1.9-42.6s-6.9-43.5-9.7-51.8z" class="st11"/>
  <path id="suit-arm-right-color" d="M32.7 141.2s-3.7 0-4.6 1.9-2.3 22.2-3.7 27.8c-1.4 5.6-3.7 17.1-5.6 21.3s-5.6 16.7-5.6 19-2.8 19.4-3.2 21.3c-.5 1.9-.9 17.6-1.4 19s-3.7 9.3-5.1 12c-1.4 2.8-3.2 19.4 1.4 25.9s9.3 12.5 16.7 14.4c7.4 1.8 15.3 2.3 22.2 2.8s16.7 2.3 19 1.8c2.3-.5 10.6-2.3 13.4-10.6 2.8-8.3 2.8-31 .5-36.1s-3.2-6-7.9-6.5c-4.6-.5-13.9-.5-13.9-.5s-3.7-33.8-7.4-52.8-10.6-47.2-11.6-51.8c-.8-4.8-3.2-8.9-3.2-8.9z" class="suit-color"/>
  <path id="suit-collar-left-02-shade" d="M66.4 138.5c-.9.6-1.3.9-1.3.9l8.7 4.1 1.1-.9-8.5-4.1z" class="st12"/>
  <path id="suit-collar-left-01-shade" d="M93 202.3c-11.2-16-26.7-49.4-27.7-51.7l-1.1.9s16.2 35.2 27.8 51.8c7.6 10.9 7.7 9.6 24.1 39.3 0 0-.4-1.8-1-4.7-14.4-25.9-14.8-25.2-22.1-35.6z" class="st12"/>
  <path id="suit-collar-right-02-shade" d="M118.5 233.5c-.3 1-.5 1.5-.5 1.5s23.5-26.6 32-36.8c8.3-10.2 35.6-46.8 35.6-46.8l-.5-.4c-3.5 4.7-27.5 36.8-35.1 46.2-7.8 9.4-28.2 32.5-31.5 36.3z" class="st12"/>
  <path id="suit-collar-right-01-shade" d="M185.2 136.6l-11.6 3.6.9.7 11.1-3.4s-.1-.3-.4-.9z" class="st12"/>
  <path id="suit-arm-left-color" d="M225 143s-7.4 8.8-10.7 15.7c-3.2 6.9-15.7 37-17.1 51.4-1.4 14.4-.5 31-.5 40.7v12.5l-5.6-.9s-19-1.9-23.6-1.9-13-.5-14.4 0-5.6 23.1-5.6 34.7 7.4 19.4 7.4 19.4l.1 1.8s14.6.4 31.6-1.4 34.4-4.7 41.4-6.4c7-1.6 10.2-2.3 15.4-10.9 5.1-8.6 7-6.2 7-11.1s-1.8-9.6-2.7-18.9c-.8-9.2-.6-17-2-24.8s-4.5-16.2-4.5-19.9-3.5-19.5-4.5-24.4-1.8-9-2.1-12.7c-.2-3.7-4.3-6.4-4.7-11.9s.2-10.5.6-17.2c.5-6.5.9-12.4-5.5-13.8z" class="suit-color"/>
  <path id="elbow-left-shade" d="M236.1 268.9l-.8-.7-5.5-4.9s-4.6-1.5-5.9-2c-1.3-.5-6.5-3.4-8.1-4-1.6-.7-4.2-1.7-6.4-1.8s-8 1.2-9.4 1.8-5.2 2.7-5.2 2.7l12.8-5.7 5.3-.1s4.3 1.4 6.4 1.8c2.1.5 7.8 2 9.1 2.6 1.3.5 7.2 6.3 7.2 6.3l.5 4z" class="st12"/>
  <path id="arm-right-shade" d="M46.4 192.6s5.6 17.7 5.6 21.5 1.7 15.6 2.1 19.8c.3 4.2 3.1 19.8 3.1 20.8h-2.3l-3.7-29.9-2.3-15.3-2.5-16.9z" class="st12"/>
  <path id="elbow-right-shade" d="M44.1 258.3l-1-.4-6.9-2.4s-4.9.3-6.2.3c-1.4 0-7.3-.7-9-.7s-4.5 0-6.6.7-6.9 4.2-8 5.2c-1 1-3.8 4.5-3.8 4.5l9.7-10.1 4.9-2.1s4.5-.3 6.6-.7c2.1-.3 8-1 9.4-1s9 3.1 9 3.1l1.9 3.6z" class="st12"/>
  <path id="sleeve-left-shade" d="M69 305.1s6.4-6.4 6.7-12.1c.2-3.9 1-10.4 1-10.4l-4.9 4.2s-1.7-1-3.8-1.7c-2.1-.7-3.8-1-4.2-2.1-.3-1-1.7-4.9-1.7-4.9l-.7 8.7s3.1 11.5 3.5 12.8c.4 1.4 4.1 5.5 4.1 5.5z" class="st13"/>
  <path id="sleeve-right-shade" d="M149.9 289.2s.4 6.9.7 10.4 2.6 10.4 3.2 12.2c.6 1.7 1 3.8 2.2 2.1 1.3-1.7 4.5-5.9 4.5-11.5s1.9-9 1.9-12.8-2.2-6.6-3.2-6.6c-.9-.1-9.3 6.2-9.3 6.2z" class="st13"/>
  <path id="hair-color" d="M92.2 67.6s1.8-4 1.8-4.4c0-.5-.9-8.4-.9-8.4s.5-5.8.9-6.4c.5-.6 3.3-6.1 3.5-9s-2-8.7-1.5-10.9c.5-2.1.3-4.1 3-6.1s4.9-3.3 10.2-2.7c5.3.6 6.4 0 13.8.6s14.6-1 17.9-.4c3.3.6 8.7 4 9.5 5.6.8 1.5-.8 6.5-.8 9.5 0 3.1-.9 4.9.8 8.2s2 10.7 2 12.7-.1 9 .4 11 1.8 2.1 1.8 2.1-1.2-12.7-.4-18.4c.5-.6.8-.8 1.3-1.1 2.9-8.2 2-22.6-.1-27.9-.8-1.9-2.7-9.3-9.9-14.5-.5-.4-1.1-.2-1.6-.6-.6-.4-1.2-1.2-1.8-1.5-4.1-2-9.5-3.4-17-3.4-26.4 0-32.2 14-32.2 14s-4.3 8.4-4.7 9.3c-.3.9-1.2 20.9-.6 22.3.6 1.4.6 4.9 1.2 6.9s2.2 13 2.2 13l1.2.5z" class="hair-color"/>
  <path id="sleeve-left-color" d="M152 298.5s.4 1.7 2.3 1.8c1.8.1 2.3 1.1 3.7-.1s2.8-3 3-4c.2-.9.3-.8.3-.4s-.4 3.6-.4 4.1c-.1.4-.1 1.8-.2 2.1-.1.3-1.7.7-3.8.3-2.1-.4-3.1-.5-3.9-1.5-.8-1-1.5-1.4-1.5-2.1s.1-.6.5-.2" class="st7"/>
  <path id="sleeve-right-color" d="M66.5 265.8s-2.9 4.7-3.3 5.6c-.3.7-1.7 5.5-2.4 8.7-.3 1.2-.5 2.3-.5 2.7 0 1.6 1.2 9.6 1.3 11 0 1.4.6 4.6 1.7 4.5 1.2 0 4.6-.6 6-1.1s6.1-4.3 6.1-4.3l.4-1.2-2.1-1.1s-1.8 1.2-2.7 2.2c-.9 1-.2 1.6-1.6 1.9s-.9 1.9-2.3.5c-1.4-1.3-3.5-1.3-4-4s-2.3-6.4-1.7-9.4c.6-2.9 5.1-16 5.1-16z" class="st7"/>
  <path id="right-hand-color" d="M143.1 298.6c-6.5.7-18.4 1.2-21.7 1.2-3.4 0-13.2-.2-13.9-1.6-.7-1.4-.7-2.3-.7-2.3s-.2-1.9 3.9-1.8c4.1.2 6.9.2 12.2.2 5.3 0 7.2-.9 7.2-2.3s-.4-1.2-.9-2.6 1.2-4.6 1.1-7.4c-.2-2.8.2-4.4.2-6.9s1.6-6.5-.4-7.9c-1.9-1.4-3.4-1.8-6.5-2.3-3.2-.5-3.9-1.4-6-1.4s-2.8-.5-5.5-.7c-2.6-.2-3.4-.2-3.9-.9s-2.8-3 .5-3c3.4 0 12.9.2 15.4.2s7.8.2 8.5-.2c.7-.4.9-3-2.8-3.7s-10.8-3.9-12.4-5.5c-.5-.5-1.1-1.6-1.6-2.7-.2.4-.5.8-.9 1.2-2.1 2.1-6.6 3.8-9.4 6.9s-3.1 1.7-4.2 4.5c-1 2.8.7 2.8-2.8 9-3.5 6.3-1.7 8.3-6.9 9.7-5.2 1.4-10.8 2.4-11.5.7-.7-1.7-3.8-9.4 0-17.7 3.8-8.3 7.3-10.8 7.3-10.8s11.8-1.4 14.6-3.5c2.8-2.1 5.9-3.5 7.6-5.6s2.1-2.4 3.8-2.4c.8 0 1.5.1 1.9.4.8-.7 1.8-1.2 2.7-.6 1.4 1.1 3.7 3.9 4.9 4.6 1.2.7 4.1 1.2 5.5 1.9 1.4.7 3.9 1.9 4.9 2.8 1.1.9 2.8 1.9 5.1 2.7 2.3.7 2.8.5 3.5 1.4s2.6 3.9 3.2 5.1c.5 1.2 1.9 14.7 2.1 18.2.2 3.5 0 15.5-.5 16.8-.4 1.3 3 5.6-3.6 6.3z" class="skin-color"/>
  <linearGradient id="hand-shade_1_" x1="112.7606" x2="112.7606" y1="521.3822" y2="460.2082" gradientUnits="userSpaceOnUse" gradientTransform="matrix(1 0 0 -1 0 760)">
    <stop offset="0" stop-opacity="0"/>
    <stop offset=".9018" stop-opacity=".5"/>
  </linearGradient>
  <path id="hand-shade" d="M143.1 298.6c-6.5.7-18.4 1.2-21.7 1.2-3.4 0-13.2-.2-13.9-1.6-.7-1.4-.7-2.3-.7-2.3s-.2-1.9 3.9-1.8c4.1.2 6.9.2 12.2.2 5.3 0 7.2-.9 7.2-2.3s-.4-1.2-.9-2.6 1.2-4.6 1.1-7.4c-.2-2.8.2-4.4.2-6.9s1.6-6.5-.4-7.9c-1.9-1.4-3.4-1.8-6.5-2.3-3.2-.5-3.9-1.4-6-1.4s-2.8-.5-5.5-.7c-2.6-.2-3.4-.2-3.9-.9s-2.8-3 .5-3c3.4 0 12.9.2 15.4.2s7.8.2 8.5-.2c.7-.4.9-3-2.8-3.7s-10.8-3.9-12.4-5.5c-.5-.5-1.1-1.6-1.6-2.7-.2.4-.5.8-.9 1.2-2.1 2.1-6.6 3.8-9.4 6.9s-3.1 1.7-4.2 4.5c-1 2.8.7 2.8-2.8 9-3.5 6.3-1.7 8.3-6.9 9.7-5.2 1.4-10.8 2.4-11.5.7-.7-1.7-3.8-9.4 0-17.7 3.8-8.3 7.3-10.8 7.3-10.8s11.8-1.4 14.6-3.5c2.8-2.1 5.9-3.5 7.6-5.6s2.1-2.4 3.8-2.4c.8 0 1.5.1 1.9.4.8-.7 1.8-1.2 2.7-.6 1.4 1.1 3.7 3.9 4.9 4.6 1.2.7 4.1 1.2 5.5 1.9 1.4.7 3.9 1.9 4.9 2.8 1.1.9 2.8 1.9 5.1 2.7 2.3.7 2.8.5 3.5 1.4s2.6 3.9 3.2 5.1c.5 1.2 1.9 14.7 2.1 18.2.2 3.5 0 15.5-.5 16.8-.4 1.3 3 5.6-3.6 6.3z" class="hand-shade"/>
  <path id="left-hand-color" d="M161.1 274c-.5-2.6-2.3-3.7-3.4-4.9-1.1-1.2-5.1-6.2-6.4-7.8-1.2-1.6-3.7-3.7-5.1-3.9-1.4-.2-7.2-.7-9-.7s-3.7-.3-4.4-.7c-.7-.4-4.4-.5-5.5-.9-1.1-.4-5.6-1.2-8.8-1.6-3.2-.4-5.3-.4-7.6-.4-1.6 0-2.6 1.1-3 2.5-1.7-.4-6.1-1.7-8.7-2-2.8-.3-6.6-1-10.4-1s-6.2-1-8.7 1c-2.4 2.1-3.8 6.9-6.2 11.1-2.4 4.2-1.4.1-7.3 6.3-5.5 5.7-5.5 15.9-4.8 21.1.6 4.8.9 3.2 3.1 3.4h7.3l5.9 1.7s4.5.4 5.6 0c1-.3 3.1-1.4 5.6-.7 2.4.7 10.4 3.8 12.5 3.8s4.9 1.4 5.9-.7c0 0 0-.1.1-.1.3.3.7.6 1.2.8 1.4.5 2.1.7 8.5 1.2s8.3-.4 13.6-.4c5.3 0 3.4-.2 6.2.7 2.8.9 6.2-.2 10.9-.4 4.8-.2 4.9-1.1 7.4-.9s6.2.9 6.2.9 1.2-3 1.9-11.1c.6-7.8-2.1-13.6-2.6-16.3zm-24.7 18.9c-1.1.2-4.4.5-5.6 1.1-1.2.5-6 .4-10.6.4s-6-.4-8.8-.4c-1.8 0-3.1.3-3.9 1.1-1-.5-2.7-.7-6.5-1.8-5.6-1.7-12.2-5.2-12.2-5.2l-4.6-2.8s12.6 1.8 14.3 2.1c1.7.4 4.9 1.7 5.9.4.2-.2.4-.5.7-.8.5 1.4 1.5 2 3.8 2.5 3.2.7 7.8.5 12 .3s9.9.4 13.1.5c3.2.2 4.6 1.8 4.6 1.8s-1.1.6-2.2.8zm-1.4-12c-3 .4-7.9.2-10.9 0s-12.2.2-14.1.4c-1.1.1-2.7.3-3.8 1-1.6-.8-3.9-2-5.5-2.6-2.1-.7-9.4-4.2-9.4-4.2l-5.2-2.2.9-.3c2.2.2 5 .4 6.7.4 3.1 0 6.6 2.4 9 1 1-.6 1.9-1.1 2.5-1.5.8 1.4 2.2 2.1 4.3 2.3 3.2.4 10.6 1.4 15 1.6 4.4.2 7.8.5 11.6.7 3.9.2 3.9 1.9 3.9 1.9s-2 1.2-5 1.5zm2.3-13.4c-2.1.9-3.5.5-7.2.5s-5.3-.5-9-1.1c-3.7-.5-8.8-.4-10.8-.4-1.3 0-3.3.2-4.5 1.3-.5-.5-1.1-1-2-1.4-2.8-1-7.6-.7-9.7-1.4-2.1-.7-5.6-1.7-6.6-1.7s-1-1.7-1-1.7h7.6c3.8 0 8.3 1 10.1 1 1.7 0 3.5 1 3.8-2.1 0-.3.1-.6.1-.9.2.5.5.7.5.7s1.4 1.1 2.6 1.1 4.9.5 6.9.5c1.9 0 4.8.2 9 .7s6 1.8 7.1 1.8 6.5 1.2 6.5 1.2-1.3 1-3.4 1.9z" class="skin-color"/>
  <linearGradient id="neck-shade_1_" x1="123.549" x2="123.549" y1="637.0171" y2="678.7273" gradientUnits="userSpaceOnUse" gradientTransform="matrix(1 0 0 -1 0 760)">
    <stop offset="0" stop-opacity="0"/>
    <stop offset=".9015" stop-opacity=".3"/>
  </linearGradient>
  <path id="neck-shade" d="M150.1 94.8c-.4-3.5 0-8.2-.4-10.6-2 7.6-7.5 12.5-9.5 16.6-2.2 4.4-7.3 5.9-14.9 5.9-7.9 0-14.9-3.7-19.3-7.3-4.5-3.7-7.4-9.9-8.9-15.4-.2-.9-.5-1.7-.7-2.6 0 4.9 2.8 13.5 3.4 16.8.6 3.5 1 12.2 2.9 16.2 2 4 5.3 6 5.3 6s15.3 11 41.7-12c1.7-1.5.8-10.1.4-13.6z" class="neck-shade"/>
</svg>