<svg xmlns="http://www.w3.org/2000/svg" id="Client-Male-Left" class="avatar-user avatar-male skin-darker" viewBox="0 0 250.5 757.6">
  <style>
    <!-- avatar specific shading styles -->
    #Client-Male-Left .st1{fill:url(#aml-pant-right-shade_1_);}
    #Client-Male-Left .st2{fill:url(#aml-pant-left-shade_1_);}
    #Client-Male-Left .st4{fill:#FFFFFF;}
    #Client-Male-Left .st5{opacity:0.1;}
    #Client-Male-Left .st7{fill:url(#aml-shirt-shade_1_);}
    #Client-Male-Left .nose-shade{fill:url(#aml-nose-shade_1_);}
    #Client-Male-Left .eye-right-shade{fill:url(#aml-eye-right-shade_1_);}
    #Client-Male-Left .eye-left-shade{fill:url(#aml-eye-left-shade_1_);}
    #Client-Male-Left .neck-shade{fill:url(#aml-chin-shade_1_);}
    #Client-Male-Left .ear-shade{fill:url(#aml-ear-shade_1_);}
  </style>
  <path id="aml-shoe-right-color" d="M77.6 663.5c-2.9 2-5.4 4.3-7.4 7.2-3.2 4.9-5.1 6-10.5 8.3-3.8 1.6-6.8 4.5-10.8 5.4-5.9 1.3-8.6 2.8-13 7.2-5.7 5.6-3.9 12.7 4.1 15.1 9.7 2.9 22.1 1.1 31.6-1.6 8.5-2.4 16.1-7.4 25-8 9.2-.6 20.9 0 29.1-4.9 10.7-6.5 2.4-27.2-7.5-30-12.5-3.4-28-.5-40.6 1.3z" class="shoe-color"/>
  <path id="aml-shoe-left-color" d="M133.1 692.4c-1.1 5.7-2.2 10.6-5.9 15.3-1.9 2.4-4.3 4.6-5.8 7.3-1.7 3.1-2.3 6.7-4.1 9.8-3.2 5.3-9.1 13.9-4.9 20.5 3.4 5.4 13.9 7.1 19.5 7.1 9.5 0 19.3-5.6 25.7-12.5 4.1-4.4 6.3-10.3 9.7-15.3 4-5.8 5.6-9.1 6.1-16.3.5-6.3 2-15.5-4.6-18.9-5.8-3-13.6-3.2-19.9-2.8-4.4.2-13.7.7-15.8 5.8z" class="shoe-color"/>
  <path id="aml-pant-color" d="M185.1 554.8c-.7-8.1-.4-22.7-.8-34.3-.4-11.6-1.8-72.1-3.8-82-1.9-9.9-5.6-24-5.1-30.2s5.4-24.4 4.4-33c-1.1-8.5-2.6-18.4-7.6-22-5-3.5-34.3-15.5-51.6-16.1-12.3 0-29.5 10.6-38.7 16.9-9.7.9-28 2.2-29.1 9.8 0 0 .2 22.1 2 27.9 1.8 5.8 12.5 56.6 13.9 65.9 1.4 9.3 5.5 19.9 5.1 26.1-.3 6.2-2.5 24.4-1.5 31.4 1 7.1 5.1 19 6.4 26.5 1.4 7.5 1.4 14.6 3.7 28.3 2.3 13.7 6.5 31.3 5.2 34.5-1.3 3.1 0 43.3 0 43.3l-4.9 1.3s-8.8 13.4-7.9 14.7c.9 1.3 22.2 16.6 31.2 17.4 8.8.8 23-3.7 23-3.7s.8-2.8 1.5-6.2c.2 8.1.3 13.5.2 14.2-.2 3.1 1.4 10.4 1.4 10.4s19.7 3.4 22.3 5.3c2.6 2 8.9 6 15.2 4.7 6.3-1.3 6.3-6.1 6.3-6.1s1.1-2.6 1.9-7c.7-4.4 7.4-75.9 7.7-80.2.4-4.5.4-49.8-.4-57.8z" class="pant-color"/>
  <linearGradient id="aml-pant-right-shade_1_" x1="52.9152" x2="130.5812" y1="517.7417" y2="517.7417" gradientUnits="userSpaceOnUse">
    <stop offset="0" stop-opacity="0"/>
    <stop offset="1" stop-opacity=".2"/>
  </linearGradient>
  <path id="aml-pant-right-shade" d="M128.7 575.1c.8-4.3-8.4-67-9.6-74.6-1.1-7.6-1.1-23.2-3.4-27.7-2.3-4.6-5.5-20.4-6.2-23.6-.7-3.2-10.6-12.4-13.9-21.1-3.3-8.7-11.8-15.1-12.7-19.2s-4.3-12.8-5-26.6c-.7-13.8-2.1-23.6-2.1-23.6s2.4-1.9 6.3-4.5c-9.7.9-28 2.2-29.1 9.8 0 0 .2 22.1 2 27.9 1.8 5.8 12.5 56.6 13.9 65.9 1.4 9.3 5.5 19.9 5.1 26.1-.3 6.2-2.5 24.4-1.5 31.4 1 7.1 5.1 19 6.4 26.5 1.4 7.5 1.4 14.6 3.7 28.3 2.3 13.7 6.5 31.3 5.2 34.5-1.3 3.1 0 43.3 0 43.3l-4.9 1.3s-8.8 13.4-7.9 14.7c.9 1.3 22.2 16.6 31.2 17.4 8.8.8 23-3.7 23-3.7s.8-2.8 1.5-6.2c-.8-29.2-2.6-92.9-2-96.3z" class="st1"/>
  <linearGradient id="aml-pant-left-shade_1_" x1="75.7164" x2="185.759" y1="521.6923" y2="521.6923" gradientUnits="userSpaceOnUse">
    <stop offset="0" stop-opacity="0"/>
    <stop offset="1" stop-opacity=".2"/>
  </linearGradient>
  <path id="aml-pant-left-shade" d="M185.1 554.8c-.7-8.1-.4-22.7-.8-34.3s-1.8-72.1-3.8-82c-1.9-9.9-5.6-24-5.1-30.2.5-6.2 5.4-24.4 4.4-33-1.1-8.5-2.6-18.4-7.6-22-5-3.5-34.3-15.5-51.6-16.1-12.3 0-29.5 10.6-38.7 16.9-3.8 2.6-6.3 4.5-6.3 4.5s1.4 9.8 2.1 23.6c.7 13.8 4 22.5 5 26.6s9.4 10.5 12.7 19.2c3.3 8.7 13.2 17.9 13.9 21.1.7 3.2 3.8 19 6.2 23.6 2.3 4.6 2.3 20.1 3.4 27.7 1.2 7.6 10.4 70.3 9.6 74.6-.6 3.4 1.2 67.1 1.9 96.2.2 8.1.3 13.5.2 14.2-.2 3.1 1.4 10.4 1.4 10.4s19.7 3.4 22.3 5.3c2.6 2 8.9 6 15.2 4.7 6.3-1.3 6.3-6.1 6.3-6.1s1.1-2.6 1.9-7c.7-4.4 7.4-75.9 7.7-80.2.5-4.4.5-49.7-.3-57.7z" class="st2"/>
  <path id="aml-right-hand-color" d="M43.9 360.1l9.7 12.1 8-14.6L50.5 342l-6.6 18.1z" class="skin-color"/>
  <path id="aml-left-hand-color" d="M114.1 361.8l36.1 4.7.2 2.3c-1.1 13.5-33.3 18.9-37.5-3.9 0 .1 1.2-3.1 1.2-3.1z" class="skin-color"/>
  <path id="aml-collar-right-white" d="M99.6 107.8c-1.7-.6-5.9 3.7-7.3 5.6s-11.2 19.9-11.2 19.9l11.1-8.3 7.3.9v-18.1z" class="st4"/>
  <path id="aml-collar-right-shade" d="M98.6 107.8s-7.2 5.2-7.4 9.6c-.2 4.4 2.7 6.9 4 8.4s3 1.4 3 1.4l.4-19.4z" class="st5"/>
  <path id="aml-face-color" d="M97.6 121.8s.1-18.6-.5-20.2c-.6-1.7-5-2.9-5.9-4.2-.9-1.2-4.6-6.6-6.4-11.7s-5.1-12.8-5.2-17.2c-.1-4.5-1-10.4-.6-12.9s.4-4.3.1-6.7c-.3-2.4-1.5-5.2-.4-9.3 1-4.2 2.6-11.3 3.3-13.3.6-2.1 8.8-14.6 13.9-17s17.6-5.7 31.9-4.1C151 9.1 153.1 37 152.6 44.3c-.5 7.2-2.9 14.6-5 17.8-2 3.2-4.4 9-6.2 14.8-1.7 5.8-1.9 13.1-1.4 17.3.5 4.2.2 10.9.2 10.9s-17.5 17.6-23.4 20.5c-5.9 2.9-14.6 6.7-16.9 4.5-2.5-2.3-2.3-8.3-2.3-8.3z" class="skin-color"/>
  <path id="aml-shirt-color" d="M183.7 138.2s.2-4.1-3.2-9.1c-3.4-5-33.6-20.1-33.6-20.1-10.2-2.8-25.7 3.3-28.3 5.4-2.6 2.1-8.8 9.1-12.8 10-8.1 2.7-11.4.5-12.4-.6-.3-.3-.7-.3-.9 0-4.1 3.4-30.1 25.4-32.2 31.7-2.4 6.7-5.7 18.2-4.2 34.8.7 7.8 1.4 19.3 1.5 31.2h-.2c.1 3.1-.9 10.2-2.1 16-1.1 5.8-2.4 8.9-2.3 12.9.1 4 .4 11.5.4 11.5s-4.4 15.3-5.2 17.9c-.8 2.7-6.4 19.7-6.3 22.3s-4.6 18.3-4.7 22.3-1.3 26.6 4.8 34.4c1.5 1.9 2.8 2.1 2.8 2.1s.4-9.5 6.4-15.9c1.5 4.6 4.1 9.4 9 12.4 11 6.7 15.8 9.8 28.3 6.5 12.4-3.4 28.8-8.1 47-5.8 18 2.4 34.9 6.8 40.1 5.2 5.2-1.6 10.1 1.5 6.9-7-3.1-8.4-5.4-15-6.5-22.3-7.4-20.4 9.3-138.8 10.3-145.4 1-6.7-2.6-50.4-2.6-50.4z" class="shirt-color"/>
  <linearGradient id="aml-shirt-shade_1_" x1="39.9147" x2="214.886" y1="211.0086" y2="274.693" gradientUnits="userSpaceOnUse">
    <stop offset=".4" stop-opacity="0"/>
    <stop offset="1" stop-opacity=".3"/>
  </linearGradient>
  <path id="aml-shirt-shade" d="M93.3 123.6c-.3-.3-.7-.3-.9 0-4.1 3.4-30.1 25.4-32.2 31.7-2.4 6.7-5.7 18.2-4.2 34.8 1.6 16.5 2.6 50.4-.5 67.2-3.1 16.8-3 43.4-4 50.1-1 6.7-4.8 23.5-3.3 25.4 1.4 1.9.9 17.9 11.9 24.6 11 6.7 15.8 9.8 28.3 6.5 12.4-3.4 28.8-8.1 47-5.8 18 2.4 34.9 6.8 40.1 5.2 5.2-1.6 10.1 1.5 6.9-7-3.1-8.4-5.4-15-6.5-22.3-7.4-20.4 9.3-138.8 10.3-145.4 1-6.7-2.6-50.4-2.6-50.4s.2-4.1-3.2-9.1c-3.4-5-33.6-20.1-33.6-20.1-10.2-2.8-25.7 3.3-28.3 5.4-2.6 2.1-8.8 9.1-12.8 10-8 2.5-11.3.3-12.4-.8z" class="st7"/>
  <path id="aml-arm-right-shade" d="M59.5 221.2h-2.1c.1 3.1-.9 10.2-2.1 16-1.1 5.8-2.4 8.9-2.3 12.9.1 4 .4 11.5.4 11.5s-4.4 15.3-5.2 17.9c-.8 2.7-6.4 19.7-6.3 22.3s-4.6 18.3-4.7 22.3c-.1 4-1.3 26.9 4.9 34.7 1.5 1.9 2.8 2.1 2.8 2.1s.4-10.4 7.2-16.8l7.4-122.9z" class="st5"/>
  <path id="aml-arm-left-color" d="M165.9 123.3c20.6-2.5 25.8 32.1 25.7 35.2 0 3.1 2.8 30 3.6 37 .9 7 .4 13.8.1 18.7-.3 5-2.2 10.9-1.9 17.7.4 6.6 3.5 28.6 2.4 34.1s-5.2 18.9-11.1 29.5c-5.9 10.5-15.9 34.1-19.2 39.3-3.4 5.4-10.7 11.6-13 13.7-2.5 2.1-3.8 4.9-3.8 4.9l2.5 13.1s-5.9 10.1-18.8 6.7c-12.9-3.4-19.2-11.4-19.2-11.4s6-9.2 5.6-12.3 5.7-25.7 8.4-29.6c2.7-3.9 7.5-8.1 8.8-11.8 1.4-3.7 7.1-18.3 8.5-25.1 1.4-6.8 4.4-14.8 6.9-23.1 2.5-8.4 2.9-12.4 1.7-18.9-1.2-6.5-4.3-17.3-5-23.1-.7-5.8-.7-16.4-5.5-23s-5.2-34.6-1.5-44.9c3.6-10.3 3.7-24.1 24.8-26.7z" class="shirt-color"/>
  <path id="aml-collar-left-white" d="M104.8 117.4s-.4 5.3-6.9 8.1c8.7.1 10.4-2.4 10.4-2.4 3.2 5.4 7.6 12.7 8.1 13.6.6 1.4 1.6 3.8 2.8 3 1.2-.9 7.1-9.8 11.7-13.9s13.5-11.4 16.1-12.7c2.6-1.2 4.6-2.4 4.6-2.4s-3.1-2.7-3.5-6.5c-.5-3.8-.6-8.4-6.2-7.3-5.7 1.1-16.2 5.8-21.3 9.3-5.3 3.6-15.8 11.2-15.8 11.2z" class="st4"/>
  <path id="aml-collar-left-shade" d="M104.8 117.4s-.4 5.3-6.9 8.1c8.7.1 10.4-2.4 10.4-2.4 3.2 5.3-3.5-5.7-3.5-5.7z" class="st5"/>
  <linearGradient id="aml-nose-shade_1_" x1="-3805.2759" x2="-3805.2759" y1="-217.7511" y2="-208.4925" gradientUnits="userSpaceOnUse" gradientTransform="matrix(0.8734 -0.2323 0.1585 0.5959 3451.5896 -684.7205)">
    <stop offset="0" stop-opacity="0"/>
    <stop offset="1" stop-opacity=".2"/>
  </linearGradient>
  <path id="aml-nose-shade" d="M84.4 71.8c.6.8 2.4 3.5 6.7 3.7s10.3-3.5 12.3-5.9l-19 2.2z" class="nose-shade"/>
  <linearGradient id="aml-eye-right-shade_1_" x1="364.8387" x2="364.8387" y1="781.2469" y2="787.6853" gradientUnits="userSpaceOnUse" gradientTransform="matrix(-1.2306 0.467 -0.3563 -0.9684 813.933 639.2901)">
    <stop offset="0" stop-opacity="0"/>
    <stop offset="1" stop-opacity=".2"/>
  </linearGradient>
  <path id="aml-eye-right-shade" d="M86 46.7c-2.2.1-4.7 1.3-6.9 2.8.2 1.4.2 2.5.1 3.8l14.2-2.8c-.7-.9-3-3.8-7.4-3.8z" class="eye-right-shade"/>
  <linearGradient id="aml-eye-left-shade_1_" x1="379.296" x2="379.296" y1="1268.5392" y2="1275.3826" gradientUnits="userSpaceOnUse" gradientTransform="matrix(1.2326 0.1752 0.1407 -0.9901 -538.8323 1241.1847)">
    <stop offset="0" stop-opacity="0"/>
    <stop offset="1" stop-opacity=".2"/>
  </linearGradient>
  <path id="aml-eye-left-shade" d="M97.7 50.2c.6-1.2 2.2-4.6 6.5-5.5 4.3-.9 10.7 2.4 13 5l-19.5.5z" class="eye-left-shade"/>
  <linearGradient id="aml-chin-shade_1_" x1="116.2209" x2="116.2209" y1="648.3464" y2="676.4161" gradientUnits="userSpaceOnUse" gradientTransform="matrix(0.9925 -0.1219 -0.1219 -0.9925 76.7342 774.3149)">
    <stop offset="0" stop-opacity="0"/>
    <stop offset=".9018" stop-opacity=".4"/>
  </linearGradient>
  <path id="aml-chin-shade" d="M96.1 100.5s13.6 1.7 29.1-13.6c0 0-1.1 7.5-9.8 12.6-8.7 5.1-11.7 8.1-13.4 11-1.7 2.8-4.3 8.1-4.3 8.1s.2-12.4-.5-17c-.1-.4-1.1-1.1-1.1-1.1z" class="neck-shade"/>
  <radialGradient id="aml-ear-shade_1_" cx="144.8125" cy="54.125" r="12.3023" gradientTransform="matrix(6.123234e-17 -1 0.5 3.061617e-17 117.75 198.9375)" gradientUnits="userSpaceOnUse">
    <stop offset="0" stop-opacity=".2"/>
    <stop offset=".8629" stop-opacity="0"/>
  </radialGradient>
  <path id="aml-ear-shade" d="M137 41.1l5 6.6c.3-.1 2.1-.2 2.6 0 1.4.4 2.4 1.6 2.7 4.3s-.5 3.4-1.4 6.8c-.8 3.4-6.2 4.3-6.2 4.3l-6.5 3.4 18.8.6 4.4-26H137z" class="ear-shade"/>
  <path id="aml-hair-color" d="M153.6 30.8c-3.4-13.5-13-26.1-27.1-29.1-7.3-1.5-14.7-1.3-22 0-2.7.5-5.3 1-7.8 2-3.1 1.3-5.1 3.4-7.4 5.8-2.4 2.3-5.5 5.1-6.5 8.4-.6 2-.1 4.1.1 6.1 7.8-7.8 20.2-7.2 30.3-7.4 4.9-.1 14.6-2 15.1 4.9.3 4.4-2 8.3-2.4 12.6-.2 1.5-.1 2 1.1 2.9 1.8 1.2 2.6 2.7 3.8 4.6 2.1 3.4 2.1 6.4 1.8 10.2 0 .7-.3 1.5.1 2.1.4.8 1.9 1.5 2.6 2 .7-3.6 2.6-6.5 6.3-7.7 4.6-1.4 6.8 2 5.5 6.4-1.3 4.5-3.6 8.8-4.4 13.3-.5 3.1-1.1 6.1-1.6 9.2 2.8-5.2 5.5-10.5 7.9-15.9 3.7-9.2 6.9-20.5 4.6-30.4z" class="hair-color"/>
</svg>
